<svg xmlns="http://www.w3.org/2000/svg" xmlns:xlink="http://www.w3.org/1999/xlink" width="360" height="480" viewBox="0 0 360 480">
  <defs>
    <clipPath id="clip-Web_1920_2">
      <rect width="360" height="480"/>
    </clipPath>
  </defs>
  <g id="Web_1920_2" data-name="Web 1920 – 2" clip-path="url(#clip-Web_1920_2)">
    <rect width="360" height="480" fill="#fff"/>
    <rect id="Rectangle_171" data-name="Rectangle 171" width="10" height="100" transform="translate(45 320)"/>
    <rect id="Rectangle_172" data-name="Rectangle 172" width="10" height="90" transform="translate(175 320)"/>
    <rect id="Rectangle_173" data-name="Rectangle 173" width="10" height="197" transform="translate(305 153)"/>
    <rect id="Rectangle_174" data-name="Rectangle 174" width="10" height="98.5" transform="translate(185 208) rotate(90)"/>
    <rect id="Rectangle_175" data-name="Rectangle 175" width="10" height="261.5" transform="translate(310.75 153) rotate(90)"/>
    <rect id="Rectangle_176" data-name="Rectangle 176" width="10" height="118" transform="translate(45 45)"/>
    <rect id="Rectangle_177" data-name="Rectangle 177" width="10" height="98.5" transform="translate(157.5 86) rotate(90)"/>
    <rect id="Rectangle_178" data-name="Rectangle 178" width="10" height="107" transform="translate(204.25 56)"/>
    <rect id="Rectangle_179" data-name="Rectangle 179" width="10" height="98.5" transform="translate(302.75 56) rotate(90)"/>
    <rect id="Rectangle_180" data-name="Rectangle 180" width="70" height="60" transform="translate(360 26) rotate(90)"/>
    <rect id="Rectangle_181" data-name="Rectangle 181" width="10" height="120" transform="translate(175 320) rotate(90)"/>
    <rect id="Rectangle_182" data-name="Rectangle 182" width="10" height="130" transform="translate(305 263) rotate(90)"/>
    <rect id="Rectangle_183" data-name="Rectangle 183" width="70" height="60" transform="translate(14 420)"/>
    <rect id="Rectangle_184" data-name="Rectangle 184" width="10" height="50" transform="translate(45 270)"/>
    <rect id="Rectangle_185" data-name="Rectangle 185" width="10" height="60" transform="translate(175 263)"/>
    <rect id="Rectangle_186" data-name="Rectangle 186" width="10" height="60" transform="translate(175 208)"/>
  </g>
</svg>
