G04 Layer: BottomSolderMaskLayer*
G04 EasyEDA v6.1.52, Sat, 03 Aug 2019 15:20:47 GMT*
G04 0863e46d4acc4207ac88c0ed569749d1,99d799917bed4c779c6d3b41b195639e,10*
G04 Gerber Generator version 0.2*
G04 Scale: 100 percent, Rotated: No, Reflected: No *
G04 Dimensions in millimeters *
G04 leading zeros omitted , absolute positions ,3 integer and 3 decimal *
%FSLAX33Y33*%
%MOMM*%
G90*
G71D02*

%ADD34C,1.203198*%
%ADD35C,2.235200*%
%ADD36C,2.703195*%
%ADD37C,1.503197*%
%ADD39C,1.981200*%
%ADD40C,1.567180*%
%ADD41C,2.082800*%
%ADD42C,2.362200*%
%ADD43R,4.488180X2.583180*%
%ADD46C,1.703197*%
%ADD48C,1.854200*%

%LPD*%
G54D34*
G01X48759Y65278D02*
G01X47760Y65278D01*
G01X48759Y64008D02*
G01X47760Y64008D01*
G01X48759Y62738D02*
G01X47760Y62738D01*
G01X48759Y57658D02*
G01X47760Y57658D01*
G01X48759Y56388D02*
G01X47760Y56388D01*
G01X48759Y55118D02*
G01X47760Y55118D01*
G01X48759Y50038D02*
G01X47760Y50038D01*
G01X48759Y48768D02*
G01X47760Y48768D01*
G01X48759Y47498D02*
G01X47760Y47498D01*
G01X40631Y80518D02*
G01X39632Y80518D01*
G01X40631Y79248D02*
G01X39632Y79248D01*
G01X40631Y77978D02*
G01X39632Y77978D01*
G01X40631Y72898D02*
G01X39632Y72898D01*
G01X40631Y71628D02*
G01X39632Y71628D01*
G01X40631Y70358D02*
G01X39632Y70358D01*
G01X40631Y65278D02*
G01X39632Y65278D01*
G01X40631Y64008D02*
G01X39632Y64008D01*
G01X40631Y62738D02*
G01X39632Y62738D01*
G01X48759Y80518D02*
G01X47760Y80518D01*
G01X48759Y79248D02*
G01X47760Y79248D01*
G01X48759Y77978D02*
G01X47760Y77978D01*
G01X48759Y72898D02*
G01X47760Y72898D01*
G01X48759Y71628D02*
G01X47760Y71628D01*
G01X48759Y70358D02*
G01X47760Y70358D01*
G01X40631Y57658D02*
G01X39632Y57658D01*
G01X40631Y56388D02*
G01X39632Y56388D01*
G01X40631Y55118D02*
G01X39632Y55118D01*
G01X40631Y50038D02*
G01X39632Y50038D01*
G01X40631Y48768D02*
G01X39632Y48768D01*
G01X40631Y47498D02*
G01X39632Y47498D01*
G54D35*
G01X88138Y23495D02*
G01X88138Y22987D01*
G01X90678Y23495D02*
G01X90678Y22987D01*
G01X85598Y23495D02*
G01X85598Y22987D01*
G54D36*
G01X58212Y12393D02*
G01X58212Y14393D01*
G01X52213Y10293D02*
G01X54212Y10293D01*
G01X52213Y16493D02*
G01X54212Y16493D01*
G01X85009Y12520D02*
G01X85009Y14520D01*
G01X79010Y10420D02*
G01X81009Y10420D01*
G01X79010Y16620D02*
G01X81009Y16620D01*
G54D37*
G01X97980Y5540D02*
G01X97980Y4640D01*
G01X90741Y5540D02*
G01X90741Y4640D01*
G36*
G01X95783Y46380D02*
G01X95783Y48361D01*
G01X97764Y48361D01*
G01X97764Y46380D01*
G01X95783Y46380D01*
G37*
G54D39*
G01X96774Y49911D03*
G01X96774Y52451D03*
G01X96774Y54991D03*
G01X96774Y57531D03*
G01X96774Y60071D03*
G01X96774Y62611D03*
G01X96774Y65151D03*
G01X96774Y67691D03*
G01X96774Y70231D03*
G01X96774Y72771D03*
G01X96774Y75311D03*
G01X96774Y77851D03*
G01X96774Y80391D03*
G01X96774Y82931D03*
G01X81534Y47371D03*
G01X81534Y49911D03*
G01X81534Y52451D03*
G01X81534Y54991D03*
G01X81534Y57531D03*
G01X81534Y60071D03*
G01X81534Y62611D03*
G01X81534Y65151D03*
G01X81534Y67691D03*
G01X81534Y70231D03*
G01X81534Y72771D03*
G01X81534Y75311D03*
G01X81534Y77851D03*
G01X81534Y80391D03*
G01X81534Y82931D03*
G54D40*
G01X71556Y30607D03*
G01X71556Y28067D03*
G01X71556Y22987D03*
G01X71556Y25527D03*
G01X71556Y35687D03*
G01X71556Y33147D03*
G54D36*
G01X15506Y46228D03*
G01X17505Y40228D03*
G01X17505Y52227D03*
G01X29705Y52227D03*
G01X29705Y40228D03*
G54D41*
G01X54991Y77216D03*
G01X62611Y77216D03*
G54D42*
G01X67691Y77216D03*
G01X75438Y77216D03*
G54D36*
G01X15506Y28448D03*
G01X17505Y22448D03*
G01X17505Y34447D03*
G01X29705Y34447D03*
G01X29705Y22448D03*
G54D41*
G01X54991Y72136D03*
G01X62611Y72136D03*
G54D42*
G01X67691Y72136D03*
G01X75438Y72136D03*
G54D36*
G01X15506Y10668D03*
G01X17505Y4668D03*
G01X17505Y16667D03*
G01X29705Y16667D03*
G01X29705Y4668D03*
G54D41*
G01X54991Y67056D03*
G01X62611Y67056D03*
G54D42*
G01X67691Y67056D03*
G01X75438Y67056D03*
G54D36*
G01X119748Y10795D03*
G01X117749Y16794D03*
G01X117749Y4795D03*
G01X105549Y4795D03*
G01X105549Y16794D03*
G54D41*
G01X54991Y61976D03*
G01X62611Y61976D03*
G54D42*
G01X67691Y61976D03*
G01X75438Y61976D03*
G54D36*
G01X119748Y28575D03*
G01X117749Y34574D03*
G01X117749Y22575D03*
G01X105549Y22575D03*
G01X105549Y34574D03*
G54D41*
G01X54991Y56896D03*
G01X62611Y56896D03*
G54D42*
G01X67691Y56896D03*
G01X75438Y56896D03*
G54D36*
G01X119748Y46355D03*
G01X117749Y52354D03*
G01X117749Y40355D03*
G01X105549Y40355D03*
G01X105549Y52354D03*
G54D41*
G01X54991Y51816D03*
G01X62611Y51816D03*
G54D42*
G01X67691Y51816D03*
G01X75438Y51816D03*
G54D43*
G01X6908Y43738D03*
G01X6908Y48717D03*
G01X6781Y25958D03*
G01X6781Y30937D03*
G01X6781Y8178D03*
G01X6781Y13157D03*
G36*
G01X125849Y11991D02*
G01X125849Y14574D01*
G01X130335Y14574D01*
G01X130335Y11991D01*
G01X125849Y11991D01*
G37*
G36*
G01X125849Y7012D02*
G01X125849Y9596D01*
G01X130335Y9596D01*
G01X130335Y7012D01*
G01X125849Y7012D01*
G37*
G36*
G01X125722Y29644D02*
G01X125722Y32227D01*
G01X130208Y32227D01*
G01X130208Y29644D01*
G01X125722Y29644D01*
G37*
G36*
G01X125722Y24665D02*
G01X125722Y27249D01*
G01X130208Y27249D01*
G01X130208Y24665D01*
G01X125722Y24665D01*
G37*
G36*
G01X125722Y47678D02*
G01X125722Y50261D01*
G01X130208Y50261D01*
G01X130208Y47678D01*
G01X125722Y47678D01*
G37*
G36*
G01X125722Y42699D02*
G01X125722Y45283D01*
G01X130208Y45283D01*
G01X130208Y42699D01*
G01X125722Y42699D01*
G37*
G54D36*
G01X15506Y81788D03*
G01X17505Y75788D03*
G01X17505Y87787D03*
G01X29705Y87787D03*
G01X29705Y75788D03*
G54D41*
G01X54991Y87376D03*
G01X62611Y87376D03*
G54D42*
G01X67691Y87376D03*
G01X75438Y87376D03*
G54D36*
G01X15506Y64008D03*
G01X17505Y58008D03*
G01X17505Y70007D03*
G01X29705Y70007D03*
G01X29705Y58008D03*
G54D41*
G01X54991Y82296D03*
G01X62611Y82296D03*
G54D42*
G01X67691Y82296D03*
G01X75438Y82296D03*
G54D36*
G01X119748Y64135D03*
G01X117749Y70134D03*
G01X117749Y58135D03*
G01X105549Y58135D03*
G01X105549Y70134D03*
G54D41*
G01X54991Y46736D03*
G01X62611Y46736D03*
G54D42*
G01X67691Y46736D03*
G01X75438Y46736D03*
G54D36*
G01X119748Y81915D03*
G01X117749Y87914D03*
G01X117749Y75915D03*
G01X105549Y75915D03*
G01X105549Y87914D03*
G54D41*
G01X54991Y41656D03*
G01X62611Y41656D03*
G54D42*
G01X67691Y41656D03*
G01X75438Y41656D03*
G54D43*
G01X6908Y79298D03*
G01X6908Y84277D03*
G01X6908Y61518D03*
G01X6908Y66497D03*
G36*
G01X125722Y65204D02*
G01X125722Y67787D01*
G01X130208Y67787D01*
G01X130208Y65204D01*
G01X125722Y65204D01*
G37*
G36*
G01X125722Y60225D02*
G01X125722Y62809D01*
G01X130208Y62809D01*
G01X130208Y60225D01*
G01X125722Y60225D01*
G37*
G36*
G01X125722Y83111D02*
G01X125722Y85694D01*
G01X130208Y85694D01*
G01X130208Y83111D01*
G01X125722Y83111D01*
G37*
G36*
G01X125722Y78132D02*
G01X125722Y80716D01*
G01X130208Y80716D01*
G01X130208Y78132D01*
G01X125722Y78132D01*
G37*
G36*
G01X38130Y4815D02*
G01X38130Y9304D01*
G01X40713Y9304D01*
G01X40713Y4815D01*
G01X38130Y4815D01*
G37*
G36*
G01X43108Y4815D02*
G01X43108Y9304D01*
G01X45689Y9304D01*
G01X45689Y4815D01*
G01X43108Y4815D01*
G37*
G36*
G01X65054Y4942D02*
G01X65054Y9431D01*
G01X67637Y9431D01*
G01X67637Y4942D01*
G01X65054Y4942D01*
G37*
G36*
G01X70032Y4942D02*
G01X70032Y9431D01*
G01X72613Y9431D01*
G01X72613Y4942D01*
G01X70032Y4942D01*
G37*
G54D46*
G01X91950Y7790D03*
G01X96791Y7790D03*
G54D48*
G01X94361Y16256D03*
G01X94361Y13716D03*
M00*
M02*
