G04 Layer: TopSilkLayer*
G04 EasyEDA v6.1.52, Sat, 03 Aug 2019 15:20:47 GMT*
G04 0863e46d4acc4207ac88c0ed569749d1,99d799917bed4c779c6d3b41b195639e,10*
G04 Gerber Generator version 0.2*
G04 Scale: 100 percent, Rotated: No, Reflected: No *
G04 Dimensions in millimeters *
G04 leading zeros omitted , absolute positions ,3 integer and 3 decimal *
%FSLAX33Y33*%
%MOMM*%
G90*
G71D02*

%ADD10C,0.254000*%
%ADD28C,0.228600*%
%ADD29C,0.149987*%
%ADD30C,0.299999*%
%ADD31C,0.152400*%
%ADD32C,0.203200*%
%ADD33C,0.177800*%

%LPD*%

%LPD*%
G36*
G01X54230Y36881D02*
G01X53927Y36881D01*
G01X53851Y36880D01*
G01X53621Y36877D01*
G01X53544Y36875D01*
G01X53467Y36874D01*
G01X53389Y36871D01*
G01X53312Y36869D01*
G01X53078Y36860D01*
G01X53000Y36856D01*
G01X52921Y36852D01*
G01X52764Y36844D01*
G01X52685Y36840D01*
G01X52605Y36835D01*
G01X52519Y36829D01*
G01X52432Y36823D01*
G01X52346Y36817D01*
G01X52261Y36811D01*
G01X52175Y36805D01*
G01X52091Y36799D01*
G01X52007Y36791D01*
G01X51923Y36785D01*
G01X51757Y36771D01*
G01X51593Y36755D01*
G01X51512Y36748D01*
G01X51350Y36731D01*
G01X51270Y36723D01*
G01X51112Y36706D01*
G01X51033Y36696D01*
G01X50878Y36678D01*
G01X50801Y36668D01*
G01X50724Y36659D01*
G01X50648Y36649D01*
G01X50571Y36639D01*
G01X50496Y36628D01*
G01X50421Y36618D01*
G01X50199Y36585D01*
G01X50126Y36574D01*
G01X50053Y36562D01*
G01X49981Y36551D01*
G01X49909Y36539D01*
G01X49838Y36527D01*
G01X49767Y36514D01*
G01X49697Y36502D01*
G01X49557Y36476D01*
G01X49419Y36450D01*
G01X49351Y36436D01*
G01X49216Y36408D01*
G01X49149Y36394D01*
G01X49082Y36379D01*
G01X49016Y36365D01*
G01X48950Y36350D01*
G01X48885Y36335D01*
G01X48756Y36305D01*
G01X48628Y36273D01*
G01X48502Y36241D01*
G01X48378Y36207D01*
G01X48195Y36156D01*
G01X48076Y36120D01*
G01X48016Y36103D01*
G01X47957Y36084D01*
G01X47899Y36065D01*
G01X47841Y36047D01*
G01X47726Y36009D01*
G01X47669Y35989D01*
G01X47613Y35970D01*
G01X47501Y35930D01*
G01X47391Y35889D01*
G01X47337Y35868D01*
G01X47283Y35848D01*
G01X47229Y35826D01*
G01X47124Y35784D01*
G01X47071Y35761D01*
G01X47019Y35739D01*
G01X46917Y35695D01*
G01X46866Y35672D01*
G01X46816Y35648D01*
G01X46765Y35626D01*
G01X46618Y35554D01*
G01X46522Y35506D01*
G01X46427Y35456D01*
G01X46334Y35405D01*
G01X46288Y35380D01*
G01X46242Y35354D01*
G01X46197Y35328D01*
G01X46152Y35301D01*
G01X46108Y35275D01*
G01X46063Y35248D01*
G01X46020Y35221D01*
G01X45933Y35166D01*
G01X45849Y35110D01*
G01X45765Y35053D01*
G01X45684Y34995D01*
G01X45643Y34966D01*
G01X45604Y34936D01*
G01X45524Y34876D01*
G01X45486Y34846D01*
G01X45447Y34815D01*
G01X45409Y34785D01*
G01X45372Y34754D01*
G01X45334Y34722D01*
G01X45297Y34691D01*
G01X45224Y34627D01*
G01X45188Y34594D01*
G01X45153Y34562D01*
G01X45083Y34496D01*
G01X45048Y34462D01*
G01X45014Y34429D01*
G01X44980Y34395D01*
G01X44947Y34361D01*
G01X44881Y34292D01*
G01X44817Y34221D01*
G01X44785Y34186D01*
G01X44723Y34114D01*
G01X44662Y34041D01*
G01X44633Y34005D01*
G01X44603Y33967D01*
G01X44545Y33892D01*
G01X44517Y33855D01*
G01X44489Y33817D01*
G01X44433Y33739D01*
G01X44379Y33661D01*
G01X44327Y33582D01*
G01X44301Y33542D01*
G01X44275Y33501D01*
G01X44225Y33420D01*
G01X44201Y33379D01*
G01X44153Y33295D01*
G01X44107Y33211D01*
G01X44084Y33168D01*
G01X44061Y33126D01*
G01X44039Y33082D01*
G01X44017Y33039D01*
G01X43996Y32996D01*
G01X43975Y32951D01*
G01X43954Y32907D01*
G01X43913Y32818D01*
G01X43873Y32727D01*
G01X43855Y32682D01*
G01X43835Y32635D01*
G01X43799Y32543D01*
G01X43780Y32496D01*
G01X43763Y32449D01*
G01X43745Y32401D01*
G01X43712Y32306D01*
G01X43695Y32258D01*
G01X43664Y32160D01*
G01X43648Y32111D01*
G01X43633Y32061D01*
G01X43618Y32012D01*
G01X43603Y31961D01*
G01X43589Y31911D01*
G01X43561Y31809D01*
G01X43535Y31707D01*
G01X43522Y31655D01*
G01X43510Y31603D01*
G01X43498Y31550D01*
G01X43485Y31498D01*
G01X43474Y31444D01*
G01X43462Y31391D01*
G01X43451Y31337D01*
G01X43441Y31283D01*
G01X43420Y31174D01*
G01X43410Y31120D01*
G01X43400Y31064D01*
G01X43391Y31009D01*
G01X43382Y30953D01*
G01X43374Y30897D01*
G01X43365Y30840D01*
G01X43357Y30784D01*
G01X43349Y30726D01*
G01X43342Y30669D01*
G01X43334Y30612D01*
G01X43328Y30555D01*
G01X43321Y30496D01*
G01X43315Y30436D01*
G01X43309Y30374D01*
G01X43304Y30311D01*
G01X43298Y30247D01*
G01X43294Y30182D01*
G01X43289Y30116D01*
G01X43281Y29980D01*
G01X43278Y29911D01*
G01X43274Y29841D01*
G01X43271Y29771D01*
G01X43268Y29700D01*
G01X43266Y29629D01*
G01X43262Y29484D01*
G01X43260Y29340D01*
G01X43259Y29266D01*
G01X43259Y29049D01*
G01X43260Y28976D01*
G01X43262Y28833D01*
G01X43263Y28762D01*
G01X43267Y28622D01*
G01X43270Y28553D01*
G01X43273Y28485D01*
G01X43276Y28418D01*
G01X43280Y28351D01*
G01X43283Y28286D01*
G01X43287Y28222D01*
G01X43292Y28159D01*
G01X43297Y28097D01*
G01X43302Y28038D01*
G01X43308Y27979D01*
G01X43313Y27922D01*
G01X43319Y27866D01*
G01X43326Y27813D01*
G01X43332Y27761D01*
G01X43340Y27711D01*
G01X43350Y27643D01*
G01X43360Y27576D01*
G01X43371Y27509D01*
G01X43382Y27443D01*
G01X43406Y27311D01*
G01X43445Y27116D01*
G01X43473Y26988D01*
G01X43488Y26924D01*
G01X43518Y26798D01*
G01X43535Y26736D01*
G01X43551Y26674D01*
G01X43568Y26612D01*
G01X43602Y26490D01*
G01X43620Y26429D01*
G01X43677Y26249D01*
G01X43716Y26131D01*
G01X43779Y25957D01*
G01X43801Y25900D01*
G01X43823Y25842D01*
G01X43845Y25786D01*
G01X43868Y25730D01*
G01X43892Y25674D01*
G01X43915Y25619D01*
G01X43939Y25564D01*
G01X43964Y25509D01*
G01X43989Y25455D01*
G01X44040Y25347D01*
G01X44092Y25242D01*
G01X44119Y25189D01*
G01X44147Y25137D01*
G01X44174Y25086D01*
G01X44203Y25034D01*
G01X44231Y24983D01*
G01X44289Y24883D01*
G01X44319Y24833D01*
G01X44349Y24784D01*
G01X44410Y24686D01*
G01X44441Y24638D01*
G01X44473Y24590D01*
G01X44537Y24496D01*
G01X44570Y24450D01*
G01X44603Y24403D01*
G01X44637Y24358D01*
G01X44705Y24267D01*
G01X44740Y24222D01*
G01X44775Y24178D01*
G01X44811Y24135D01*
G01X44846Y24091D01*
G01X44883Y24048D01*
G01X44919Y24006D01*
G01X44956Y23963D01*
G01X44994Y23922D01*
G01X45032Y23880D01*
G01X45070Y23839D01*
G01X45108Y23799D01*
G01X45147Y23759D01*
G01X45187Y23719D01*
G01X45226Y23679D01*
G01X45266Y23640D01*
G01X45306Y23602D01*
G01X45388Y23526D01*
G01X45430Y23488D01*
G01X45472Y23451D01*
G01X45514Y23415D01*
G01X45557Y23379D01*
G01X45643Y23308D01*
G01X45731Y23238D01*
G01X45821Y23170D01*
G01X45866Y23137D01*
G01X45912Y23104D01*
G01X45957Y23072D01*
G01X46003Y23040D01*
G01X46050Y23008D01*
G01X46145Y22946D01*
G01X46192Y22916D01*
G01X46241Y22886D01*
G01X46289Y22857D01*
G01X46387Y22799D01*
G01X46487Y22743D01*
G01X46537Y22716D01*
G01X46588Y22689D01*
G01X46638Y22662D01*
G01X46690Y22636D01*
G01X46742Y22611D01*
G01X46794Y22585D01*
G01X46846Y22560D01*
G01X46952Y22512D01*
G01X47005Y22489D01*
G01X47059Y22465D01*
G01X47113Y22442D01*
G01X47168Y22421D01*
G01X47223Y22399D01*
G01X47333Y22356D01*
G01X47389Y22336D01*
G01X47446Y22315D01*
G01X47559Y22277D01*
G01X47616Y22258D01*
G01X47732Y22222D01*
G01X47791Y22204D01*
G01X47849Y22187D01*
G01X47908Y22171D01*
G01X47967Y22154D01*
G01X48027Y22139D01*
G01X48087Y22123D01*
G01X48147Y22109D01*
G01X48269Y22080D01*
G01X48392Y22054D01*
G01X48454Y22041D01*
G01X48517Y22029D01*
G01X48579Y22017D01*
G01X48642Y22006D01*
G01X48706Y21995D01*
G01X48769Y21985D01*
G01X48833Y21975D01*
G01X48962Y21957D01*
G01X49027Y21948D01*
G01X49093Y21940D01*
G01X49149Y21933D01*
G01X49205Y21927D01*
G01X49262Y21920D01*
G01X49319Y21914D01*
G01X49377Y21908D01*
G01X49436Y21901D01*
G01X49494Y21895D01*
G01X49554Y21889D01*
G01X49614Y21884D01*
G01X49797Y21866D01*
G01X49859Y21861D01*
G01X49921Y21855D01*
G01X50047Y21845D01*
G01X50111Y21839D01*
G01X50175Y21834D01*
G01X50239Y21830D01*
G01X50434Y21815D01*
G01X50500Y21810D01*
G01X50632Y21802D01*
G01X50699Y21797D01*
G01X50834Y21789D01*
G01X50901Y21785D01*
G01X51037Y21777D01*
G01X51106Y21773D01*
G01X51243Y21766D01*
G01X51312Y21763D01*
G01X51382Y21760D01*
G01X51451Y21756D01*
G01X51521Y21753D01*
G01X51590Y21750D01*
G01X51731Y21744D01*
G01X51801Y21741D01*
G01X52154Y21729D01*
G01X52509Y21719D01*
G01X52793Y21712D01*
G01X52935Y21710D01*
G01X53006Y21708D01*
G01X53148Y21706D01*
G01X53219Y21706D01*
G01X53290Y21705D01*
G01X53431Y21704D01*
G01X53641Y21702D01*
G01X53990Y21702D01*
G01X54059Y21703D01*
G01X54265Y21704D01*
G01X54401Y21706D01*
G01X54669Y21710D01*
G01X54735Y21711D01*
G01X54868Y21714D01*
G01X54933Y21715D01*
G01X54998Y21717D01*
G01X55127Y21721D01*
G01X55255Y21725D01*
G01X55381Y21729D01*
G01X55505Y21734D01*
G01X55566Y21737D01*
G01X55627Y21739D01*
G01X55807Y21748D01*
G01X55866Y21751D01*
G01X55924Y21754D01*
G01X55982Y21758D01*
G01X56040Y21761D01*
G01X56096Y21764D01*
G01X56153Y21768D01*
G01X56209Y21771D01*
G01X56264Y21775D01*
G01X56426Y21787D01*
G01X56530Y21795D01*
G01X56582Y21800D01*
G01X56633Y21804D01*
G01X56732Y21814D01*
G01X56781Y21818D01*
G01X56829Y21823D01*
G01X56923Y21833D01*
G01X56969Y21838D01*
G01X57014Y21844D01*
G01X57059Y21849D01*
G01X57102Y21854D01*
G01X57145Y21860D01*
G01X57187Y21865D01*
G01X57229Y21871D01*
G01X57309Y21883D01*
G01X57348Y21889D01*
G01X57421Y21901D01*
G01X57493Y21913D01*
G01X57566Y21926D01*
G01X57709Y21951D01*
G01X57781Y21965D01*
G01X57852Y21979D01*
G01X57992Y22007D01*
G01X58061Y22022D01*
G01X58200Y22052D01*
G01X58336Y22084D01*
G01X58403Y22101D01*
G01X58471Y22117D01*
G01X58537Y22134D01*
G01X58604Y22151D01*
G01X58670Y22169D01*
G01X58735Y22187D01*
G01X58866Y22224D01*
G01X58994Y22263D01*
G01X59057Y22282D01*
G01X59121Y22302D01*
G01X59246Y22343D01*
G01X59307Y22364D01*
G01X59369Y22385D01*
G01X59491Y22429D01*
G01X59551Y22451D01*
G01X59671Y22496D01*
G01X59730Y22519D01*
G01X59962Y22615D01*
G01X60076Y22665D01*
G01X60131Y22691D01*
G01X60187Y22716D01*
G01X60243Y22742D01*
G01X60298Y22769D01*
G01X60407Y22822D01*
G01X60513Y22877D01*
G01X60567Y22906D01*
G01X60619Y22934D01*
G01X60671Y22963D01*
G01X60723Y22991D01*
G01X60774Y23021D01*
G01X60825Y23050D01*
G01X60876Y23080D01*
G01X60975Y23141D01*
G01X61025Y23171D01*
G01X61073Y23203D01*
G01X61122Y23234D01*
G01X61169Y23266D01*
G01X61217Y23298D01*
G01X61311Y23363D01*
G01X61403Y23429D01*
G01X61493Y23497D01*
G01X61582Y23566D01*
G01X61669Y23636D01*
G01X61755Y23707D01*
G01X61797Y23744D01*
G01X61838Y23780D01*
G01X61961Y23891D01*
G01X62040Y23967D01*
G01X62079Y24006D01*
G01X62118Y24044D01*
G01X62194Y24122D01*
G01X62305Y24242D01*
G01X62341Y24282D01*
G01X62412Y24365D01*
G01X62446Y24406D01*
G01X62481Y24448D01*
G01X62549Y24532D01*
G01X62615Y24618D01*
G01X62647Y24661D01*
G01X62679Y24705D01*
G01X62710Y24748D01*
G01X62741Y24792D01*
G01X62772Y24837D01*
G01X62802Y24882D01*
G01X62860Y24972D01*
G01X62918Y25064D01*
G01X62946Y25110D01*
G01X63027Y25251D01*
G01X63079Y25347D01*
G01X63129Y25443D01*
G01X63154Y25492D01*
G01X63177Y25541D01*
G01X63201Y25591D01*
G01X63224Y25640D01*
G01X63247Y25690D01*
G01X63269Y25740D01*
G01X63291Y25791D01*
G01X63533Y26357D01*
G01X63535Y29151D01*
G01X63535Y29974D01*
G01X63534Y30079D01*
G01X63534Y30181D01*
G01X63533Y30280D01*
G01X63533Y30376D01*
G01X63532Y30470D01*
G01X63531Y30561D01*
G01X63530Y30650D01*
G01X63528Y30736D01*
G01X63527Y30819D01*
G01X63525Y30900D01*
G01X63524Y30979D01*
G01X63522Y31056D01*
G01X63520Y31130D01*
G01X63517Y31201D01*
G01X63515Y31271D01*
G01X63512Y31339D01*
G01X63509Y31405D01*
G01X63506Y31469D01*
G01X63502Y31531D01*
G01X63498Y31592D01*
G01X63494Y31650D01*
G01X63490Y31707D01*
G01X63485Y31762D01*
G01X63480Y31816D01*
G01X63475Y31868D01*
G01X63470Y31918D01*
G01X63463Y31968D01*
G01X63457Y32016D01*
G01X63451Y32062D01*
G01X63444Y32108D01*
G01X63437Y32153D01*
G01X63421Y32239D01*
G01X63412Y32280D01*
G01X63403Y32320D01*
G01X63394Y32361D01*
G01X63384Y32400D01*
G01X63374Y32438D01*
G01X63363Y32475D01*
G01X63353Y32513D01*
G01X63341Y32550D01*
G01X63329Y32586D01*
G01X63304Y32657D01*
G01X63262Y32762D01*
G01X63232Y32832D01*
G01X63216Y32867D01*
G01X63165Y32972D01*
G01X63146Y33008D01*
G01X63128Y33044D01*
G01X63088Y33118D01*
G01X63067Y33155D01*
G01X63046Y33193D01*
G01X63025Y33232D01*
G01X62979Y33312D01*
G01X62955Y33353D01*
G01X62931Y33395D01*
G01X62905Y33439D01*
G01X62859Y33515D01*
G01X62812Y33592D01*
G01X62787Y33629D01*
G01X62762Y33667D01*
G01X62738Y33704D01*
G01X62686Y33778D01*
G01X62632Y33852D01*
G01X62605Y33888D01*
G01X62521Y33996D01*
G01X62492Y34031D01*
G01X62433Y34102D01*
G01X62372Y34172D01*
G01X62341Y34206D01*
G01X62309Y34241D01*
G01X62278Y34275D01*
G01X62246Y34309D01*
G01X62213Y34342D01*
G01X62180Y34376D01*
G01X62147Y34409D01*
G01X62045Y34508D01*
G01X62010Y34541D01*
G01X61974Y34573D01*
G01X61939Y34605D01*
G01X61903Y34637D01*
G01X61830Y34700D01*
G01X61792Y34732D01*
G01X61755Y34763D01*
G01X61717Y34794D01*
G01X61601Y34885D01*
G01X61522Y34945D01*
G01X61482Y34975D01*
G01X61441Y35004D01*
G01X61400Y35034D01*
G01X61359Y35063D01*
G01X61317Y35092D01*
G01X61275Y35120D01*
G01X61233Y35149D01*
G01X61147Y35204D01*
G01X61104Y35232D01*
G01X61060Y35260D01*
G01X60972Y35314D01*
G01X60881Y35368D01*
G01X60836Y35394D01*
G01X60790Y35420D01*
G01X60744Y35447D01*
G01X60697Y35472D01*
G01X60651Y35498D01*
G01X60603Y35523D01*
G01X60508Y35573D01*
G01X60460Y35598D01*
G01X60362Y35647D01*
G01X60313Y35671D01*
G01X60263Y35695D01*
G01X60163Y35741D01*
G01X60112Y35765D01*
G01X60061Y35788D01*
G01X60010Y35810D01*
G01X59959Y35833D01*
G01X59907Y35855D01*
G01X59802Y35899D01*
G01X59749Y35921D01*
G01X59643Y35963D01*
G01X59535Y36005D01*
G01X59315Y36085D01*
G01X59260Y36104D01*
G01X59203Y36123D01*
G01X59147Y36143D01*
G01X59034Y36180D01*
G01X58977Y36199D01*
G01X58919Y36216D01*
G01X58861Y36235D01*
G01X58804Y36252D01*
G01X58745Y36270D01*
G01X58686Y36287D01*
G01X58568Y36320D01*
G01X58508Y36337D01*
G01X58449Y36353D01*
G01X58389Y36369D01*
G01X58328Y36385D01*
G01X58268Y36400D01*
G01X58207Y36415D01*
G01X58145Y36431D01*
G01X58084Y36445D01*
G01X58022Y36460D01*
G01X57960Y36474D01*
G01X57897Y36489D01*
G01X57835Y36502D01*
G01X57772Y36516D01*
G01X57709Y36529D01*
G01X57582Y36556D01*
G01X57518Y36568D01*
G01X57389Y36593D01*
G01X57194Y36628D01*
G01X57128Y36639D01*
G01X56996Y36660D01*
G01X56930Y36671D01*
G01X56729Y36701D01*
G01X56662Y36710D01*
G01X56390Y36746D01*
G01X56183Y36770D01*
G01X56114Y36777D01*
G01X56044Y36784D01*
G01X55834Y36804D01*
G01X55693Y36816D01*
G01X55407Y36838D01*
G01X55191Y36850D01*
G01X54972Y36862D01*
G01X54899Y36865D01*
G01X54825Y36867D01*
G01X54752Y36870D01*
G01X54529Y36876D01*
G01X54455Y36878D01*
G01X54230Y36881D01*
G37*

%LPC*%
G36*
G01X59811Y31262D02*
G01X57139Y33934D01*
G01X55328Y32125D01*
G01X53517Y30314D01*
G01X49938Y33893D01*
G01X48298Y32230D01*
G01X48252Y32184D01*
G01X48160Y32090D01*
G01X48066Y31996D01*
G01X48019Y31948D01*
G01X47924Y31851D01*
G01X47827Y31754D01*
G01X47779Y31704D01*
G01X47730Y31655D01*
G01X47632Y31555D01*
G01X47583Y31506D01*
G01X47436Y31356D01*
G01X47387Y31307D01*
G01X47337Y31256D01*
G01X47288Y31206D01*
G01X47239Y31157D01*
G01X47190Y31107D01*
G01X47141Y31058D01*
G01X47093Y31008D01*
G01X47044Y30959D01*
G01X46997Y30910D01*
G01X46948Y30862D01*
G01X46901Y30813D01*
G01X46853Y30764D01*
G01X46806Y30717D01*
G01X46759Y30669D01*
G01X46667Y30575D01*
G01X46621Y30529D01*
G01X46531Y30437D01*
G01X46443Y30347D01*
G01X46400Y30304D01*
G01X46358Y30260D01*
G01X46316Y30217D01*
G01X46274Y30175D01*
G01X46234Y30134D01*
G01X46193Y30093D01*
G01X46115Y30013D01*
G01X46077Y29975D01*
G01X46040Y29936D01*
G01X46004Y29899D01*
G01X45933Y29828D01*
G01X45900Y29793D01*
G01X45867Y29760D01*
G01X45835Y29727D01*
G01X45803Y29695D01*
G01X45773Y29664D01*
G01X45744Y29634D01*
G01X45716Y29606D01*
G01X45689Y29578D01*
G01X44721Y28587D01*
G01X51790Y28587D01*
G01X50297Y27091D01*
G01X48801Y25595D01*
G01X49898Y24508D01*
G01X53560Y28166D01*
G01X57264Y24462D01*
G01X58359Y25557D01*
G01X56845Y27073D01*
G01X55331Y28587D01*
G01X62484Y28587D01*
G01X59811Y31262D01*
G37*

%LPD*%
G36*
G01X57960Y30924D02*
G01X57053Y31828D01*
G01X55245Y30020D01*
G01X58864Y30020D01*
G01X57960Y30924D01*
G37*

%LPD*%
G36*
G01X51790Y30020D02*
G01X49982Y31828D01*
G01X48173Y30020D01*
G01X51790Y30020D01*
G37*

%LPD*%
G36*
G01X88325Y34354D02*
G01X87741Y34354D01*
G01X87624Y34353D01*
G01X87514Y34352D01*
G01X87411Y34351D01*
G01X87314Y34350D01*
G01X87222Y34349D01*
G01X87137Y34348D01*
G01X87057Y34346D01*
G01X86983Y34344D01*
G01X86915Y34342D01*
G01X86851Y34340D01*
G01X86792Y34338D01*
G01X86738Y34335D01*
G01X86689Y34332D01*
G01X86643Y34328D01*
G01X86602Y34325D01*
G01X86565Y34320D01*
G01X86532Y34316D01*
G01X86502Y34311D01*
G01X86475Y34306D01*
G01X86451Y34301D01*
G01X86431Y34295D01*
G01X86413Y34289D01*
G01X86397Y34283D01*
G01X86384Y34276D01*
G01X86373Y34269D01*
G01X86367Y34264D01*
G01X86361Y34260D01*
G01X86350Y34249D01*
G01X86340Y34237D01*
G01X86335Y34230D01*
G01X86331Y34222D01*
G01X86326Y34213D01*
G01X86321Y34203D01*
G01X86317Y34192D01*
G01X86313Y34180D01*
G01X86310Y34167D01*
G01X86306Y34152D01*
G01X86303Y34135D01*
G01X86299Y34117D01*
G01X86296Y34097D01*
G01X86293Y34075D01*
G01X86290Y34052D01*
G01X86287Y34026D01*
G01X86284Y33998D01*
G01X86282Y33967D01*
G01X86279Y33935D01*
G01X86277Y33900D01*
G01X86275Y33862D01*
G01X86273Y33822D01*
G01X86271Y33778D01*
G01X86269Y33732D01*
G01X86267Y33683D01*
G01X86266Y33631D01*
G01X86263Y33575D01*
G01X86262Y33516D01*
G01X86260Y33454D01*
G01X86259Y33388D01*
G01X86258Y33319D01*
G01X86256Y33246D01*
G01X86255Y33168D01*
G01X86254Y33088D01*
G01X86253Y33002D01*
G01X86252Y32913D01*
G01X86251Y32819D01*
G01X86250Y32721D01*
G01X86249Y32619D01*
G01X86248Y32512D01*
G01X86247Y32400D01*
G01X86246Y32283D01*
G01X86246Y32161D01*
G01X86245Y32035D01*
G01X86244Y31903D01*
G01X86243Y31767D01*
G01X86242Y31624D01*
G01X86242Y31477D01*
G01X86241Y31323D01*
G01X86240Y31164D01*
G01X86239Y31000D01*
G01X86238Y30829D01*
G01X86238Y30674D01*
G01X86237Y30522D01*
G01X86236Y30376D01*
G01X86236Y30234D01*
G01X86235Y30097D01*
G01X86235Y29964D01*
G01X86234Y29836D01*
G01X86234Y29712D01*
G01X86233Y29593D01*
G01X86233Y28693D01*
G01X86234Y28612D01*
G01X86234Y28533D01*
G01X86235Y28458D01*
G01X86235Y28387D01*
G01X86236Y28318D01*
G01X86237Y28253D01*
G01X86237Y28190D01*
G01X86238Y28131D01*
G01X86239Y28075D01*
G01X86241Y28021D01*
G01X86242Y27969D01*
G01X86243Y27921D01*
G01X86244Y27875D01*
G01X86246Y27832D01*
G01X86247Y27791D01*
G01X86249Y27752D01*
G01X86251Y27715D01*
G01X86253Y27681D01*
G01X86255Y27649D01*
G01X86257Y27618D01*
G01X86261Y27564D01*
G01X86264Y27539D01*
G01X86267Y27516D01*
G01X86270Y27495D01*
G01X86272Y27475D01*
G01X86275Y27457D01*
G01X86278Y27440D01*
G01X86281Y27424D01*
G01X86285Y27410D01*
G01X86288Y27397D01*
G01X86292Y27385D01*
G01X86295Y27374D01*
G01X86300Y27364D01*
G01X86303Y27355D01*
G01X86308Y27346D01*
G01X86312Y27339D01*
G01X86316Y27331D01*
G01X86411Y27187D01*
G01X89895Y27219D01*
G01X89972Y27371D01*
G01X89978Y27387D01*
G01X89982Y27398D01*
G01X89985Y27410D01*
G01X89988Y27424D01*
G01X89991Y27440D01*
G01X89994Y27457D01*
G01X89996Y27476D01*
G01X89999Y27497D01*
G01X90001Y27520D01*
G01X90004Y27545D01*
G01X90006Y27571D01*
G01X90009Y27600D01*
G01X90011Y27631D01*
G01X90013Y27664D01*
G01X90016Y27699D01*
G01X90018Y27736D01*
G01X90020Y27775D01*
G01X90021Y27817D01*
G01X90023Y27861D01*
G01X90025Y27907D01*
G01X90027Y27956D01*
G01X90028Y28008D01*
G01X90030Y28061D01*
G01X90031Y28118D01*
G01X90032Y28177D01*
G01X90034Y28238D01*
G01X90035Y28302D01*
G01X90036Y28369D01*
G01X90037Y28439D01*
G01X90039Y28512D01*
G01X90040Y28587D01*
G01X90040Y28665D01*
G01X90041Y28746D01*
G01X90043Y28831D01*
G01X90044Y28917D01*
G01X90044Y29008D01*
G01X90045Y29101D01*
G01X90046Y29198D01*
G01X90046Y29297D01*
G01X90047Y29401D01*
G01X90047Y29507D01*
G01X90048Y29616D01*
G01X90048Y29846D01*
G01X90049Y29966D01*
G01X90049Y30347D01*
G01X90050Y30481D01*
G01X90050Y31556D01*
G01X90049Y31699D01*
G01X90049Y32096D01*
G01X90048Y32218D01*
G01X90048Y32336D01*
G01X90047Y32449D01*
G01X90046Y32557D01*
G01X90046Y32661D01*
G01X90045Y32760D01*
G01X90044Y32855D01*
G01X90043Y32946D01*
G01X90041Y33033D01*
G01X90039Y33116D01*
G01X90038Y33194D01*
G01X90036Y33269D01*
G01X90035Y33341D01*
G01X90033Y33409D01*
G01X90031Y33473D01*
G01X90028Y33534D01*
G01X90026Y33592D01*
G01X90023Y33646D01*
G01X90021Y33698D01*
G01X90018Y33746D01*
G01X90015Y33792D01*
G01X90011Y33835D01*
G01X90007Y33875D01*
G01X90003Y33913D01*
G01X89999Y33948D01*
G01X89995Y33981D01*
G01X89991Y34012D01*
G01X89986Y34040D01*
G01X89981Y34066D01*
G01X89976Y34091D01*
G01X89970Y34113D01*
G01X89965Y34134D01*
G01X89959Y34153D01*
G01X89953Y34171D01*
G01X89939Y34203D01*
G01X89925Y34229D01*
G01X89909Y34251D01*
G01X89901Y34261D01*
G01X89892Y34270D01*
G01X89874Y34286D01*
G01X89864Y34294D01*
G01X89855Y34301D01*
G01X89844Y34308D01*
G01X89837Y34311D01*
G01X89825Y34313D01*
G01X89808Y34316D01*
G01X89785Y34318D01*
G01X89758Y34321D01*
G01X89726Y34324D01*
G01X89688Y34326D01*
G01X89647Y34328D01*
G01X89602Y34330D01*
G01X89551Y34332D01*
G01X89498Y34334D01*
G01X89440Y34336D01*
G01X89379Y34338D01*
G01X89314Y34340D01*
G01X89246Y34342D01*
G01X89175Y34343D01*
G01X89101Y34345D01*
G01X89023Y34346D01*
G01X88944Y34348D01*
G01X88862Y34349D01*
G01X88777Y34350D01*
G01X88691Y34351D01*
G01X88602Y34352D01*
G01X88511Y34352D01*
G01X88419Y34353D01*
G01X88325Y34354D01*
G37*

%LPC*%
G36*
G01X88163Y27909D02*
G01X88104Y27913D01*
G01X88049Y27900D01*
G01X88000Y27872D01*
G01X87960Y27830D01*
G01X87934Y27774D01*
G01X87925Y27707D01*
G01X87931Y27637D01*
G01X87950Y27577D01*
G01X87978Y27529D01*
G01X88016Y27492D01*
G01X88060Y27469D01*
G01X88111Y27460D01*
G01X88166Y27467D01*
G01X88225Y27490D01*
G01X88272Y27522D01*
G01X88307Y27562D01*
G01X88332Y27606D01*
G01X88345Y27653D01*
G01X88346Y27703D01*
G01X88336Y27753D01*
G01X88313Y27800D01*
G01X88277Y27845D01*
G01X88222Y27887D01*
G01X88163Y27909D01*
G37*
G36*
G01X87673Y33919D02*
G01X87581Y33919D01*
G01X87492Y33918D01*
G01X87324Y33918D01*
G01X87245Y33917D01*
G01X87170Y33916D01*
G01X87098Y33915D01*
G01X87031Y33914D01*
G01X86968Y33912D01*
G01X86909Y33911D01*
G01X86856Y33909D01*
G01X86808Y33907D01*
G01X86764Y33905D01*
G01X86727Y33903D01*
G01X86695Y33901D01*
G01X86669Y33898D01*
G01X86650Y33896D01*
G01X86637Y33893D01*
G01X86630Y33890D01*
G01X86629Y33887D01*
G01X86627Y33880D01*
G01X86626Y33868D01*
G01X86624Y33854D01*
G01X86623Y33835D01*
G01X86621Y33814D01*
G01X86620Y33789D01*
G01X86619Y33760D01*
G01X86617Y33728D01*
G01X86616Y33693D01*
G01X86615Y33655D01*
G01X86613Y33613D01*
G01X86611Y33569D01*
G01X86610Y33521D01*
G01X86609Y33471D01*
G01X86608Y33418D01*
G01X86607Y33362D01*
G01X86605Y33303D01*
G01X86604Y33242D01*
G01X86603Y33178D01*
G01X86602Y33112D01*
G01X86601Y33043D01*
G01X86600Y32972D01*
G01X86599Y32899D01*
G01X86598Y32823D01*
G01X86597Y32746D01*
G01X86596Y32666D01*
G01X86596Y32585D01*
G01X86595Y32501D01*
G01X86594Y32416D01*
G01X86593Y32329D01*
G01X86593Y32240D01*
G01X86592Y32149D01*
G01X86592Y32057D01*
G01X86591Y31964D01*
G01X86591Y31869D01*
G01X86590Y31772D01*
G01X86590Y31576D01*
G01X86589Y31476D01*
G01X86589Y28282D01*
G01X89687Y28282D01*
G01X89656Y33899D01*
G01X88164Y33916D01*
G01X88062Y33917D01*
G01X87962Y33917D01*
G01X87863Y33918D01*
G01X87767Y33918D01*
G01X87673Y33919D01*
G37*

%LPD*%
G36*
G01X88223Y42914D02*
G01X88182Y42916D01*
G01X88140Y42913D01*
G01X88098Y42906D01*
G01X88055Y42892D01*
G01X88010Y42875D01*
G01X87964Y42851D01*
G01X87916Y42823D01*
G01X87866Y42790D01*
G01X87813Y42751D01*
G01X87758Y42707D01*
G01X87699Y42658D01*
G01X87637Y42603D01*
G01X87600Y42569D01*
G01X87559Y42533D01*
G01X87517Y42494D01*
G01X87473Y42454D01*
G01X87427Y42412D01*
G01X87380Y42369D01*
G01X87331Y42325D01*
G01X87283Y42280D01*
G01X87234Y42235D01*
G01X87186Y42190D01*
G01X87139Y42146D01*
G01X87092Y42103D01*
G01X87047Y42061D01*
G01X87003Y42020D01*
G01X86962Y41982D01*
G01X86923Y41945D01*
G01X86907Y41930D01*
G01X86890Y41914D01*
G01X86872Y41897D01*
G01X86852Y41879D01*
G01X86832Y41859D01*
G01X86810Y41839D01*
G01X86787Y41818D01*
G01X86763Y41795D01*
G01X86738Y41771D01*
G01X86712Y41747D01*
G01X86685Y41721D01*
G01X86657Y41695D01*
G01X86597Y41639D01*
G01X86566Y41609D01*
G01X86533Y41579D01*
G01X86500Y41548D01*
G01X86466Y41516D01*
G01X86431Y41483D01*
G01X86395Y41449D01*
G01X86358Y41415D01*
G01X86282Y41343D01*
G01X86243Y41306D01*
G01X86203Y41268D01*
G01X86161Y41230D01*
G01X86120Y41191D01*
G01X86077Y41151D01*
G01X86034Y41110D01*
G01X85990Y41069D01*
G01X85900Y40985D01*
G01X85854Y40942D01*
G01X85807Y40898D01*
G01X85760Y40853D01*
G01X85712Y40809D01*
G01X85664Y40763D01*
G01X85614Y40717D01*
G01X85514Y40623D01*
G01X85413Y40528D01*
G01X85361Y40479D01*
G01X85308Y40430D01*
G01X85256Y40381D01*
G01X85203Y40331D01*
G01X85095Y40231D01*
G01X85041Y40179D01*
G01X84931Y40077D01*
G01X84876Y40025D01*
G01X84764Y39920D01*
G01X84708Y39867D01*
G01X84651Y39815D01*
G01X84595Y39761D01*
G01X84537Y39708D01*
G01X84480Y39654D01*
G01X84423Y39601D01*
G01X84365Y39547D01*
G01X84308Y39492D01*
G01X84250Y39439D01*
G01X84134Y39330D01*
G01X84076Y39275D01*
G01X84018Y39221D01*
G01X83959Y39166D01*
G01X83901Y39111D01*
G01X83842Y39057D01*
G01X83784Y39002D01*
G01X83668Y38894D01*
G01X83610Y38839D01*
G01X83551Y38784D01*
G01X83493Y38730D01*
G01X83366Y38612D01*
G01X83243Y38496D01*
G01X83124Y38384D01*
G01X83008Y38276D01*
G01X82896Y38171D01*
G01X82788Y38069D01*
G01X82683Y37971D01*
G01X82582Y37875D01*
G01X82483Y37784D01*
G01X82388Y37695D01*
G01X82297Y37609D01*
G01X82209Y37526D01*
G01X82124Y37446D01*
G01X82042Y37369D01*
G01X81963Y37294D01*
G01X81888Y37223D01*
G01X81814Y37154D01*
G01X81744Y37088D01*
G01X81677Y37024D01*
G01X81613Y36963D01*
G01X81551Y36904D01*
G01X81492Y36848D01*
G01X81435Y36793D01*
G01X81382Y36742D01*
G01X81330Y36692D01*
G01X81281Y36645D01*
G01X81234Y36600D01*
G01X81190Y36556D01*
G01X81148Y36515D01*
G01X81108Y36476D01*
G01X80969Y36337D01*
G01X80939Y36306D01*
G01X80911Y36277D01*
G01X80885Y36250D01*
G01X80860Y36224D01*
G01X80838Y36200D01*
G01X80816Y36177D01*
G01X80796Y36155D01*
G01X80778Y36134D01*
G01X80761Y36115D01*
G01X80746Y36096D01*
G01X80732Y36079D01*
G01X80719Y36062D01*
G01X80707Y36047D01*
G01X80697Y36033D01*
G01X80688Y36019D01*
G01X80680Y36007D01*
G01X80672Y35994D01*
G01X80665Y35983D01*
G01X80655Y35961D01*
G01X80651Y35952D01*
G01X80648Y35942D01*
G01X80645Y35933D01*
G01X80640Y35916D01*
G01X80638Y35899D01*
G01X80637Y35883D01*
G01X80637Y35875D01*
G01X80639Y35843D01*
G01X80646Y35810D01*
G01X80656Y35777D01*
G01X80671Y35743D01*
G01X80691Y35707D01*
G01X80717Y35669D01*
G01X80748Y35628D01*
G01X80785Y35584D01*
G01X80829Y35536D01*
G01X80880Y35483D01*
G01X80939Y35426D01*
G01X81004Y35364D01*
G01X81072Y35302D01*
G01X81136Y35247D01*
G01X81195Y35198D01*
G01X81252Y35155D01*
G01X81304Y35119D01*
G01X81355Y35088D01*
G01X81402Y35064D01*
G01X81448Y35045D01*
G01X81493Y35032D01*
G01X81536Y35024D01*
G01X81579Y35022D01*
G01X81621Y35025D01*
G01X81664Y35033D01*
G01X81706Y35046D01*
G01X81750Y35063D01*
G01X81795Y35086D01*
G01X81802Y35089D01*
G01X81814Y35095D01*
G01X81820Y35097D01*
G01X81826Y35098D01*
G01X81831Y35098D01*
G01X81836Y35097D01*
G01X81841Y35095D01*
G01X81845Y35092D01*
G01X81850Y35088D01*
G01X81855Y35082D01*
G01X81859Y35074D01*
G01X81862Y35065D01*
G01X81866Y35054D01*
G01X81870Y35040D01*
G01X81873Y35025D01*
G01X81876Y35008D01*
G01X81879Y34988D01*
G01X81882Y34965D01*
G01X81885Y34940D01*
G01X81887Y34913D01*
G01X81890Y34882D01*
G01X81892Y34848D01*
G01X81894Y34812D01*
G01X81896Y34772D01*
G01X81897Y34728D01*
G01X81899Y34682D01*
G01X81901Y34631D01*
G01X81902Y34577D01*
G01X81903Y34519D01*
G01X81904Y34457D01*
G01X81905Y34391D01*
G01X81906Y34320D01*
G01X81907Y34246D01*
G01X81908Y34167D01*
G01X81909Y34083D01*
G01X81909Y33994D01*
G01X81910Y33901D01*
G01X81910Y33803D01*
G01X81911Y33700D01*
G01X81911Y33591D01*
G01X81912Y33477D01*
G01X81912Y32674D01*
G01X81913Y32519D01*
G01X81913Y31055D01*
G01X81914Y30935D01*
G01X81915Y30819D01*
G01X81915Y30600D01*
G01X81916Y30497D01*
G01X81916Y30398D01*
G01X81917Y30302D01*
G01X81918Y30210D01*
G01X81918Y30121D01*
G01X81919Y30037D01*
G01X81920Y29955D01*
G01X81921Y29877D01*
G01X81922Y29802D01*
G01X81923Y29731D01*
G01X81924Y29663D01*
G01X81925Y29598D01*
G01X81926Y29536D01*
G01X81928Y29476D01*
G01X81929Y29420D01*
G01X81931Y29366D01*
G01X81932Y29316D01*
G01X81934Y29267D01*
G01X81936Y29222D01*
G01X81938Y29179D01*
G01X81940Y29138D01*
G01X81942Y29099D01*
G01X81944Y29063D01*
G01X81947Y29029D01*
G01X81949Y28997D01*
G01X81952Y28967D01*
G01X81954Y28939D01*
G01X81957Y28913D01*
G01X81960Y28889D01*
G01X81963Y28866D01*
G01X81966Y28845D01*
G01X81969Y28826D01*
G01X81972Y28808D01*
G01X81976Y28791D01*
G01X81980Y28776D01*
G01X81983Y28762D01*
G01X81987Y28749D01*
G01X81991Y28737D01*
G01X81995Y28726D01*
G01X82003Y28708D01*
G01X82019Y28678D01*
G01X82033Y28650D01*
G01X82048Y28624D01*
G01X82062Y28599D01*
G01X82077Y28576D01*
G01X82092Y28554D01*
G01X82108Y28534D01*
G01X82125Y28515D01*
G01X82144Y28497D01*
G01X82163Y28481D01*
G01X82185Y28465D01*
G01X82210Y28451D01*
G01X82236Y28438D01*
G01X82265Y28426D01*
G01X82297Y28415D01*
G01X82333Y28406D01*
G01X82372Y28397D01*
G01X82414Y28389D01*
G01X82461Y28381D01*
G01X82512Y28375D01*
G01X82568Y28369D01*
G01X82628Y28364D01*
G01X82694Y28360D01*
G01X82765Y28357D01*
G01X82842Y28353D01*
G01X82925Y28350D01*
G01X83014Y28348D01*
G01X83110Y28347D01*
G01X83212Y28345D01*
G01X83322Y28344D01*
G01X83439Y28344D01*
G01X83563Y28343D01*
G01X85921Y28343D01*
G01X85921Y32141D01*
G01X85922Y32270D01*
G01X85922Y32629D01*
G01X85923Y32741D01*
G01X85923Y32847D01*
G01X85924Y32950D01*
G01X85924Y33048D01*
G01X85925Y33143D01*
G01X85925Y33234D01*
G01X85926Y33321D01*
G01X85927Y33405D01*
G01X85928Y33484D01*
G01X85929Y33560D01*
G01X85930Y33633D01*
G01X85931Y33702D01*
G01X85932Y33768D01*
G01X85933Y33831D01*
G01X85934Y33891D01*
G01X85936Y33948D01*
G01X85937Y34001D01*
G01X85939Y34052D01*
G01X85940Y34100D01*
G01X85942Y34146D01*
G01X85944Y34188D01*
G01X85946Y34229D01*
G01X85948Y34267D01*
G01X85951Y34302D01*
G01X85953Y34336D01*
G01X85955Y34367D01*
G01X85958Y34396D01*
G01X85960Y34423D01*
G01X85966Y34471D01*
G01X85969Y34493D01*
G01X85972Y34513D01*
G01X85975Y34530D01*
G01X85979Y34547D01*
G01X85982Y34563D01*
G01X85986Y34577D01*
G01X85994Y34601D01*
G01X85998Y34612D01*
G01X86006Y34630D01*
G01X86011Y34638D01*
G01X86023Y34656D01*
G01X86038Y34676D01*
G01X86047Y34685D01*
G01X86055Y34694D01*
G01X86065Y34702D01*
G01X86076Y34709D01*
G01X86088Y34716D01*
G01X86102Y34723D01*
G01X86118Y34729D01*
G01X86136Y34735D01*
G01X86157Y34740D01*
G01X86181Y34745D01*
G01X86208Y34749D01*
G01X86238Y34753D01*
G01X86272Y34757D01*
G01X86310Y34760D01*
G01X86352Y34763D01*
G01X86399Y34765D01*
G01X86450Y34768D01*
G01X86506Y34770D01*
G01X86568Y34772D01*
G01X86635Y34774D01*
G01X86708Y34775D01*
G01X86787Y34776D01*
G01X86872Y34777D01*
G01X86965Y34778D01*
G01X87064Y34778D01*
G01X87170Y34779D01*
G01X87283Y34779D01*
G01X87405Y34780D01*
G01X88870Y34780D01*
G01X88992Y34779D01*
G01X89105Y34779D01*
G01X89211Y34778D01*
G01X89310Y34778D01*
G01X89403Y34777D01*
G01X89488Y34776D01*
G01X89567Y34775D01*
G01X89640Y34774D01*
G01X89707Y34772D01*
G01X89769Y34770D01*
G01X89825Y34768D01*
G01X89876Y34765D01*
G01X89923Y34763D01*
G01X89965Y34760D01*
G01X90003Y34757D01*
G01X90037Y34753D01*
G01X90067Y34749D01*
G01X90094Y34745D01*
G01X90118Y34740D01*
G01X90139Y34735D01*
G01X90157Y34729D01*
G01X90173Y34723D01*
G01X90187Y34716D01*
G01X90199Y34709D01*
G01X90210Y34702D01*
G01X90220Y34694D01*
G01X90228Y34685D01*
G01X90237Y34676D01*
G01X90252Y34656D01*
G01X90264Y34638D01*
G01X90269Y34630D01*
G01X90277Y34612D01*
G01X90281Y34601D01*
G01X90289Y34577D01*
G01X90293Y34563D01*
G01X90297Y34547D01*
G01X90303Y34513D01*
G01X90306Y34493D01*
G01X90309Y34471D01*
G01X90315Y34423D01*
G01X90317Y34396D01*
G01X90320Y34367D01*
G01X90322Y34336D01*
G01X90324Y34302D01*
G01X90327Y34267D01*
G01X90329Y34229D01*
G01X90331Y34188D01*
G01X90333Y34146D01*
G01X90335Y34100D01*
G01X90336Y34052D01*
G01X90338Y34001D01*
G01X90339Y33948D01*
G01X90341Y33891D01*
G01X90342Y33831D01*
G01X90343Y33768D01*
G01X90344Y33702D01*
G01X90345Y33633D01*
G01X90346Y33560D01*
G01X90347Y33484D01*
G01X90348Y33405D01*
G01X90349Y33321D01*
G01X90350Y33234D01*
G01X90350Y33143D01*
G01X90351Y33048D01*
G01X90351Y32950D01*
G01X90352Y32847D01*
G01X90352Y32741D01*
G01X90353Y32629D01*
G01X90353Y32270D01*
G01X90354Y32141D01*
G01X90354Y28343D01*
G01X94010Y28343D01*
G01X94216Y28549D01*
G01X94423Y28755D01*
G01X94423Y32816D01*
G01X94424Y32944D01*
G01X94425Y33068D01*
G01X94425Y33302D01*
G01X94426Y33413D01*
G01X94427Y33519D01*
G01X94427Y33621D01*
G01X94428Y33720D01*
G01X94429Y33814D01*
G01X94430Y33904D01*
G01X94431Y33991D01*
G01X94432Y34074D01*
G01X94433Y34153D01*
G01X94435Y34229D01*
G01X94436Y34300D01*
G01X94437Y34368D01*
G01X94439Y34433D01*
G01X94441Y34495D01*
G01X94443Y34553D01*
G01X94445Y34608D01*
G01X94447Y34660D01*
G01X94449Y34709D01*
G01X94451Y34754D01*
G01X94454Y34797D01*
G01X94457Y34837D01*
G01X94459Y34873D01*
G01X94462Y34908D01*
G01X94465Y34939D01*
G01X94468Y34968D01*
G01X94472Y34994D01*
G01X94475Y35018D01*
G01X94479Y35039D01*
G01X94482Y35058D01*
G01X94486Y35075D01*
G01X94491Y35089D01*
G01X94495Y35101D01*
G01X94499Y35111D01*
G01X94504Y35120D01*
G01X94509Y35126D01*
G01X94514Y35130D01*
G01X94519Y35133D01*
G01X94525Y35133D01*
G01X94530Y35132D01*
G01X94536Y35130D01*
G01X94542Y35126D01*
G01X94548Y35120D01*
G01X94555Y35112D01*
G01X94561Y35104D01*
G01X94568Y35095D01*
G01X94575Y35084D01*
G01X94604Y35060D01*
G01X94658Y35041D01*
G01X94726Y35028D01*
G01X94804Y35023D01*
G01X94842Y35024D01*
G01X94877Y35029D01*
G01X94913Y35037D01*
G01X94948Y35050D01*
G01X94983Y35068D01*
G01X95021Y35091D01*
G01X95060Y35120D01*
G01X95103Y35155D01*
G01X95148Y35196D01*
G01X95199Y35246D01*
G01X95255Y35302D01*
G01X95317Y35368D01*
G01X95395Y35455D01*
G01X95462Y35534D01*
G01X95518Y35606D01*
G01X95562Y35671D01*
G01X95595Y35731D01*
G01X95619Y35785D01*
G01X95633Y35834D01*
G01X95638Y35880D01*
G01X95637Y35891D01*
G01X95635Y35902D01*
G01X95633Y35915D01*
G01X95628Y35928D01*
G01X95622Y35942D01*
G01X95615Y35957D01*
G01X95607Y35973D01*
G01X95596Y35990D01*
G01X95584Y36009D01*
G01X95571Y36029D01*
G01X95555Y36050D01*
G01X95537Y36073D01*
G01X95517Y36098D01*
G01X95495Y36124D01*
G01X95471Y36152D01*
G01X95445Y36182D01*
G01X95416Y36214D01*
G01X95385Y36248D01*
G01X95351Y36285D01*
G01X95314Y36323D01*
G01X95274Y36364D01*
G01X95232Y36407D01*
G01X95187Y36453D01*
G01X95139Y36501D01*
G01X95088Y36553D01*
G01X95033Y36606D01*
G01X94976Y36663D01*
G01X94915Y36723D01*
G01X94850Y36785D01*
G01X94782Y36851D01*
G01X94711Y36920D01*
G01X94636Y36993D01*
G01X94557Y37068D01*
G01X94474Y37148D01*
G01X94387Y37230D01*
G01X94296Y37317D01*
G01X94201Y37407D01*
G01X94102Y37502D01*
G01X93999Y37599D01*
G01X93892Y37701D01*
G01X93832Y37758D01*
G01X93771Y37816D01*
G01X93711Y37872D01*
G01X93590Y37987D01*
G01X93529Y38044D01*
G01X93469Y38102D01*
G01X93409Y38158D01*
G01X93289Y38272D01*
G01X93230Y38329D01*
G01X93170Y38384D01*
G01X93111Y38440D01*
G01X93053Y38496D01*
G01X92937Y38606D01*
G01X92823Y38714D01*
G01X92767Y38767D01*
G01X92712Y38819D01*
G01X92657Y38872D01*
G01X92603Y38922D01*
G01X92550Y38973D01*
G01X92498Y39023D01*
G01X92446Y39072D01*
G01X92396Y39120D01*
G01X92346Y39167D01*
G01X92298Y39213D01*
G01X92250Y39258D01*
G01X92158Y39346D01*
G01X92114Y39388D01*
G01X92070Y39428D01*
G01X92029Y39469D01*
G01X91988Y39507D01*
G01X91949Y39544D01*
G01X91911Y39580D01*
G01X91875Y39615D01*
G01X91840Y39648D01*
G01X91807Y39680D01*
G01X91775Y39710D01*
G01X91744Y39739D01*
G01X91716Y39766D01*
G01X91689Y39792D01*
G01X91664Y39816D01*
G01X91640Y39838D01*
G01X91619Y39859D01*
G01X91479Y39992D01*
G01X91357Y40108D01*
G01X91296Y40167D01*
G01X91235Y40225D01*
G01X91173Y40284D01*
G01X91111Y40342D01*
G01X91050Y40401D01*
G01X90926Y40519D01*
G01X90864Y40577D01*
G01X90803Y40636D01*
G01X90741Y40694D01*
G01X90680Y40753D01*
G01X90619Y40811D01*
G01X90557Y40869D01*
G01X90496Y40927D01*
G01X90436Y40984D01*
G01X90375Y41041D01*
G01X90315Y41098D01*
G01X90197Y41210D01*
G01X90138Y41265D01*
G01X90080Y41320D01*
G01X89965Y41429D01*
G01X89908Y41482D01*
G01X89853Y41535D01*
G01X89797Y41587D01*
G01X89689Y41689D01*
G01X89636Y41739D01*
G01X89584Y41788D01*
G01X89532Y41836D01*
G01X89432Y41930D01*
G01X89384Y41976D01*
G01X89336Y42020D01*
G01X89244Y42106D01*
G01X89200Y42148D01*
G01X89157Y42188D01*
G01X89114Y42227D01*
G01X89074Y42265D01*
G01X89034Y42302D01*
G01X88996Y42338D01*
G01X88958Y42372D01*
G01X88923Y42405D01*
G01X88889Y42437D01*
G01X88856Y42467D01*
G01X88824Y42496D01*
G01X88795Y42524D01*
G01X88766Y42550D01*
G01X88739Y42574D01*
G01X88715Y42597D01*
G01X88691Y42619D01*
G01X88669Y42638D01*
G01X88649Y42657D01*
G01X88631Y42674D01*
G01X88614Y42688D01*
G01X88599Y42701D01*
G01X88587Y42712D01*
G01X88576Y42722D01*
G01X88527Y42762D01*
G01X88479Y42799D01*
G01X88434Y42829D01*
G01X88390Y42856D01*
G01X88347Y42878D01*
G01X88305Y42895D01*
G01X88264Y42907D01*
G01X88223Y42914D01*
G37*

%LPC*%
G36*
G01X88150Y36352D02*
G01X88078Y36353D01*
G01X88006Y36352D01*
G01X87937Y36350D01*
G01X87873Y36346D01*
G01X87813Y36341D01*
G01X87761Y36335D01*
G01X87717Y36326D01*
G01X87682Y36316D01*
G01X87631Y36294D01*
G01X87558Y36257D01*
G01X87475Y36211D01*
G01X87389Y36161D01*
G01X87188Y36040D01*
G01X87353Y35868D01*
G01X87406Y35813D01*
G01X87450Y35772D01*
G01X87486Y35746D01*
G01X87520Y35733D01*
G01X87555Y35732D01*
G01X87595Y35742D01*
G01X87644Y35763D01*
G01X87706Y35795D01*
G01X87755Y35818D01*
G01X87806Y35837D01*
G01X87861Y35854D01*
G01X87917Y35867D01*
G01X87973Y35878D01*
G01X88032Y35884D01*
G01X88091Y35888D01*
G01X88150Y35889D01*
G01X88209Y35886D01*
G01X88268Y35880D01*
G01X88325Y35871D01*
G01X88381Y35859D01*
G01X88436Y35843D01*
G01X88488Y35825D01*
G01X88537Y35803D01*
G01X88584Y35778D01*
G01X88779Y35663D01*
G01X88921Y35841D01*
G01X89063Y36020D01*
G01X88926Y36127D01*
G01X88860Y36174D01*
G01X88782Y36221D01*
G01X88700Y36264D01*
G01X88627Y36297D01*
G01X88590Y36308D01*
G01X88544Y36318D01*
G01X88490Y36328D01*
G01X88430Y36335D01*
G01X88365Y36341D01*
G01X88295Y36346D01*
G01X88223Y36350D01*
G01X88150Y36352D01*
G37*
G36*
G01X88180Y37516D02*
G01X88120Y37516D01*
G01X88059Y37515D01*
G01X87998Y37512D01*
G01X87937Y37508D01*
G01X87877Y37503D01*
G01X87816Y37495D01*
G01X87756Y37487D01*
G01X87696Y37477D01*
G01X87636Y37466D01*
G01X87576Y37453D01*
G01X87516Y37439D01*
G01X87456Y37423D01*
G01X87397Y37406D01*
G01X87338Y37387D01*
G01X87279Y37367D01*
G01X87221Y37346D01*
G01X87163Y37323D01*
G01X87106Y37299D01*
G01X87048Y37273D01*
G01X86992Y37247D01*
G01X86880Y37189D01*
G01X86824Y37157D01*
G01X86770Y37125D01*
G01X86716Y37091D01*
G01X86398Y36887D01*
G01X86639Y36646D01*
G01X86685Y36604D01*
G01X86723Y36576D01*
G01X86755Y36561D01*
G01X86783Y36558D01*
G01X86811Y36566D01*
G01X86841Y36585D01*
G01X86875Y36614D01*
G01X86915Y36647D01*
G01X86957Y36680D01*
G01X87001Y36711D01*
G01X87047Y36741D01*
G01X87095Y36769D01*
G01X87145Y36796D01*
G01X87196Y36821D01*
G01X87249Y36846D01*
G01X87303Y36868D01*
G01X87359Y36889D01*
G01X87417Y36909D01*
G01X87475Y36927D01*
G01X87535Y36943D01*
G01X87596Y36959D01*
G01X87659Y36972D01*
G01X87722Y36983D01*
G01X87786Y36994D01*
G01X87852Y37002D01*
G01X87919Y37008D01*
G01X87986Y37013D01*
G01X88067Y37017D01*
G01X88145Y37019D01*
G01X88220Y37020D01*
G01X88291Y37019D01*
G01X88361Y37016D01*
G01X88428Y37010D01*
G01X88493Y37003D01*
G01X88556Y36994D01*
G01X88617Y36982D01*
G01X88677Y36969D01*
G01X88736Y36953D01*
G01X88794Y36935D01*
G01X88851Y36914D01*
G01X88908Y36891D01*
G01X88965Y36865D01*
G01X89022Y36837D01*
G01X89079Y36806D01*
G01X89137Y36772D01*
G01X89196Y36736D01*
G01X89256Y36696D01*
G01X89563Y36490D01*
G01X89691Y36669D01*
G01X89750Y36761D01*
G01X89778Y36830D01*
G01X89776Y36885D01*
G01X89747Y36935D01*
G01X89721Y36963D01*
G01X89688Y36993D01*
G01X89649Y37024D01*
G01X89604Y37057D01*
G01X89554Y37090D01*
G01X89499Y37123D01*
G01X89441Y37157D01*
G01X89380Y37191D01*
G01X89315Y37224D01*
G01X89248Y37256D01*
G01X89181Y37287D01*
G01X89112Y37317D01*
G01X89043Y37345D01*
G01X88974Y37371D01*
G01X88906Y37394D01*
G01X88840Y37415D01*
G01X88722Y37447D01*
G01X88662Y37460D01*
G01X88603Y37473D01*
G01X88543Y37483D01*
G01X88483Y37492D01*
G01X88422Y37500D01*
G01X88362Y37506D01*
G01X88302Y37511D01*
G01X88241Y37514D01*
G01X88180Y37516D01*
G37*
G36*
G01X88179Y38714D02*
G01X88067Y38714D01*
G01X88011Y38712D01*
G01X87954Y38708D01*
G01X87896Y38703D01*
G01X87838Y38697D01*
G01X87778Y38689D01*
G01X87716Y38680D01*
G01X87653Y38669D01*
G01X87588Y38657D01*
G01X87521Y38644D01*
G01X87451Y38629D01*
G01X87379Y38613D01*
G01X87310Y38597D01*
G01X87242Y38580D01*
G01X87175Y38562D01*
G01X87108Y38542D01*
G01X87042Y38522D01*
G01X86976Y38501D01*
G01X86911Y38478D01*
G01X86846Y38456D01*
G01X86718Y38406D01*
G01X86655Y38380D01*
G01X86593Y38352D01*
G01X86531Y38325D01*
G01X86471Y38296D01*
G01X86410Y38266D01*
G01X86351Y38235D01*
G01X86293Y38204D01*
G01X86235Y38171D01*
G01X86179Y38138D01*
G01X86123Y38104D01*
G01X86068Y38069D01*
G01X86014Y38033D01*
G01X85961Y37997D01*
G01X85909Y37960D01*
G01X85607Y37738D01*
G01X85972Y37373D01*
G01X86168Y37537D01*
G01X86262Y37613D01*
G01X86312Y37649D01*
G01X86414Y37719D01*
G01X86467Y37752D01*
G01X86521Y37784D01*
G01X86576Y37815D01*
G01X86632Y37845D01*
G01X86689Y37874D01*
G01X86747Y37901D01*
G01X86806Y37928D01*
G01X86865Y37953D01*
G01X86925Y37978D01*
G01X86986Y38001D01*
G01X87048Y38023D01*
G01X87174Y38063D01*
G01X87238Y38081D01*
G01X87303Y38098D01*
G01X87368Y38114D01*
G01X87433Y38128D01*
G01X87499Y38142D01*
G01X87565Y38153D01*
G01X87632Y38164D01*
G01X87700Y38173D01*
G01X87767Y38181D01*
G01X87835Y38188D01*
G01X87902Y38193D01*
G01X87970Y38197D01*
G01X88039Y38199D01*
G01X88107Y38200D01*
G01X88171Y38200D01*
G01X88234Y38199D01*
G01X88296Y38197D01*
G01X88358Y38193D01*
G01X88420Y38188D01*
G01X88481Y38183D01*
G01X88542Y38177D01*
G01X88602Y38169D01*
G01X88722Y38151D01*
G01X88781Y38140D01*
G01X88839Y38128D01*
G01X88955Y38102D01*
G01X89012Y38087D01*
G01X89068Y38071D01*
G01X89125Y38054D01*
G01X89180Y38036D01*
G01X89235Y38017D01*
G01X89290Y37997D01*
G01X89343Y37976D01*
G01X89397Y37954D01*
G01X89450Y37931D01*
G01X89502Y37906D01*
G01X89554Y37882D01*
G01X89606Y37856D01*
G01X89656Y37828D01*
G01X89707Y37800D01*
G01X89756Y37771D01*
G01X89805Y37741D01*
G01X89854Y37709D01*
G01X89902Y37677D01*
G01X89949Y37644D01*
G01X89996Y37610D01*
G01X90042Y37575D01*
G01X90088Y37539D01*
G01X90337Y37336D01*
G01X90471Y37491D01*
G01X90509Y37537D01*
G01X90538Y37578D01*
G01X90558Y37618D01*
G01X90569Y37655D01*
G01X90571Y37692D01*
G01X90563Y37728D01*
G01X90544Y37765D01*
G01X90515Y37804D01*
G01X90475Y37846D01*
G01X90425Y37891D01*
G01X90362Y37940D01*
G01X90287Y37996D01*
G01X90239Y38030D01*
G01X90189Y38064D01*
G01X90137Y38097D01*
G01X90086Y38130D01*
G01X90032Y38162D01*
G01X89978Y38193D01*
G01X89923Y38223D01*
G01X89867Y38253D01*
G01X89810Y38282D01*
G01X89752Y38310D01*
G01X89694Y38337D01*
G01X89634Y38364D01*
G01X89574Y38390D01*
G01X89513Y38414D01*
G01X89451Y38438D01*
G01X89325Y38484D01*
G01X89261Y38505D01*
G01X89197Y38525D01*
G01X89132Y38545D01*
G01X89000Y38581D01*
G01X88934Y38598D01*
G01X88866Y38614D01*
G01X88794Y38630D01*
G01X88724Y38645D01*
G01X88657Y38658D01*
G01X88592Y38670D01*
G01X88529Y38680D01*
G01X88468Y38689D01*
G01X88408Y38697D01*
G01X88349Y38704D01*
G01X88235Y38712D01*
G01X88179Y38714D01*
G37*

%LPD*%
G54D10*
G01X98044Y86741D02*
G01X80264Y86741D01*
G01X80264Y86741D02*
G01X80264Y43561D01*
G01X80264Y43561D02*
G01X98044Y43561D01*
G01X98044Y43561D02*
G01X98044Y86741D01*
G01X92964Y82931D02*
G01X92964Y90551D01*
G01X85344Y90551D01*
G01X85344Y82931D01*
G01X92964Y82931D01*
G01X73054Y28336D02*
G01X73054Y21336D01*
G01X38056Y21337D01*
G01X38056Y37336D01*
G01X73054Y37338D01*
G01X73054Y28336D01*
G01X14003Y38478D02*
G01X33005Y38478D01*
G01X14004Y53977D02*
G01X33005Y53977D01*
G01X14004Y53977D02*
G01X14004Y38478D01*
G01X33005Y53977D02*
G01X33005Y38478D01*
G01X46760Y62028D02*
G01X46760Y65987D01*
G01X56261Y77978D02*
G01X61341Y77978D01*
G01X61341Y77978D02*
G01X61341Y77216D01*
G01X61341Y77216D02*
G01X61341Y76454D01*
G01X61341Y76454D02*
G01X56261Y76454D01*
G01X56261Y76454D02*
G01X56261Y77216D01*
G01X56261Y77216D02*
G01X56261Y77978D01*
G01X61341Y77216D02*
G01X61595Y77216D01*
G01X56261Y77216D02*
G01X56007Y77216D01*
G54D28*
G01X68961Y78587D02*
G01X74168Y78587D01*
G01X74168Y75844D01*
G01X68961Y75844D01*
G01X68961Y78587D01*
G01X73533Y78587D02*
G01X73533Y75844D01*
G54D10*
G01X14003Y20698D02*
G01X33005Y20698D01*
G01X14004Y36197D02*
G01X33005Y36197D01*
G01X14004Y36197D02*
G01X14004Y20698D01*
G01X33005Y36197D02*
G01X33005Y20698D01*
G01X46760Y54408D02*
G01X46760Y58367D01*
G01X56261Y72898D02*
G01X61341Y72898D01*
G01X61341Y72898D02*
G01X61341Y72136D01*
G01X61341Y72136D02*
G01X61341Y71374D01*
G01X61341Y71374D02*
G01X56261Y71374D01*
G01X56261Y71374D02*
G01X56261Y72136D01*
G01X56261Y72136D02*
G01X56261Y72898D01*
G01X61341Y72136D02*
G01X61595Y72136D01*
G01X56261Y72136D02*
G01X56007Y72136D01*
G54D28*
G01X68961Y73507D02*
G01X74168Y73507D01*
G01X74168Y70764D01*
G01X68961Y70764D01*
G01X68961Y73507D01*
G01X73533Y73507D02*
G01X73533Y70764D01*
G54D10*
G01X14003Y2918D02*
G01X33005Y2918D01*
G01X14004Y18417D02*
G01X33005Y18417D01*
G01X14004Y18417D02*
G01X14004Y2918D01*
G01X33005Y18417D02*
G01X33005Y2918D01*
G01X46760Y46788D02*
G01X46760Y50747D01*
G01X56261Y67818D02*
G01X61341Y67818D01*
G01X61341Y67818D02*
G01X61341Y67056D01*
G01X61341Y67056D02*
G01X61341Y66294D01*
G01X61341Y66294D02*
G01X56261Y66294D01*
G01X56261Y66294D02*
G01X56261Y67056D01*
G01X56261Y67056D02*
G01X56261Y67818D01*
G01X61341Y67056D02*
G01X61595Y67056D01*
G01X56261Y67056D02*
G01X56007Y67056D01*
G54D28*
G01X68961Y68427D02*
G01X74168Y68427D01*
G01X74168Y65684D01*
G01X68961Y65684D01*
G01X68961Y68427D01*
G01X73533Y68427D02*
G01X73533Y65684D01*
G54D10*
G01X121251Y18544D02*
G01X102249Y18544D01*
G01X121250Y3045D02*
G01X102249Y3045D01*
G01X121250Y3045D02*
G01X121250Y18544D01*
G01X102249Y3045D02*
G01X102249Y18544D01*
G01X38632Y77268D02*
G01X38632Y81227D01*
G01X56261Y62738D02*
G01X61341Y62738D01*
G01X61341Y62738D02*
G01X61341Y61976D01*
G01X61341Y61976D02*
G01X61341Y61214D01*
G01X61341Y61214D02*
G01X56261Y61214D01*
G01X56261Y61214D02*
G01X56261Y61976D01*
G01X56261Y61976D02*
G01X56261Y62738D01*
G01X61341Y61976D02*
G01X61595Y61976D01*
G01X56261Y61976D02*
G01X56007Y61976D01*
G54D28*
G01X68961Y63347D02*
G01X74168Y63347D01*
G01X74168Y60604D01*
G01X68961Y60604D01*
G01X68961Y63347D01*
G01X73533Y63347D02*
G01X73533Y60604D01*
G54D10*
G01X121251Y36324D02*
G01X102249Y36324D01*
G01X121250Y20825D02*
G01X102249Y20825D01*
G01X121250Y20825D02*
G01X121250Y36324D01*
G01X102249Y20825D02*
G01X102249Y36324D01*
G01X38632Y69648D02*
G01X38632Y73607D01*
G01X56261Y57658D02*
G01X61341Y57658D01*
G01X61341Y57658D02*
G01X61341Y56896D01*
G01X61341Y56896D02*
G01X61341Y56134D01*
G01X61341Y56134D02*
G01X56261Y56134D01*
G01X56261Y56134D02*
G01X56261Y56896D01*
G01X56261Y56896D02*
G01X56261Y57658D01*
G01X61341Y56896D02*
G01X61595Y56896D01*
G01X56261Y56896D02*
G01X56007Y56896D01*
G54D28*
G01X68961Y58267D02*
G01X74168Y58267D01*
G01X74168Y55524D01*
G01X68961Y55524D01*
G01X68961Y58267D01*
G01X73533Y58267D02*
G01X73533Y55524D01*
G54D10*
G01X121251Y54104D02*
G01X102249Y54104D01*
G01X121250Y38605D02*
G01X102249Y38605D01*
G01X121250Y38605D02*
G01X121250Y54104D01*
G01X102249Y38605D02*
G01X102249Y54104D01*
G01X38632Y62028D02*
G01X38632Y65987D01*
G01X56261Y52578D02*
G01X61341Y52578D01*
G01X61341Y52578D02*
G01X61341Y51816D01*
G01X61341Y51816D02*
G01X61341Y51054D01*
G01X61341Y51054D02*
G01X56261Y51054D01*
G01X56261Y51054D02*
G01X56261Y51816D01*
G01X56261Y51816D02*
G01X56261Y52578D01*
G01X61341Y51816D02*
G01X61595Y51816D01*
G01X56261Y51816D02*
G01X56007Y51816D01*
G54D28*
G01X68961Y53187D02*
G01X74168Y53187D01*
G01X74168Y50444D01*
G01X68961Y50444D01*
G01X68961Y53187D01*
G01X73533Y53187D02*
G01X73533Y50444D01*
G54D10*
G01X11125Y51231D02*
G01X11125Y41224D01*
G01X11125Y41224D02*
G01X9398Y41224D01*
G01X9398Y41224D02*
G01X4343Y41224D01*
G01X4343Y41224D02*
G01X3606Y41224D01*
G01X3606Y41224D02*
G01X3606Y51231D01*
G01X3606Y51231D02*
G01X4343Y51231D01*
G01X4343Y51231D02*
G01X9398Y51231D01*
G01X9398Y51231D02*
G01X9525Y51231D01*
G01X9525Y51231D02*
G01X10109Y51231D01*
G01X10109Y51231D02*
G01X11125Y51231D01*
G01X10109Y51231D02*
G01X10261Y51816D01*
G01X10261Y51816D02*
G01X9372Y51816D01*
G01X9372Y51816D02*
G01X9525Y51231D01*
G01X9398Y51231D02*
G01X9398Y41224D01*
G01X4343Y51231D02*
G01X4343Y41224D01*
G01X10998Y33451D02*
G01X10998Y23444D01*
G01X10998Y23444D02*
G01X9271Y23444D01*
G01X9271Y23444D02*
G01X4216Y23444D01*
G01X4216Y23444D02*
G01X3479Y23444D01*
G01X3479Y23444D02*
G01X3479Y33451D01*
G01X3479Y33451D02*
G01X4216Y33451D01*
G01X4216Y33451D02*
G01X9271Y33451D01*
G01X9271Y33451D02*
G01X9398Y33451D01*
G01X9398Y33451D02*
G01X9982Y33451D01*
G01X9982Y33451D02*
G01X10998Y33451D01*
G01X9982Y33451D02*
G01X10134Y34036D01*
G01X10134Y34036D02*
G01X9245Y34036D01*
G01X9245Y34036D02*
G01X9398Y33451D01*
G01X9271Y33451D02*
G01X9271Y23444D01*
G01X4216Y33451D02*
G01X4216Y23444D01*
G01X10998Y15671D02*
G01X10998Y5664D01*
G01X10998Y5664D02*
G01X9271Y5664D01*
G01X9271Y5664D02*
G01X4216Y5664D01*
G01X4216Y5664D02*
G01X3479Y5664D01*
G01X3479Y5664D02*
G01X3479Y15671D01*
G01X3479Y15671D02*
G01X4216Y15671D01*
G01X4216Y15671D02*
G01X9271Y15671D01*
G01X9271Y15671D02*
G01X9398Y15671D01*
G01X9398Y15671D02*
G01X9982Y15671D01*
G01X9982Y15671D02*
G01X10998Y15671D01*
G01X9982Y15671D02*
G01X10134Y16256D01*
G01X10134Y16256D02*
G01X9245Y16256D01*
G01X9245Y16256D02*
G01X9398Y15671D01*
G01X9271Y15671D02*
G01X9271Y5664D01*
G01X4216Y15671D02*
G01X4216Y5664D01*
G01X123875Y5791D02*
G01X123875Y15798D01*
G01X123875Y15798D02*
G01X125603Y15798D01*
G01X125603Y15798D02*
G01X130657Y15798D01*
G01X130657Y15798D02*
G01X131394Y15798D01*
G01X131394Y15798D02*
G01X131394Y5791D01*
G01X131394Y5791D02*
G01X130657Y5791D01*
G01X130657Y5791D02*
G01X125603Y5791D01*
G01X125603Y5791D02*
G01X125476Y5791D01*
G01X125476Y5791D02*
G01X124891Y5791D01*
G01X124891Y5791D02*
G01X123875Y5791D01*
G01X124891Y5791D02*
G01X124739Y5207D01*
G01X124739Y5207D02*
G01X125628Y5207D01*
G01X125628Y5207D02*
G01X125476Y5791D01*
G01X125603Y5791D02*
G01X125603Y15798D01*
G01X130657Y5791D02*
G01X130657Y15798D01*
G01X123748Y23444D02*
G01X123748Y33451D01*
G01X123748Y33451D02*
G01X125476Y33451D01*
G01X125476Y33451D02*
G01X130530Y33451D01*
G01X130530Y33451D02*
G01X131267Y33451D01*
G01X131267Y33451D02*
G01X131267Y23444D01*
G01X131267Y23444D02*
G01X130530Y23444D01*
G01X130530Y23444D02*
G01X125476Y23444D01*
G01X125476Y23444D02*
G01X125349Y23444D01*
G01X125349Y23444D02*
G01X124764Y23444D01*
G01X124764Y23444D02*
G01X123748Y23444D01*
G01X124764Y23444D02*
G01X124612Y22860D01*
G01X124612Y22860D02*
G01X125501Y22860D01*
G01X125501Y22860D02*
G01X125349Y23444D01*
G01X125476Y23444D02*
G01X125476Y33451D01*
G01X130530Y23444D02*
G01X130530Y33451D01*
G01X123748Y41478D02*
G01X123748Y51485D01*
G01X123748Y51485D02*
G01X125476Y51485D01*
G01X125476Y51485D02*
G01X130530Y51485D01*
G01X130530Y51485D02*
G01X131267Y51485D01*
G01X131267Y51485D02*
G01X131267Y41478D01*
G01X131267Y41478D02*
G01X130530Y41478D01*
G01X130530Y41478D02*
G01X125476Y41478D01*
G01X125476Y41478D02*
G01X125349Y41478D01*
G01X125349Y41478D02*
G01X124764Y41478D01*
G01X124764Y41478D02*
G01X123748Y41478D01*
G01X124764Y41478D02*
G01X124612Y40894D01*
G01X124612Y40894D02*
G01X125501Y40894D01*
G01X125501Y40894D02*
G01X125349Y41478D01*
G01X125476Y41478D02*
G01X125476Y51485D01*
G01X130530Y41478D02*
G01X130530Y51485D01*
G01X14003Y74038D02*
G01X33005Y74038D01*
G01X14004Y89537D02*
G01X33005Y89537D01*
G01X14004Y89537D02*
G01X14004Y74038D01*
G01X33005Y89537D02*
G01X33005Y74038D01*
G01X46760Y77268D02*
G01X46760Y81227D01*
G01X56261Y88138D02*
G01X61341Y88138D01*
G01X61341Y88138D02*
G01X61341Y87376D01*
G01X61341Y87376D02*
G01X61341Y86614D01*
G01X61341Y86614D02*
G01X56261Y86614D01*
G01X56261Y86614D02*
G01X56261Y87376D01*
G01X56261Y87376D02*
G01X56261Y88138D01*
G01X61341Y87376D02*
G01X61595Y87376D01*
G01X56261Y87376D02*
G01X56007Y87376D01*
G54D28*
G01X68961Y88747D02*
G01X74168Y88747D01*
G01X74168Y86004D01*
G01X68961Y86004D01*
G01X68961Y88747D01*
G01X73533Y88747D02*
G01X73533Y86004D01*
G54D10*
G01X14003Y56258D02*
G01X33005Y56258D01*
G01X14004Y71757D02*
G01X33005Y71757D01*
G01X14004Y71757D02*
G01X14004Y56258D01*
G01X33005Y71757D02*
G01X33005Y56258D01*
G01X46760Y69648D02*
G01X46760Y73607D01*
G01X56261Y83058D02*
G01X61341Y83058D01*
G01X61341Y83058D02*
G01X61341Y82296D01*
G01X61341Y82296D02*
G01X61341Y81534D01*
G01X61341Y81534D02*
G01X56261Y81534D01*
G01X56261Y81534D02*
G01X56261Y82296D01*
G01X56261Y82296D02*
G01X56261Y83058D01*
G01X61341Y82296D02*
G01X61595Y82296D01*
G01X56261Y82296D02*
G01X56007Y82296D01*
G54D28*
G01X68961Y83667D02*
G01X74168Y83667D01*
G01X74168Y80924D01*
G01X68961Y80924D01*
G01X68961Y83667D01*
G01X73533Y83667D02*
G01X73533Y80924D01*
G54D10*
G01X121251Y71884D02*
G01X102249Y71884D01*
G01X121250Y56385D02*
G01X102249Y56385D01*
G01X121250Y56385D02*
G01X121250Y71884D01*
G01X102249Y56385D02*
G01X102249Y71884D01*
G01X38632Y54408D02*
G01X38632Y58367D01*
G01X56261Y47498D02*
G01X61341Y47498D01*
G01X61341Y47498D02*
G01X61341Y46736D01*
G01X61341Y46736D02*
G01X61341Y45974D01*
G01X61341Y45974D02*
G01X56261Y45974D01*
G01X56261Y45974D02*
G01X56261Y46736D01*
G01X56261Y46736D02*
G01X56261Y47498D01*
G01X61341Y46736D02*
G01X61595Y46736D01*
G01X56261Y46736D02*
G01X56007Y46736D01*
G54D28*
G01X68961Y48107D02*
G01X74168Y48107D01*
G01X74168Y45364D01*
G01X68961Y45364D01*
G01X68961Y48107D01*
G01X73533Y48107D02*
G01X73533Y45364D01*
G54D10*
G01X121251Y89664D02*
G01X102249Y89664D01*
G01X121250Y74165D02*
G01X102249Y74165D01*
G01X121250Y74165D02*
G01X121250Y89664D01*
G01X102249Y74165D02*
G01X102249Y89664D01*
G01X38632Y46788D02*
G01X38632Y50747D01*
G01X56261Y42418D02*
G01X61341Y42418D01*
G01X61341Y42418D02*
G01X61341Y41656D01*
G01X61341Y41656D02*
G01X61341Y40894D01*
G01X61341Y40894D02*
G01X56261Y40894D01*
G01X56261Y40894D02*
G01X56261Y41656D01*
G01X56261Y41656D02*
G01X56261Y42418D01*
G01X61341Y41656D02*
G01X61595Y41656D01*
G01X56261Y41656D02*
G01X56007Y41656D01*
G54D28*
G01X68961Y43027D02*
G01X74168Y43027D01*
G01X74168Y40284D01*
G01X68961Y40284D01*
G01X68961Y43027D01*
G01X73533Y43027D02*
G01X73533Y40284D01*
G54D10*
G01X11125Y86791D02*
G01X11125Y76784D01*
G01X11125Y76784D02*
G01X9398Y76784D01*
G01X9398Y76784D02*
G01X4343Y76784D01*
G01X4343Y76784D02*
G01X3606Y76784D01*
G01X3606Y76784D02*
G01X3606Y86791D01*
G01X3606Y86791D02*
G01X4343Y86791D01*
G01X4343Y86791D02*
G01X9398Y86791D01*
G01X9398Y86791D02*
G01X9525Y86791D01*
G01X9525Y86791D02*
G01X10109Y86791D01*
G01X10109Y86791D02*
G01X11125Y86791D01*
G01X10109Y86791D02*
G01X10261Y87376D01*
G01X10261Y87376D02*
G01X9372Y87376D01*
G01X9372Y87376D02*
G01X9525Y86791D01*
G01X9398Y86791D02*
G01X9398Y76784D01*
G01X4343Y86791D02*
G01X4343Y76784D01*
G01X11125Y69011D02*
G01X11125Y59004D01*
G01X11125Y59004D02*
G01X9398Y59004D01*
G01X9398Y59004D02*
G01X4343Y59004D01*
G01X4343Y59004D02*
G01X3606Y59004D01*
G01X3606Y59004D02*
G01X3606Y69011D01*
G01X3606Y69011D02*
G01X4343Y69011D01*
G01X4343Y69011D02*
G01X9398Y69011D01*
G01X9398Y69011D02*
G01X9525Y69011D01*
G01X9525Y69011D02*
G01X10109Y69011D01*
G01X10109Y69011D02*
G01X11125Y69011D01*
G01X10109Y69011D02*
G01X10261Y69596D01*
G01X10261Y69596D02*
G01X9372Y69596D01*
G01X9372Y69596D02*
G01X9525Y69011D01*
G01X9398Y69011D02*
G01X9398Y59004D01*
G01X4343Y69011D02*
G01X4343Y59004D01*
G01X123748Y59004D02*
G01X123748Y69011D01*
G01X123748Y69011D02*
G01X125476Y69011D01*
G01X125476Y69011D02*
G01X130530Y69011D01*
G01X130530Y69011D02*
G01X131267Y69011D01*
G01X131267Y69011D02*
G01X131267Y59004D01*
G01X131267Y59004D02*
G01X130530Y59004D01*
G01X130530Y59004D02*
G01X125476Y59004D01*
G01X125476Y59004D02*
G01X125349Y59004D01*
G01X125349Y59004D02*
G01X124764Y59004D01*
G01X124764Y59004D02*
G01X123748Y59004D01*
G01X124764Y59004D02*
G01X124612Y58420D01*
G01X124612Y58420D02*
G01X125501Y58420D01*
G01X125501Y58420D02*
G01X125349Y59004D01*
G01X125476Y59004D02*
G01X125476Y69011D01*
G01X130530Y59004D02*
G01X130530Y69011D01*
G01X123748Y76911D02*
G01X123748Y86918D01*
G01X123748Y86918D02*
G01X125476Y86918D01*
G01X125476Y86918D02*
G01X130530Y86918D01*
G01X130530Y86918D02*
G01X131267Y86918D01*
G01X131267Y86918D02*
G01X131267Y76911D01*
G01X131267Y76911D02*
G01X130530Y76911D01*
G01X130530Y76911D02*
G01X125476Y76911D01*
G01X125476Y76911D02*
G01X125349Y76911D01*
G01X125349Y76911D02*
G01X124764Y76911D01*
G01X124764Y76911D02*
G01X123748Y76911D01*
G01X124764Y76911D02*
G01X124612Y76327D01*
G01X124612Y76327D02*
G01X125501Y76327D01*
G01X125501Y76327D02*
G01X125349Y76911D01*
G01X125476Y76911D02*
G01X125476Y86918D01*
G01X130530Y76911D02*
G01X130530Y86918D01*
G54D29*
G01X92964Y24892D02*
G01X92964Y21463D01*
G01X83312Y24892D02*
G01X83312Y21463D01*
G01X93472Y26035D02*
G01X82804Y26035D01*
G01X89916Y25019D02*
G01X89916Y26289D01*
G01X86360Y25019D02*
G01X86360Y26289D01*
G01X82804Y24892D02*
G01X93472Y24892D01*
G01X82804Y26289D02*
G01X93472Y26289D01*
G01X93472Y21463D01*
G01X82804Y21463D01*
G01X82804Y26289D01*
G54D30*
G01X48663Y6293D02*
G01X57762Y6293D01*
G01X48713Y2794D02*
G01X57712Y2794D01*
G01X57785Y2794D02*
G01X57785Y17293D01*
G01X57785Y17293D02*
G01X48641Y17293D01*
G01X48641Y17293D02*
G01X48641Y2794D01*
G54D10*
G01X46913Y2844D02*
G01X36906Y2844D01*
G01X36906Y2844D02*
G01X36906Y4572D01*
G01X36906Y4572D02*
G01X36906Y9626D01*
G01X36906Y9626D02*
G01X36906Y10363D01*
G01X36906Y10363D02*
G01X46913Y10363D01*
G01X46913Y10363D02*
G01X46913Y9626D01*
G01X46913Y9626D02*
G01X46913Y4572D01*
G01X46913Y4572D02*
G01X46913Y4445D01*
G01X46913Y4445D02*
G01X46913Y3860D01*
G01X46913Y3860D02*
G01X46913Y2844D01*
G01X46913Y3860D02*
G01X47498Y3708D01*
G01X47498Y3708D02*
G01X47498Y4597D01*
G01X47498Y4597D02*
G01X46913Y4445D01*
G01X46913Y4572D02*
G01X36906Y4572D01*
G01X46913Y9626D02*
G01X36906Y9626D01*
G54D30*
G01X75460Y6420D02*
G01X84559Y6420D01*
G01X75510Y2921D02*
G01X84509Y2921D01*
G01X84582Y2921D02*
G01X84582Y17420D01*
G01X84582Y17420D02*
G01X75438Y17420D01*
G01X75438Y17420D02*
G01X75438Y2921D01*
G54D10*
G01X73837Y2971D02*
G01X63830Y2971D01*
G01X63830Y2971D02*
G01X63830Y4699D01*
G01X63830Y4699D02*
G01X63830Y9753D01*
G01X63830Y9753D02*
G01X63830Y10490D01*
G01X63830Y10490D02*
G01X73837Y10490D01*
G01X73837Y10490D02*
G01X73837Y9753D01*
G01X73837Y9753D02*
G01X73837Y4699D01*
G01X73837Y4699D02*
G01X73837Y4572D01*
G01X73837Y4572D02*
G01X73837Y3987D01*
G01X73837Y3987D02*
G01X73837Y2971D01*
G01X73837Y3987D02*
G01X74422Y3835D01*
G01X74422Y3835D02*
G01X74422Y4724D01*
G01X74422Y4724D02*
G01X73837Y4572D01*
G01X73837Y4699D02*
G01X63830Y4699D01*
G01X73837Y9753D02*
G01X63830Y9753D01*
G01X98360Y8769D02*
G01X98360Y3029D01*
G01X98360Y8780D02*
G01X90361Y8780D01*
G01X90361Y8780D02*
G01X90361Y3040D01*
G01X98360Y3020D02*
G01X90361Y3020D01*
G01X97750Y3729D02*
G01X90981Y3729D01*
G01X98340Y3020D02*
G01X98340Y3139D01*
G01X97750Y3729D01*
G01X90390Y3040D02*
G01X90390Y3139D01*
G01X90981Y3729D01*
G01X93061Y12756D02*
G01X95660Y12756D01*
G54D31*
G01X89166Y57947D02*
G01X90256Y57531D01*
G01X89166Y57947D02*
G01X90256Y58361D01*
G01X89893Y57685D02*
G01X89893Y58206D01*
G01X89166Y58704D02*
G01X90256Y58704D01*
G01X89166Y58704D02*
G01X89166Y59171D01*
G01X89217Y59329D01*
G01X89268Y59380D01*
G01X89372Y59433D01*
G01X89476Y59433D01*
G01X89580Y59380D01*
G01X89634Y59329D01*
G01X89684Y59171D01*
G01X89684Y58704D01*
G01X89684Y59067D02*
G01X90256Y59433D01*
G01X89166Y59776D02*
G01X90256Y59776D01*
G01X89166Y59776D02*
G01X89166Y60139D01*
G01X89217Y60294D01*
G01X89321Y60398D01*
G01X89425Y60452D01*
G01X89580Y60502D01*
G01X89839Y60502D01*
G01X89997Y60452D01*
G01X90101Y60398D01*
G01X90205Y60294D01*
G01X90256Y60139D01*
G01X90256Y59776D01*
G01X89166Y60845D02*
G01X89943Y60845D01*
G01X90101Y60896D01*
G01X90205Y61000D01*
G01X90256Y61158D01*
G01X90256Y61262D01*
G01X90205Y61417D01*
G01X90101Y61521D01*
G01X89943Y61572D01*
G01X89166Y61572D01*
G01X89166Y61915D02*
G01X90256Y61915D01*
G01X89166Y62257D02*
G01X90256Y62257D01*
G01X89166Y62257D02*
G01X90256Y62986D01*
G01X89166Y62986D02*
G01X90256Y62986D01*
G01X89166Y63639D02*
G01X89217Y63538D01*
G01X89321Y63433D01*
G01X89425Y63380D01*
G01X89580Y63329D01*
G01X89839Y63329D01*
G01X89997Y63380D01*
G01X90101Y63433D01*
G01X90205Y63538D01*
G01X90256Y63639D01*
G01X90256Y63847D01*
G01X90205Y63952D01*
G01X90101Y64056D01*
G01X89997Y64109D01*
G01X89839Y64160D01*
G01X89580Y64160D01*
G01X89425Y64109D01*
G01X89321Y64056D01*
G01X89217Y63952D01*
G01X89166Y63847D01*
G01X89166Y63639D01*
G01X90619Y64503D02*
G01X90619Y65438D01*
G01X89166Y65780D02*
G01X90256Y65780D01*
G01X89166Y65780D02*
G01X90256Y66509D01*
G01X89166Y66509D02*
G01X90256Y66509D01*
G01X89166Y67266D02*
G01X90256Y66852D01*
G01X89166Y67266D02*
G01X90256Y67683D01*
G01X89893Y67007D02*
G01X89893Y67525D01*
G01X89166Y68026D02*
G01X90256Y68026D01*
G01X89166Y68026D02*
G01X90256Y68752D01*
G01X89166Y68752D02*
G01X90256Y68752D01*
G01X89166Y69408D02*
G01X89217Y69303D01*
G01X89321Y69199D01*
G01X89425Y69148D01*
G01X89580Y69095D01*
G01X89839Y69095D01*
G01X89997Y69148D01*
G01X90101Y69199D01*
G01X90205Y69303D01*
G01X90256Y69408D01*
G01X90256Y69616D01*
G01X90205Y69720D01*
G01X90101Y69824D01*
G01X89997Y69875D01*
G01X89839Y69926D01*
G01X89580Y69926D01*
G01X89425Y69875D01*
G01X89321Y69824D01*
G01X89217Y69720D01*
G01X89166Y69616D01*
G01X89166Y69408D01*
G54D32*
G01X103471Y46540D02*
G01X103471Y47510D01*
G01X103471Y46540D02*
G01X103149Y46540D01*
G01X103009Y46586D01*
G01X102918Y46677D01*
G01X102872Y46771D01*
G01X102824Y46908D01*
G01X102824Y47139D01*
G01X102872Y47279D01*
G01X102918Y47371D01*
G01X103009Y47462D01*
G01X103149Y47510D01*
G01X103471Y47510D01*
G01X102519Y46725D02*
G01X102428Y46677D01*
G01X102290Y46540D01*
G01X102290Y47510D01*
G01X101152Y46355D02*
G01X101986Y47833D01*
G01X100525Y46540D02*
G01X100525Y47510D01*
G01X100848Y46540D02*
G01X100203Y46540D01*
G01X99898Y46540D02*
G01X99250Y47510D01*
G01X99250Y46540D02*
G01X99898Y47510D01*
G01X78046Y49588D02*
G01X78092Y49494D01*
G01X78186Y49403D01*
G01X78277Y49357D01*
G01X78463Y49357D01*
G01X78554Y49403D01*
G01X78648Y49494D01*
G01X78694Y49588D01*
G01X78740Y49725D01*
G01X78740Y49956D01*
G01X78694Y50096D01*
G01X78648Y50187D01*
G01X78554Y50279D01*
G01X78463Y50327D01*
G01X78277Y50327D01*
G01X78186Y50279D01*
G01X78092Y50187D01*
G01X78046Y50096D01*
G01X78046Y49956D01*
G01X78277Y49956D02*
G01X78046Y49956D01*
G01X77741Y49357D02*
G01X77741Y50327D01*
G01X77741Y49357D02*
G01X77096Y50327D01*
G01X77096Y49357D02*
G01X77096Y50327D01*
G01X76791Y49357D02*
G01X76791Y50327D01*
G01X76791Y49357D02*
G01X76466Y49357D01*
G01X76329Y49403D01*
G01X76238Y49494D01*
G01X76189Y49588D01*
G01X76144Y49725D01*
G01X76144Y49956D01*
G01X76189Y50096D01*
G01X76238Y50187D01*
G01X76329Y50279D01*
G01X76466Y50327D01*
G01X76791Y50327D01*
G01X78323Y54828D02*
G01X78323Y55661D01*
G01X78740Y55245D02*
G01X77909Y55245D01*
G01X77050Y54691D02*
G01X77510Y54691D01*
G01X77558Y55105D01*
G01X77510Y55059D01*
G01X77373Y55013D01*
G01X77233Y55013D01*
G01X77096Y55059D01*
G01X77002Y55153D01*
G01X76956Y55290D01*
G01X76956Y55384D01*
G01X77002Y55521D01*
G01X77096Y55613D01*
G01X77233Y55661D01*
G01X77373Y55661D01*
G01X77510Y55613D01*
G01X77558Y55567D01*
G01X77604Y55476D01*
G01X76652Y54691D02*
G01X76283Y55661D01*
G01X75912Y54691D02*
G01X76283Y55661D01*
G01X105864Y82377D02*
G01X105864Y83347D01*
G01X105864Y82377D02*
G01X105542Y82377D01*
G01X105402Y82423D01*
G01X105310Y82514D01*
G01X105265Y82608D01*
G01X105216Y82745D01*
G01X105216Y82976D01*
G01X105265Y83116D01*
G01X105310Y83207D01*
G01X105402Y83299D01*
G01X105542Y83347D01*
G01X105864Y83347D01*
G01X104912Y82562D02*
G01X104820Y82514D01*
G01X104683Y82377D01*
G01X104683Y83347D01*
G01X104330Y82608D02*
G01X104330Y82562D01*
G01X104284Y82468D01*
G01X104239Y82423D01*
G01X104147Y82377D01*
G01X103962Y82377D01*
G01X103870Y82423D01*
G01X103822Y82468D01*
G01X103776Y82562D01*
G01X103776Y82654D01*
G01X103822Y82745D01*
G01X103916Y82885D01*
G01X104378Y83347D01*
G01X103731Y83347D01*
G01X102595Y82191D02*
G01X103426Y83670D01*
G01X102290Y82377D02*
G01X102290Y83347D01*
G01X102290Y82377D02*
G01X101920Y83347D01*
G01X101551Y82377D02*
G01X101920Y83347D01*
G01X101551Y82377D02*
G01X101551Y83347D01*
G01X101246Y82377D02*
G01X101246Y83347D01*
G01X100294Y82514D02*
G01X100388Y82423D01*
G01X100525Y82377D01*
G01X100711Y82377D01*
G01X100848Y82423D01*
G01X100942Y82514D01*
G01X100942Y82608D01*
G01X100896Y82699D01*
G01X100848Y82745D01*
G01X100756Y82791D01*
G01X100479Y82885D01*
G01X100388Y82931D01*
G01X100340Y82976D01*
G01X100294Y83070D01*
G01X100294Y83207D01*
G01X100388Y83299D01*
G01X100525Y83347D01*
G01X100711Y83347D01*
G01X100848Y83299D01*
G01X100942Y83207D01*
G01X99712Y82377D02*
G01X99806Y82423D01*
G01X99898Y82514D01*
G01X99943Y82608D01*
G01X99989Y82745D01*
G01X99989Y82976D01*
G01X99943Y83116D01*
G01X99898Y83207D01*
G01X99806Y83299D01*
G01X99712Y83347D01*
G01X99527Y83347D01*
G01X99435Y83299D01*
G01X99344Y83207D01*
G01X99298Y83116D01*
G01X99250Y82976D01*
G01X99250Y82745D01*
G01X99298Y82608D01*
G01X99344Y82514D01*
G01X99435Y82423D01*
G01X99527Y82377D01*
G01X99712Y82377D01*
G01X78740Y46817D02*
G01X78371Y47787D01*
G01X78000Y46817D02*
G01X78371Y47787D01*
G01X77696Y46817D02*
G01X77696Y47787D01*
G01X77391Y46817D02*
G01X77391Y47787D01*
G01X77391Y46817D02*
G01X76746Y47787D01*
G01X76746Y46817D02*
G01X76746Y47787D01*
G01X78740Y82631D02*
G01X78740Y83601D01*
G01X78740Y82631D02*
G01X78417Y82631D01*
G01X78277Y82677D01*
G01X78186Y82768D01*
G01X78140Y82862D01*
G01X78092Y82999D01*
G01X78092Y83230D01*
G01X78140Y83370D01*
G01X78186Y83461D01*
G01X78277Y83553D01*
G01X78417Y83601D01*
G01X78740Y83601D01*
G01X77787Y82816D02*
G01X77696Y82768D01*
G01X77558Y82631D01*
G01X77558Y83601D01*
G01X77160Y82631D02*
G01X76652Y82631D01*
G01X76928Y82999D01*
G01X76791Y82999D01*
G01X76697Y83045D01*
G01X76652Y83093D01*
G01X76606Y83230D01*
G01X76606Y83324D01*
G01X76652Y83461D01*
G01X76746Y83553D01*
G01X76883Y83601D01*
G01X77022Y83601D01*
G01X77160Y83553D01*
G01X77205Y83507D01*
G01X77254Y83416D01*
G01X75471Y82445D02*
G01X76301Y83924D01*
G01X74518Y82768D02*
G01X74612Y82677D01*
G01X74749Y82631D01*
G01X74935Y82631D01*
G01X75072Y82677D01*
G01X75166Y82768D01*
G01X75166Y82862D01*
G01X75120Y82953D01*
G01X75072Y82999D01*
G01X74980Y83045D01*
G01X74703Y83139D01*
G01X74612Y83185D01*
G01X74564Y83230D01*
G01X74518Y83324D01*
G01X74518Y83461D01*
G01X74612Y83553D01*
G01X74749Y83601D01*
G01X74935Y83601D01*
G01X75072Y83553D01*
G01X75166Y83461D01*
G01X73520Y82862D02*
G01X73568Y82768D01*
G01X73660Y82677D01*
G01X73751Y82631D01*
G01X73936Y82631D01*
G01X74028Y82677D01*
G01X74122Y82768D01*
G01X74168Y82862D01*
G01X74213Y82999D01*
G01X74213Y83230D01*
G01X74168Y83370D01*
G01X74122Y83461D01*
G01X74028Y83553D01*
G01X73936Y83601D01*
G01X73751Y83601D01*
G01X73660Y83553D01*
G01X73568Y83461D01*
G01X73520Y83370D01*
G01X73215Y82631D02*
G01X73215Y83601D01*
G01X72570Y82631D02*
G01X73215Y83276D01*
G01X72986Y83045D02*
G01X72570Y83601D01*
G01X101152Y54668D02*
G01X101198Y54574D01*
G01X101292Y54483D01*
G01X101384Y54437D01*
G01X101569Y54437D01*
G01X101660Y54483D01*
G01X101754Y54574D01*
G01X101800Y54668D01*
G01X101846Y54805D01*
G01X101846Y55036D01*
G01X101800Y55176D01*
G01X101754Y55267D01*
G01X101660Y55359D01*
G01X101569Y55407D01*
G01X101384Y55407D01*
G01X101292Y55359D01*
G01X101198Y55267D01*
G01X101152Y55176D01*
G01X101152Y55036D01*
G01X101384Y55036D02*
G01X101152Y55036D01*
G01X100848Y54437D02*
G01X100848Y55407D01*
G01X100848Y54437D02*
G01X100203Y55407D01*
G01X100203Y54437D02*
G01X100203Y55407D01*
G01X99898Y54437D02*
G01X99898Y55407D01*
G01X99898Y54437D02*
G01X99573Y54437D01*
G01X99435Y54483D01*
G01X99344Y54574D01*
G01X99296Y54668D01*
G01X99250Y54805D01*
G01X99250Y55036D01*
G01X99296Y55176D01*
G01X99344Y55267D01*
G01X99435Y55359D01*
G01X99573Y55407D01*
G01X99898Y55407D01*
G01X103886Y49588D02*
G01X103886Y50558D01*
G01X103886Y49588D02*
G01X103563Y49588D01*
G01X103423Y49634D01*
G01X103332Y49725D01*
G01X103286Y49819D01*
G01X103238Y49956D01*
G01X103238Y50187D01*
G01X103286Y50327D01*
G01X103332Y50419D01*
G01X103423Y50510D01*
G01X103563Y50558D01*
G01X103886Y50558D01*
G01X102656Y49588D02*
G01X102796Y49634D01*
G01X102887Y49773D01*
G01X102933Y50002D01*
G01X102933Y50142D01*
G01X102887Y50373D01*
G01X102796Y50510D01*
G01X102656Y50558D01*
G01X102565Y50558D01*
G01X102425Y50510D01*
G01X102334Y50373D01*
G01X102288Y50142D01*
G01X102288Y50002D01*
G01X102334Y49773D01*
G01X102425Y49634D01*
G01X102565Y49588D01*
G01X102656Y49588D01*
G01X101152Y49403D02*
G01X101983Y50881D01*
G01X100848Y49588D02*
G01X100848Y50558D01*
G01X100848Y49588D02*
G01X100431Y49588D01*
G01X100291Y49634D01*
G01X100246Y49679D01*
G01X100200Y49773D01*
G01X100200Y49865D01*
G01X100246Y49956D01*
G01X100291Y50002D01*
G01X100431Y50050D01*
G01X100848Y50050D01*
G01X100523Y50050D02*
G01X100200Y50558D01*
G01X99895Y49588D02*
G01X99250Y50558D01*
G01X99250Y49588D02*
G01X99895Y50558D01*
G01X103609Y51943D02*
G01X103609Y52913D01*
G01X103609Y51943D02*
G01X103192Y51943D01*
G01X103055Y51988D01*
G01X103009Y52034D01*
G01X102961Y52128D01*
G01X102961Y52219D01*
G01X103009Y52311D01*
G01X103055Y52357D01*
G01X103192Y52405D01*
G01X103609Y52405D01*
G01X103286Y52405D02*
G01X102961Y52913D01*
G01X102656Y51943D02*
G01X102656Y52913D01*
G01X102656Y51943D02*
G01X102057Y51943D01*
G01X102656Y52405D02*
G01X102288Y52405D01*
G01X102656Y52913D02*
G01X102057Y52913D01*
G01X101107Y52080D02*
G01X101198Y51988D01*
G01X101335Y51943D01*
G01X101521Y51943D01*
G01X101660Y51988D01*
G01X101752Y52080D01*
G01X101752Y52174D01*
G01X101706Y52265D01*
G01X101660Y52311D01*
G01X101566Y52357D01*
G01X101290Y52451D01*
G01X101198Y52496D01*
G01X101152Y52542D01*
G01X101107Y52636D01*
G01X101107Y52773D01*
G01X101198Y52865D01*
G01X101335Y52913D01*
G01X101521Y52913D01*
G01X101660Y52865D01*
G01X101752Y52773D01*
G01X100802Y51943D02*
G01X100802Y52913D01*
G01X100802Y51943D02*
G01X100200Y51943D01*
G01X100802Y52405D02*
G01X100431Y52405D01*
G01X100802Y52913D02*
G01X100200Y52913D01*
G01X99573Y51943D02*
G01X99573Y52913D01*
G01X99895Y51943D02*
G01X99250Y51943D01*
G01X100848Y56977D02*
G01X100848Y57947D01*
G01X100848Y56977D02*
G01X100525Y56977D01*
G01X100385Y57023D01*
G01X100294Y57114D01*
G01X100248Y57208D01*
G01X100200Y57345D01*
G01X100200Y57576D01*
G01X100248Y57716D01*
G01X100294Y57807D01*
G01X100385Y57899D01*
G01X100525Y57947D01*
G01X100848Y57947D01*
G01X99849Y57208D02*
G01X99849Y57162D01*
G01X99804Y57068D01*
G01X99758Y57023D01*
G01X99667Y56977D01*
G01X99481Y56977D01*
G01X99387Y57023D01*
G01X99341Y57068D01*
G01X99296Y57162D01*
G01X99296Y57254D01*
G01X99341Y57345D01*
G01X99435Y57485D01*
G01X99895Y57947D01*
G01X99250Y57947D01*
G01X100848Y59517D02*
G01X100848Y60487D01*
G01X100848Y59517D02*
G01X100525Y59517D01*
G01X100385Y59563D01*
G01X100294Y59654D01*
G01X100248Y59748D01*
G01X100200Y59885D01*
G01X100200Y60116D01*
G01X100248Y60256D01*
G01X100294Y60347D01*
G01X100385Y60439D01*
G01X100525Y60487D01*
G01X100848Y60487D01*
G01X99804Y59517D02*
G01X99296Y59517D01*
G01X99573Y59885D01*
G01X99435Y59885D01*
G01X99341Y59931D01*
G01X99296Y59979D01*
G01X99250Y60116D01*
G01X99250Y60210D01*
G01X99296Y60347D01*
G01X99387Y60439D01*
G01X99527Y60487D01*
G01X99667Y60487D01*
G01X99804Y60439D01*
G01X99849Y60393D01*
G01X99895Y60302D01*
G01X100893Y62057D02*
G01X100893Y63027D01*
G01X100893Y62057D02*
G01X100571Y62057D01*
G01X100431Y62103D01*
G01X100340Y62194D01*
G01X100294Y62288D01*
G01X100246Y62425D01*
G01X100246Y62656D01*
G01X100294Y62796D01*
G01X100340Y62887D01*
G01X100431Y62979D01*
G01X100571Y63027D01*
G01X100893Y63027D01*
G01X99481Y62057D02*
G01X99941Y62702D01*
G01X99250Y62702D01*
G01X99481Y62057D02*
G01X99481Y63027D01*
G01X100848Y64343D02*
G01X100848Y65313D01*
G01X100848Y64343D02*
G01X100525Y64343D01*
G01X100385Y64389D01*
G01X100294Y64480D01*
G01X100248Y64574D01*
G01X100200Y64711D01*
G01X100200Y64942D01*
G01X100248Y65082D01*
G01X100294Y65173D01*
G01X100385Y65265D01*
G01X100525Y65313D01*
G01X100848Y65313D01*
G01X99341Y64343D02*
G01X99804Y64343D01*
G01X99849Y64757D01*
G01X99804Y64711D01*
G01X99667Y64665D01*
G01X99527Y64665D01*
G01X99387Y64711D01*
G01X99296Y64805D01*
G01X99250Y64942D01*
G01X99250Y65036D01*
G01X99296Y65173D01*
G01X99387Y65265D01*
G01X99527Y65313D01*
G01X99667Y65313D01*
G01X99804Y65265D01*
G01X99849Y65219D01*
G01X99895Y65128D01*
G01X100802Y66883D02*
G01X100802Y67853D01*
G01X100802Y66883D02*
G01X100479Y66883D01*
G01X100340Y66929D01*
G01X100248Y67020D01*
G01X100203Y67114D01*
G01X100154Y67251D01*
G01X100154Y67482D01*
G01X100203Y67622D01*
G01X100248Y67713D01*
G01X100340Y67805D01*
G01X100479Y67853D01*
G01X100802Y67853D01*
G01X99296Y67020D02*
G01X99341Y66929D01*
G01X99481Y66883D01*
G01X99573Y66883D01*
G01X99712Y66929D01*
G01X99804Y67068D01*
G01X99849Y67297D01*
G01X99849Y67528D01*
G01X99804Y67713D01*
G01X99712Y67805D01*
G01X99573Y67853D01*
G01X99527Y67853D01*
G01X99390Y67805D01*
G01X99296Y67713D01*
G01X99250Y67576D01*
G01X99250Y67528D01*
G01X99296Y67391D01*
G01X99390Y67297D01*
G01X99527Y67251D01*
G01X99573Y67251D01*
G01X99712Y67297D01*
G01X99804Y67391D01*
G01X99849Y67528D01*
G01X100848Y69677D02*
G01X100848Y70647D01*
G01X100848Y69677D02*
G01X100525Y69677D01*
G01X100385Y69723D01*
G01X100294Y69814D01*
G01X100248Y69908D01*
G01X100200Y70045D01*
G01X100200Y70276D01*
G01X100248Y70416D01*
G01X100294Y70507D01*
G01X100385Y70599D01*
G01X100525Y70647D01*
G01X100848Y70647D01*
G01X99250Y69677D02*
G01X99712Y70647D01*
G01X99895Y69677D02*
G01X99250Y69677D01*
G01X100848Y71963D02*
G01X100848Y72933D01*
G01X100848Y71963D02*
G01X100525Y71963D01*
G01X100385Y72009D01*
G01X100294Y72100D01*
G01X100248Y72194D01*
G01X100200Y72331D01*
G01X100200Y72562D01*
G01X100248Y72702D01*
G01X100294Y72793D01*
G01X100385Y72885D01*
G01X100525Y72933D01*
G01X100848Y72933D01*
G01X99667Y71963D02*
G01X99804Y72009D01*
G01X99849Y72100D01*
G01X99849Y72194D01*
G01X99804Y72285D01*
G01X99712Y72331D01*
G01X99527Y72377D01*
G01X99387Y72425D01*
G01X99296Y72517D01*
G01X99250Y72608D01*
G01X99250Y72748D01*
G01X99296Y72839D01*
G01X99341Y72885D01*
G01X99481Y72933D01*
G01X99667Y72933D01*
G01X99804Y72885D01*
G01X99849Y72839D01*
G01X99895Y72748D01*
G01X99895Y72608D01*
G01X99849Y72517D01*
G01X99758Y72425D01*
G01X99618Y72377D01*
G01X99435Y72331D01*
G01X99341Y72285D01*
G01X99296Y72194D01*
G01X99296Y72100D01*
G01X99341Y72009D01*
G01X99481Y71963D01*
G01X99667Y71963D01*
G01X100802Y74503D02*
G01X100802Y75473D01*
G01X100802Y74503D02*
G01X100479Y74503D01*
G01X100340Y74549D01*
G01X100248Y74640D01*
G01X100203Y74734D01*
G01X100154Y74871D01*
G01X100154Y75102D01*
G01X100203Y75242D01*
G01X100248Y75333D01*
G01X100340Y75425D01*
G01X100479Y75473D01*
G01X100802Y75473D01*
G01X99250Y74825D02*
G01X99296Y74965D01*
G01X99390Y75057D01*
G01X99527Y75102D01*
G01X99573Y75102D01*
G01X99712Y75057D01*
G01X99804Y74965D01*
G01X99849Y74825D01*
G01X99849Y74780D01*
G01X99804Y74640D01*
G01X99712Y74549D01*
G01X99573Y74503D01*
G01X99527Y74503D01*
G01X99390Y74549D01*
G01X99296Y74640D01*
G01X99250Y74825D01*
G01X99250Y75057D01*
G01X99296Y75288D01*
G01X99390Y75425D01*
G01X99527Y75473D01*
G01X99621Y75473D01*
G01X99758Y75425D01*
G01X99804Y75333D01*
G01X101384Y77297D02*
G01X101384Y78267D01*
G01X101384Y77297D02*
G01X101061Y77297D01*
G01X100921Y77343D01*
G01X100830Y77434D01*
G01X100784Y77528D01*
G01X100736Y77665D01*
G01X100736Y77896D01*
G01X100784Y78036D01*
G01X100830Y78127D01*
G01X100921Y78219D01*
G01X101061Y78267D01*
G01X101384Y78267D01*
G01X100431Y77482D02*
G01X100340Y77434D01*
G01X100203Y77297D01*
G01X100203Y78267D01*
G01X99618Y77297D02*
G01X99758Y77343D01*
G01X99849Y77482D01*
G01X99898Y77711D01*
G01X99898Y77851D01*
G01X99849Y78082D01*
G01X99758Y78219D01*
G01X99618Y78267D01*
G01X99527Y78267D01*
G01X99390Y78219D01*
G01X99296Y78082D01*
G01X99250Y77851D01*
G01X99250Y77711D01*
G01X99296Y77482D01*
G01X99390Y77343D01*
G01X99527Y77297D01*
G01X99618Y77297D01*
G01X105448Y79583D02*
G01X105448Y80553D01*
G01X105448Y79583D02*
G01X105125Y79583D01*
G01X104985Y79629D01*
G01X104894Y79720D01*
G01X104848Y79814D01*
G01X104800Y79951D01*
G01X104800Y80182D01*
G01X104848Y80322D01*
G01X104894Y80413D01*
G01X104985Y80505D01*
G01X105125Y80553D01*
G01X105448Y80553D01*
G01X104495Y79768D02*
G01X104404Y79720D01*
G01X104267Y79583D01*
G01X104267Y80553D01*
G01X103962Y79768D02*
G01X103868Y79720D01*
G01X103731Y79583D01*
G01X103731Y80553D01*
G01X102593Y79397D02*
G01X103426Y80876D01*
G01X102288Y79583D02*
G01X102288Y80553D01*
G01X102288Y79583D02*
G01X101920Y80553D01*
G01X101549Y79583D02*
G01X101920Y80553D01*
G01X101549Y79583D02*
G01X101549Y80553D01*
G01X100967Y79583D02*
G01X101061Y79629D01*
G01X101152Y79720D01*
G01X101198Y79814D01*
G01X101244Y79951D01*
G01X101244Y80182D01*
G01X101198Y80322D01*
G01X101152Y80413D01*
G01X101061Y80505D01*
G01X100967Y80553D01*
G01X100784Y80553D01*
G01X100690Y80505D01*
G01X100599Y80413D01*
G01X100553Y80322D01*
G01X100507Y80182D01*
G01X100507Y79951D01*
G01X100553Y79814D01*
G01X100599Y79720D01*
G01X100690Y79629D01*
G01X100784Y79583D01*
G01X100967Y79583D01*
G01X99555Y79720D02*
G01X99646Y79629D01*
G01X99786Y79583D01*
G01X99971Y79583D01*
G01X100109Y79629D01*
G01X100203Y79720D01*
G01X100203Y79814D01*
G01X100154Y79905D01*
G01X100109Y79951D01*
G01X100017Y79997D01*
G01X99740Y80091D01*
G01X99646Y80137D01*
G01X99601Y80182D01*
G01X99555Y80276D01*
G01X99555Y80413D01*
G01X99646Y80505D01*
G01X99786Y80553D01*
G01X99971Y80553D01*
G01X100109Y80505D01*
G01X100203Y80413D01*
G01X99250Y79583D02*
G01X99250Y80553D01*
G01X78648Y80091D02*
G01X78140Y80091D01*
G01X78417Y80459D01*
G01X78277Y80459D01*
G01X78186Y80505D01*
G01X78140Y80553D01*
G01X78092Y80690D01*
G01X78092Y80784D01*
G01X78140Y80921D01*
G01X78232Y81013D01*
G01X78371Y81061D01*
G01X78508Y81061D01*
G01X78648Y81013D01*
G01X78694Y80967D01*
G01X78740Y80876D01*
G01X77787Y80091D02*
G01X77419Y81061D01*
G01X77050Y80091D02*
G01X77419Y81061D01*
G01X76652Y80091D02*
G01X76144Y80091D01*
G01X76420Y80459D01*
G01X76283Y80459D01*
G01X76189Y80505D01*
G01X76144Y80553D01*
G01X76098Y80690D01*
G01X76098Y80784D01*
G01X76144Y80921D01*
G01X76238Y81013D01*
G01X76375Y81061D01*
G01X76514Y81061D01*
G01X76652Y81013D01*
G01X76697Y80967D01*
G01X76746Y80876D01*
G01X78371Y77297D02*
G01X78740Y78267D01*
G01X78371Y77297D02*
G01X78000Y78267D01*
G01X78600Y77942D02*
G01X78140Y77942D01*
G01X77696Y77297D02*
G01X77696Y78267D01*
G01X77696Y77297D02*
G01X77279Y77297D01*
G01X77142Y77343D01*
G01X77096Y77388D01*
G01X77050Y77482D01*
G01X77050Y77574D01*
G01X77096Y77665D01*
G01X77142Y77711D01*
G01X77279Y77759D01*
G01X77696Y77759D01*
G01X77373Y77759D02*
G01X77050Y78267D01*
G01X76746Y77297D02*
G01X76746Y78267D01*
G01X76746Y77297D02*
G01X76144Y77297D01*
G01X76746Y77759D02*
G01X76375Y77759D01*
G01X76746Y78267D02*
G01X76144Y78267D01*
G01X75839Y77297D02*
G01X75839Y78267D01*
G01X75839Y77297D02*
G01X75239Y77297D01*
G01X75839Y77759D02*
G01X75471Y77759D01*
G01X78371Y75011D02*
G01X78740Y75981D01*
G01X78371Y75011D02*
G01X78000Y75981D01*
G01X78600Y75656D02*
G01X78140Y75656D01*
G01X77419Y75011D02*
G01X77558Y75057D01*
G01X77650Y75196D01*
G01X77696Y75425D01*
G01X77696Y75565D01*
G01X77650Y75796D01*
G01X77558Y75933D01*
G01X77419Y75981D01*
G01X77327Y75981D01*
G01X77188Y75933D01*
G01X77096Y75796D01*
G01X77050Y75565D01*
G01X77050Y75425D01*
G01X77096Y75196D01*
G01X77188Y75057D01*
G01X77327Y75011D01*
G01X77419Y75011D01*
G01X78371Y72217D02*
G01X78740Y73187D01*
G01X78371Y72217D02*
G01X78000Y73187D01*
G01X78600Y72862D02*
G01X78140Y72862D01*
G01X77696Y72402D02*
G01X77604Y72354D01*
G01X77464Y72217D01*
G01X77464Y73187D01*
G01X78371Y69931D02*
G01X78740Y70901D01*
G01X78371Y69931D02*
G01X78000Y70901D01*
G01X78600Y70576D02*
G01X78140Y70576D01*
G01X77650Y70162D02*
G01X77650Y70116D01*
G01X77604Y70022D01*
G01X77558Y69977D01*
G01X77464Y69931D01*
G01X77279Y69931D01*
G01X77188Y69977D01*
G01X77142Y70022D01*
G01X77096Y70116D01*
G01X77096Y70208D01*
G01X77142Y70299D01*
G01X77233Y70439D01*
G01X77696Y70901D01*
G01X77050Y70901D01*
G01X78371Y67137D02*
G01X78740Y68107D01*
G01X78371Y67137D02*
G01X78000Y68107D01*
G01X78600Y67782D02*
G01X78140Y67782D01*
G01X77604Y67137D02*
G01X77096Y67137D01*
G01X77373Y67505D01*
G01X77233Y67505D01*
G01X77142Y67551D01*
G01X77096Y67599D01*
G01X77050Y67736D01*
G01X77050Y67830D01*
G01X77096Y67967D01*
G01X77188Y68059D01*
G01X77327Y68107D01*
G01X77464Y68107D01*
G01X77604Y68059D01*
G01X77650Y68013D01*
G01X77696Y67922D01*
G01X78371Y64597D02*
G01X78740Y65567D01*
G01X78371Y64597D02*
G01X78000Y65567D01*
G01X78600Y65242D02*
G01X78140Y65242D01*
G01X77233Y64597D02*
G01X77696Y65242D01*
G01X77002Y65242D01*
G01X77233Y64597D02*
G01X77233Y65567D01*
G01X78371Y62057D02*
G01X78740Y63027D01*
G01X78371Y62057D02*
G01X78000Y63027D01*
G01X78600Y62702D02*
G01X78140Y62702D01*
G01X77142Y62057D02*
G01X77604Y62057D01*
G01X77650Y62471D01*
G01X77604Y62425D01*
G01X77464Y62379D01*
G01X77327Y62379D01*
G01X77188Y62425D01*
G01X77096Y62519D01*
G01X77050Y62656D01*
G01X77050Y62750D01*
G01X77096Y62887D01*
G01X77188Y62979D01*
G01X77327Y63027D01*
G01X77464Y63027D01*
G01X77604Y62979D01*
G01X77650Y62933D01*
G01X77696Y62842D01*
G01X78371Y59771D02*
G01X78740Y60741D01*
G01X78371Y59771D02*
G01X78000Y60741D01*
G01X78600Y60416D02*
G01X78140Y60416D01*
G01X77142Y59908D02*
G01X77188Y59817D01*
G01X77327Y59771D01*
G01X77419Y59771D01*
G01X77558Y59817D01*
G01X77650Y59956D01*
G01X77696Y60185D01*
G01X77696Y60416D01*
G01X77650Y60601D01*
G01X77558Y60693D01*
G01X77419Y60741D01*
G01X77373Y60741D01*
G01X77233Y60693D01*
G01X77142Y60601D01*
G01X77096Y60464D01*
G01X77096Y60416D01*
G01X77142Y60279D01*
G01X77233Y60185D01*
G01X77373Y60139D01*
G01X77419Y60139D01*
G01X77558Y60185D01*
G01X77650Y60279D01*
G01X77696Y60416D01*
G01X78371Y56977D02*
G01X78740Y57947D01*
G01X78371Y56977D02*
G01X78000Y57947D01*
G01X78600Y57622D02*
G01X78140Y57622D01*
G01X77050Y56977D02*
G01X77510Y57947D01*
G01X77696Y56977D02*
G01X77050Y56977D01*
G01X78740Y51897D02*
G01X78740Y52867D01*
G01X78740Y51897D02*
G01X78323Y51897D01*
G01X78186Y51943D01*
G01X78140Y51988D01*
G01X78092Y52082D01*
G01X78092Y52174D01*
G01X78140Y52265D01*
G01X78186Y52311D01*
G01X78323Y52359D01*
G01X78740Y52359D01*
G01X78417Y52359D02*
G01X78092Y52867D01*
G01X77787Y51897D02*
G01X77787Y52867D01*
G01X77787Y51897D02*
G01X77188Y51897D01*
G01X77787Y52359D02*
G01X77419Y52359D01*
G01X77787Y52867D02*
G01X77188Y52867D01*
G01X76238Y52034D02*
G01X76329Y51943D01*
G01X76466Y51897D01*
G01X76652Y51897D01*
G01X76791Y51943D01*
G01X76883Y52034D01*
G01X76883Y52128D01*
G01X76837Y52219D01*
G01X76791Y52265D01*
G01X76697Y52311D01*
G01X76420Y52405D01*
G01X76329Y52451D01*
G01X76283Y52496D01*
G01X76238Y52590D01*
G01X76238Y52727D01*
G01X76329Y52819D01*
G01X76466Y52867D01*
G01X76652Y52867D01*
G01X76791Y52819D01*
G01X76883Y52727D01*
G01X75933Y51897D02*
G01X75933Y52867D01*
G01X75933Y51897D02*
G01X75331Y51897D01*
G01X75933Y52359D02*
G01X75562Y52359D01*
G01X75933Y52867D02*
G01X75331Y52867D01*
G01X74703Y51897D02*
G01X74703Y52867D01*
G01X75026Y51897D02*
G01X74381Y51897D01*
G54D31*
G01X55808Y21236D02*
G01X55808Y20459D01*
G01X55858Y20302D01*
G01X55963Y20198D01*
G01X56120Y20147D01*
G01X56224Y20147D01*
G01X56379Y20198D01*
G01X56483Y20302D01*
G01X56534Y20459D01*
G01X56534Y21236D01*
G01X56930Y20977D02*
G01X56930Y21031D01*
G01X56981Y21135D01*
G01X57034Y21186D01*
G01X57139Y21236D01*
G01X57344Y21236D01*
G01X57448Y21186D01*
G01X57502Y21135D01*
G01X57553Y21031D01*
G01X57553Y20927D01*
G01X57502Y20822D01*
G01X57398Y20665D01*
G01X56877Y20147D01*
G01X57606Y20147D01*
G54D33*
G01X70049Y32715D02*
G01X69633Y33804D01*
G01X69219Y32715D02*
G01X69633Y33804D01*
G01X68096Y32974D02*
G01X68147Y32870D01*
G01X68251Y32766D01*
G01X68355Y32715D01*
G01X68563Y32715D01*
G01X68668Y32766D01*
G01X68772Y32870D01*
G01X68823Y32974D01*
G01X68876Y33129D01*
G01X68876Y33388D01*
G01X68823Y33545D01*
G01X68772Y33649D01*
G01X68668Y33754D01*
G01X68563Y33804D01*
G01X68355Y33804D01*
G01X68251Y33754D01*
G01X68147Y33649D01*
G01X68096Y33545D01*
G01X66973Y32974D02*
G01X67027Y32870D01*
G01X67128Y32766D01*
G01X67233Y32715D01*
G01X67441Y32715D01*
G01X67545Y32766D01*
G01X67649Y32870D01*
G01X67700Y32974D01*
G01X67753Y33129D01*
G01X67753Y33388D01*
G01X67700Y33545D01*
G01X67649Y33649D01*
G01X67545Y33754D01*
G01X67441Y33804D01*
G01X67233Y33804D01*
G01X67128Y33754D01*
G01X67027Y33649D01*
G01X66973Y33545D01*
G01X70049Y35214D02*
G01X70049Y36304D01*
G01X69323Y35214D02*
G01X70049Y35941D01*
G01X69790Y35681D02*
G01X69323Y36304D01*
G01X68980Y35214D02*
G01X68980Y36304D01*
G01X68980Y35214D02*
G01X68304Y35214D01*
G01X68980Y35732D02*
G01X68563Y35732D01*
G01X68980Y36304D02*
G01X68304Y36304D01*
G01X67962Y35214D02*
G01X67545Y35732D01*
G01X67545Y36304D01*
G01X67128Y35214D02*
G01X67545Y35732D01*
G01X69270Y30474D02*
G01X69323Y30370D01*
G01X69427Y30266D01*
G01X69529Y30215D01*
G01X69737Y30215D01*
G01X69841Y30266D01*
G01X69945Y30370D01*
G01X69999Y30474D01*
G01X70049Y30629D01*
G01X70049Y30888D01*
G01X69999Y31046D01*
G01X69945Y31150D01*
G01X69841Y31254D01*
G01X69737Y31305D01*
G01X69529Y31305D01*
G01X69427Y31254D01*
G01X69323Y31150D01*
G01X69270Y31046D01*
G01X69270Y30888D01*
G01X69529Y30888D02*
G01X69270Y30888D01*
G01X68927Y30215D02*
G01X68927Y31305D01*
G01X68927Y30215D02*
G01X68200Y31305D01*
G01X68200Y30215D02*
G01X68200Y31305D01*
G01X67857Y30215D02*
G01X67857Y31305D01*
G01X67857Y30215D02*
G01X67494Y30215D01*
G01X67337Y30266D01*
G01X67233Y30370D01*
G01X67182Y30474D01*
G01X67128Y30629D01*
G01X67128Y30888D01*
G01X67182Y31046D01*
G01X67233Y31150D01*
G01X67337Y31254D01*
G01X67494Y31305D01*
G01X67857Y31305D01*
G01X69686Y27713D02*
G01X69686Y28803D01*
G01X70049Y27713D02*
G01X69323Y27713D01*
G01X68980Y28077D02*
G01X68409Y28803D01*
G01X68409Y28077D02*
G01X68980Y28803D01*
G01X70049Y25214D02*
G01X70049Y26304D01*
G01X70049Y25214D02*
G01X69582Y25214D01*
G01X69427Y25265D01*
G01X69374Y25316D01*
G01X69323Y25420D01*
G01X69323Y25524D01*
G01X69374Y25628D01*
G01X69427Y25681D01*
G01X69582Y25732D01*
G01X70049Y25732D01*
G01X69686Y25732D02*
G01X69323Y26304D01*
G01X68980Y25577D02*
G01X68409Y26304D01*
G01X68409Y25577D02*
G01X68980Y26304D01*
G01X69323Y22870D02*
G01X69427Y22766D01*
G01X69582Y22715D01*
G01X69790Y22715D01*
G01X69945Y22766D01*
G01X70049Y22870D01*
G01X70049Y22974D01*
G01X69999Y23078D01*
G01X69945Y23129D01*
G01X69841Y23182D01*
G01X69529Y23286D01*
G01X69427Y23337D01*
G01X69374Y23388D01*
G01X69323Y23492D01*
G01X69323Y23649D01*
G01X69427Y23754D01*
G01X69582Y23804D01*
G01X69790Y23804D01*
G01X69945Y23754D01*
G01X70049Y23649D01*
G01X68614Y22715D02*
G01X68614Y23804D01*
G01X68980Y22715D02*
G01X68251Y22715D01*
G54D31*
G01X23341Y55323D02*
G01X23341Y54231D01*
G01X24067Y55323D02*
G01X23341Y54594D01*
G01X23600Y54856D02*
G01X24067Y54231D01*
G01X24514Y55323D02*
G01X25086Y55323D01*
G01X24776Y54907D01*
G01X24931Y54907D01*
G01X25035Y54856D01*
G01X25086Y54803D01*
G01X25139Y54648D01*
G01X25139Y54543D01*
G01X25086Y54386D01*
G01X24982Y54284D01*
G01X24827Y54231D01*
G01X24672Y54231D01*
G01X24514Y54284D01*
G01X24464Y54335D01*
G01X24410Y54439D01*
G01X46428Y66421D02*
G01X45339Y66421D01*
G01X46428Y66421D02*
G01X46428Y65953D01*
G01X46377Y65798D01*
G01X46327Y65745D01*
G01X46222Y65694D01*
G01X46118Y65694D01*
G01X46014Y65745D01*
G01X45961Y65798D01*
G01X45910Y65953D01*
G01X45910Y66421D02*
G01X45910Y65953D01*
G01X45857Y65798D01*
G01X45806Y65745D01*
G01X45702Y65694D01*
G01X45547Y65694D01*
G01X45443Y65745D01*
G01X45389Y65798D01*
G01X45339Y65953D01*
G01X45339Y66421D01*
G01X46169Y64571D02*
G01X46273Y64622D01*
G01X46377Y64726D01*
G01X46428Y64830D01*
G01X46428Y65039D01*
G01X46377Y65143D01*
G01X46273Y65247D01*
G01X46169Y65298D01*
G01X46014Y65351D01*
G01X45755Y65351D01*
G01X45598Y65298D01*
G01X45493Y65247D01*
G01X45389Y65143D01*
G01X45339Y65039D01*
G01X45339Y64830D01*
G01X45389Y64726D01*
G01X45493Y64622D01*
G01X45598Y64571D01*
G01X46428Y63604D02*
G01X46428Y64124D01*
G01X45961Y64175D01*
G01X46014Y64124D01*
G01X46065Y63969D01*
G01X46065Y63812D01*
G01X46014Y63657D01*
G01X45910Y63553D01*
G01X45755Y63500D01*
G01X45651Y63500D01*
G01X45493Y63553D01*
G01X45389Y63657D01*
G01X45339Y63812D01*
G01X45339Y63969D01*
G01X45389Y64124D01*
G01X45443Y64175D01*
G01X45547Y64229D01*
G01X46428Y62638D02*
G01X45702Y63157D01*
G01X45702Y62379D01*
G01X46428Y62638D02*
G01X45339Y62638D01*
G01X46428Y61308D02*
G01X45339Y61828D01*
G01X46428Y62036D02*
G01X46428Y61308D01*
G01X57508Y77724D02*
G01X58079Y77724D01*
G01X57767Y77310D01*
G01X57924Y77310D01*
G01X58026Y77256D01*
G01X58079Y77205D01*
G01X58130Y77050D01*
G01X58130Y76946D01*
G01X58079Y76789D01*
G01X57975Y76685D01*
G01X57820Y76634D01*
G01X57663Y76634D01*
G01X57508Y76685D01*
G01X57454Y76738D01*
G01X57404Y76842D01*
G01X58577Y77724D02*
G01X59148Y77724D01*
G01X58839Y77310D01*
G01X58994Y77310D01*
G01X59098Y77256D01*
G01X59148Y77205D01*
G01X59202Y77050D01*
G01X59202Y76946D01*
G01X59148Y76789D01*
G01X59044Y76685D01*
G01X58889Y76634D01*
G01X58734Y76634D01*
G01X58577Y76685D01*
G01X58526Y76738D01*
G01X58473Y76842D01*
G01X59855Y77724D02*
G01X59700Y77673D01*
G01X59596Y77518D01*
G01X59545Y77256D01*
G01X59545Y77101D01*
G01X59596Y76842D01*
G01X59700Y76685D01*
G01X59855Y76634D01*
G01X59959Y76634D01*
G01X60116Y76685D01*
G01X60220Y76842D01*
G01X60271Y77101D01*
G01X60271Y77256D01*
G01X60220Y77518D01*
G01X60116Y77673D01*
G01X59959Y77724D01*
G01X59855Y77724D01*
G01X68707Y75359D02*
G01X68811Y75410D01*
G01X68966Y75565D01*
G01X68966Y74475D01*
G01X69308Y75565D02*
G01X69308Y74475D01*
G01X69308Y75565D02*
G01X70037Y74475D01*
G01X70037Y75565D02*
G01X70037Y74475D01*
G01X70899Y75565D02*
G01X70380Y74838D01*
G01X71158Y74838D01*
G01X70899Y75565D02*
G01X70899Y74475D01*
G01X71813Y75565D02*
G01X71658Y75514D01*
G01X71554Y75359D01*
G01X71501Y75097D01*
G01X71501Y74942D01*
G01X71554Y74683D01*
G01X71658Y74526D01*
G01X71813Y74475D01*
G01X71917Y74475D01*
G01X72072Y74526D01*
G01X72176Y74683D01*
G01X72229Y74942D01*
G01X72229Y75097D01*
G01X72176Y75359D01*
G01X72072Y75514D01*
G01X71917Y75565D01*
G01X71813Y75565D01*
G01X72885Y75565D02*
G01X72727Y75514D01*
G01X72623Y75359D01*
G01X72572Y75097D01*
G01X72572Y74942D01*
G01X72623Y74683D01*
G01X72727Y74526D01*
G01X72885Y74475D01*
G01X72986Y74475D01*
G01X73144Y74526D01*
G01X73248Y74683D01*
G01X73299Y74942D01*
G01X73299Y75097D01*
G01X73248Y75359D01*
G01X73144Y75514D01*
G01X72986Y75565D01*
G01X72885Y75565D01*
G01X74371Y75565D02*
G01X73850Y74475D01*
G01X73642Y75565D02*
G01X74371Y75565D01*
G01X23341Y37543D02*
G01X23341Y36451D01*
G01X24067Y37543D02*
G01X23341Y36814D01*
G01X23600Y37076D02*
G01X24067Y36451D01*
G01X24931Y37543D02*
G01X24410Y36814D01*
G01X25190Y36814D01*
G01X24931Y37543D02*
G01X24931Y36451D01*
G01X46555Y58674D02*
G01X45466Y58674D01*
G01X46555Y58674D02*
G01X46555Y58206D01*
G01X46504Y58051D01*
G01X46454Y57998D01*
G01X46349Y57947D01*
G01X46245Y57947D01*
G01X46141Y57998D01*
G01X46088Y58051D01*
G01X46037Y58206D01*
G01X46037Y58674D02*
G01X46037Y58206D01*
G01X45984Y58051D01*
G01X45933Y57998D01*
G01X45829Y57947D01*
G01X45674Y57947D01*
G01X45570Y57998D01*
G01X45516Y58051D01*
G01X45466Y58206D01*
G01X45466Y58674D01*
G01X46296Y56824D02*
G01X46400Y56875D01*
G01X46504Y56979D01*
G01X46555Y57083D01*
G01X46555Y57292D01*
G01X46504Y57396D01*
G01X46400Y57500D01*
G01X46296Y57551D01*
G01X46141Y57604D01*
G01X45882Y57604D01*
G01X45725Y57551D01*
G01X45620Y57500D01*
G01X45516Y57396D01*
G01X45466Y57292D01*
G01X45466Y57083D01*
G01X45516Y56979D01*
G01X45620Y56875D01*
G01X45725Y56824D01*
G01X46555Y55857D02*
G01X46555Y56377D01*
G01X46088Y56428D01*
G01X46141Y56377D01*
G01X46192Y56222D01*
G01X46192Y56065D01*
G01X46141Y55910D01*
G01X46037Y55806D01*
G01X45882Y55753D01*
G01X45778Y55753D01*
G01X45620Y55806D01*
G01X45516Y55910D01*
G01X45466Y56065D01*
G01X45466Y56222D01*
G01X45516Y56377D01*
G01X45570Y56428D01*
G01X45674Y56482D01*
G01X46555Y54891D02*
G01X45829Y55410D01*
G01X45829Y54632D01*
G01X46555Y54891D02*
G01X45466Y54891D01*
G01X46555Y53561D02*
G01X45466Y54081D01*
G01X46555Y54289D02*
G01X46555Y53561D01*
G01X57508Y72644D02*
G01X58079Y72644D01*
G01X57767Y72230D01*
G01X57924Y72230D01*
G01X58026Y72176D01*
G01X58079Y72125D01*
G01X58130Y71970D01*
G01X58130Y71866D01*
G01X58079Y71709D01*
G01X57975Y71605D01*
G01X57820Y71554D01*
G01X57663Y71554D01*
G01X57508Y71605D01*
G01X57454Y71658D01*
G01X57404Y71762D01*
G01X58577Y72644D02*
G01X59148Y72644D01*
G01X58839Y72230D01*
G01X58994Y72230D01*
G01X59098Y72176D01*
G01X59148Y72125D01*
G01X59202Y71970D01*
G01X59202Y71866D01*
G01X59148Y71709D01*
G01X59044Y71605D01*
G01X58889Y71554D01*
G01X58734Y71554D01*
G01X58577Y71605D01*
G01X58526Y71658D01*
G01X58473Y71762D01*
G01X59855Y72644D02*
G01X59700Y72593D01*
G01X59596Y72438D01*
G01X59545Y72176D01*
G01X59545Y72021D01*
G01X59596Y71762D01*
G01X59700Y71605D01*
G01X59855Y71554D01*
G01X59959Y71554D01*
G01X60116Y71605D01*
G01X60220Y71762D01*
G01X60271Y72021D01*
G01X60271Y72176D01*
G01X60220Y72438D01*
G01X60116Y72593D01*
G01X59959Y72644D01*
G01X59855Y72644D01*
G01X68707Y70279D02*
G01X68811Y70330D01*
G01X68966Y70485D01*
G01X68966Y69395D01*
G01X69308Y70485D02*
G01X69308Y69395D01*
G01X69308Y70485D02*
G01X70037Y69395D01*
G01X70037Y70485D02*
G01X70037Y69395D01*
G01X70899Y70485D02*
G01X70380Y69758D01*
G01X71158Y69758D01*
G01X70899Y70485D02*
G01X70899Y69395D01*
G01X71813Y70485D02*
G01X71658Y70434D01*
G01X71554Y70279D01*
G01X71501Y70017D01*
G01X71501Y69862D01*
G01X71554Y69603D01*
G01X71658Y69446D01*
G01X71813Y69395D01*
G01X71917Y69395D01*
G01X72072Y69446D01*
G01X72176Y69603D01*
G01X72229Y69862D01*
G01X72229Y70017D01*
G01X72176Y70279D01*
G01X72072Y70434D01*
G01X71917Y70485D01*
G01X71813Y70485D01*
G01X72885Y70485D02*
G01X72727Y70434D01*
G01X72623Y70279D01*
G01X72572Y70017D01*
G01X72572Y69862D01*
G01X72623Y69603D01*
G01X72727Y69446D01*
G01X72885Y69395D01*
G01X72986Y69395D01*
G01X73144Y69446D01*
G01X73248Y69603D01*
G01X73299Y69862D01*
G01X73299Y70017D01*
G01X73248Y70279D01*
G01X73144Y70434D01*
G01X72986Y70485D01*
G01X72885Y70485D01*
G01X74371Y70485D02*
G01X73850Y69395D01*
G01X73642Y70485D02*
G01X74371Y70485D01*
G01X23341Y19763D02*
G01X23341Y18671D01*
G01X24067Y19763D02*
G01X23341Y19034D01*
G01X23600Y19296D02*
G01X24067Y18671D01*
G01X25035Y19763D02*
G01X24514Y19763D01*
G01X24464Y19296D01*
G01X24514Y19347D01*
G01X24672Y19397D01*
G01X24827Y19397D01*
G01X24982Y19347D01*
G01X25086Y19243D01*
G01X25139Y19088D01*
G01X25139Y18983D01*
G01X25086Y18826D01*
G01X24982Y18724D01*
G01X24827Y18671D01*
G01X24672Y18671D01*
G01X24514Y18724D01*
G01X24464Y18775D01*
G01X24410Y18879D01*
G01X46428Y51181D02*
G01X45339Y51181D01*
G01X46428Y51181D02*
G01X46428Y50713D01*
G01X46377Y50558D01*
G01X46327Y50505D01*
G01X46222Y50454D01*
G01X46118Y50454D01*
G01X46014Y50505D01*
G01X45961Y50558D01*
G01X45910Y50713D01*
G01X45910Y51181D02*
G01X45910Y50713D01*
G01X45857Y50558D01*
G01X45806Y50505D01*
G01X45702Y50454D01*
G01X45547Y50454D01*
G01X45443Y50505D01*
G01X45389Y50558D01*
G01X45339Y50713D01*
G01X45339Y51181D01*
G01X46169Y49331D02*
G01X46273Y49382D01*
G01X46377Y49486D01*
G01X46428Y49590D01*
G01X46428Y49799D01*
G01X46377Y49903D01*
G01X46273Y50007D01*
G01X46169Y50058D01*
G01X46014Y50111D01*
G01X45755Y50111D01*
G01X45598Y50058D01*
G01X45493Y50007D01*
G01X45389Y49903D01*
G01X45339Y49799D01*
G01X45339Y49590D01*
G01X45389Y49486D01*
G01X45493Y49382D01*
G01X45598Y49331D01*
G01X46428Y48364D02*
G01X46428Y48884D01*
G01X45961Y48935D01*
G01X46014Y48884D01*
G01X46065Y48729D01*
G01X46065Y48572D01*
G01X46014Y48417D01*
G01X45910Y48313D01*
G01X45755Y48260D01*
G01X45651Y48260D01*
G01X45493Y48313D01*
G01X45389Y48417D01*
G01X45339Y48572D01*
G01X45339Y48729D01*
G01X45389Y48884D01*
G01X45443Y48935D01*
G01X45547Y48989D01*
G01X46428Y47398D02*
G01X45702Y47917D01*
G01X45702Y47139D01*
G01X46428Y47398D02*
G01X45339Y47398D01*
G01X46428Y46068D02*
G01X45339Y46588D01*
G01X46428Y46796D02*
G01X46428Y46068D01*
G01X57508Y67564D02*
G01X58079Y67564D01*
G01X57767Y67150D01*
G01X57924Y67150D01*
G01X58026Y67096D01*
G01X58079Y67045D01*
G01X58130Y66890D01*
G01X58130Y66786D01*
G01X58079Y66629D01*
G01X57975Y66525D01*
G01X57820Y66474D01*
G01X57663Y66474D01*
G01X57508Y66525D01*
G01X57454Y66578D01*
G01X57404Y66682D01*
G01X58577Y67564D02*
G01X59148Y67564D01*
G01X58839Y67150D01*
G01X58994Y67150D01*
G01X59098Y67096D01*
G01X59148Y67045D01*
G01X59202Y66890D01*
G01X59202Y66786D01*
G01X59148Y66629D01*
G01X59044Y66525D01*
G01X58889Y66474D01*
G01X58734Y66474D01*
G01X58577Y66525D01*
G01X58526Y66578D01*
G01X58473Y66682D01*
G01X59855Y67564D02*
G01X59700Y67513D01*
G01X59596Y67358D01*
G01X59545Y67096D01*
G01X59545Y66941D01*
G01X59596Y66682D01*
G01X59700Y66525D01*
G01X59855Y66474D01*
G01X59959Y66474D01*
G01X60116Y66525D01*
G01X60220Y66682D01*
G01X60271Y66941D01*
G01X60271Y67096D01*
G01X60220Y67358D01*
G01X60116Y67513D01*
G01X59959Y67564D01*
G01X59855Y67564D01*
G01X68707Y65199D02*
G01X68811Y65250D01*
G01X68966Y65405D01*
G01X68966Y64315D01*
G01X69308Y65405D02*
G01X69308Y64315D01*
G01X69308Y65405D02*
G01X70037Y64315D01*
G01X70037Y65405D02*
G01X70037Y64315D01*
G01X70899Y65405D02*
G01X70380Y64678D01*
G01X71158Y64678D01*
G01X70899Y65405D02*
G01X70899Y64315D01*
G01X71813Y65405D02*
G01X71658Y65354D01*
G01X71554Y65199D01*
G01X71501Y64937D01*
G01X71501Y64782D01*
G01X71554Y64523D01*
G01X71658Y64366D01*
G01X71813Y64315D01*
G01X71917Y64315D01*
G01X72072Y64366D01*
G01X72176Y64523D01*
G01X72229Y64782D01*
G01X72229Y64937D01*
G01X72176Y65199D01*
G01X72072Y65354D01*
G01X71917Y65405D01*
G01X71813Y65405D01*
G01X72885Y65405D02*
G01X72727Y65354D01*
G01X72623Y65199D01*
G01X72572Y64937D01*
G01X72572Y64782D01*
G01X72623Y64523D01*
G01X72727Y64366D01*
G01X72885Y64315D01*
G01X72986Y64315D01*
G01X73144Y64366D01*
G01X73248Y64523D01*
G01X73299Y64782D01*
G01X73299Y64937D01*
G01X73248Y65199D01*
G01X73144Y65354D01*
G01X72986Y65405D01*
G01X72885Y65405D01*
G01X74371Y65405D02*
G01X73850Y64315D01*
G01X73642Y65405D02*
G01X74371Y65405D01*
G01X111913Y2948D02*
G01X111913Y1855D01*
G01X112639Y2948D02*
G01X111913Y2219D01*
G01X112172Y2480D02*
G01X112639Y1855D01*
G01X113607Y2790D02*
G01X113554Y2894D01*
G01X113399Y2948D01*
G01X113295Y2948D01*
G01X113140Y2894D01*
G01X113036Y2739D01*
G01X112982Y2480D01*
G01X112982Y2219D01*
G01X113036Y2010D01*
G01X113140Y1909D01*
G01X113295Y1855D01*
G01X113348Y1855D01*
G01X113503Y1909D01*
G01X113607Y2010D01*
G01X113658Y2168D01*
G01X113658Y2219D01*
G01X113607Y2376D01*
G01X113503Y2480D01*
G01X113348Y2531D01*
G01X113295Y2531D01*
G01X113140Y2480D01*
G01X113036Y2376D01*
G01X112982Y2219D01*
G01X38087Y81788D02*
G01X36997Y81788D01*
G01X38087Y81788D02*
G01X38087Y81320D01*
G01X38036Y81165D01*
G01X37985Y81112D01*
G01X37881Y81061D01*
G01X37777Y81061D01*
G01X37673Y81112D01*
G01X37620Y81165D01*
G01X37569Y81320D01*
G01X37569Y81788D02*
G01X37569Y81320D01*
G01X37515Y81165D01*
G01X37465Y81112D01*
G01X37360Y81061D01*
G01X37206Y81061D01*
G01X37101Y81112D01*
G01X37048Y81165D01*
G01X36997Y81320D01*
G01X36997Y81788D01*
G01X37828Y79938D02*
G01X37932Y79989D01*
G01X38036Y80093D01*
G01X38087Y80197D01*
G01X38087Y80406D01*
G01X38036Y80510D01*
G01X37932Y80614D01*
G01X37828Y80665D01*
G01X37673Y80718D01*
G01X37414Y80718D01*
G01X37256Y80665D01*
G01X37152Y80614D01*
G01X37048Y80510D01*
G01X36997Y80406D01*
G01X36997Y80197D01*
G01X37048Y80093D01*
G01X37152Y79989D01*
G01X37256Y79938D01*
G01X38087Y78971D02*
G01X38087Y79491D01*
G01X37620Y79542D01*
G01X37673Y79491D01*
G01X37724Y79336D01*
G01X37724Y79179D01*
G01X37673Y79024D01*
G01X37569Y78920D01*
G01X37414Y78867D01*
G01X37310Y78867D01*
G01X37152Y78920D01*
G01X37048Y79024D01*
G01X36997Y79179D01*
G01X36997Y79336D01*
G01X37048Y79491D01*
G01X37101Y79542D01*
G01X37206Y79595D01*
G01X38087Y78005D02*
G01X37360Y78524D01*
G01X37360Y77746D01*
G01X38087Y78005D02*
G01X36997Y78005D01*
G01X38087Y76674D02*
G01X36997Y77195D01*
G01X38087Y77403D02*
G01X38087Y76674D01*
G01X57508Y62484D02*
G01X58079Y62484D01*
G01X57767Y62070D01*
G01X57924Y62070D01*
G01X58026Y62016D01*
G01X58079Y61965D01*
G01X58130Y61810D01*
G01X58130Y61706D01*
G01X58079Y61549D01*
G01X57975Y61445D01*
G01X57820Y61394D01*
G01X57663Y61394D01*
G01X57508Y61445D01*
G01X57454Y61498D01*
G01X57404Y61602D01*
G01X58577Y62484D02*
G01X59148Y62484D01*
G01X58839Y62070D01*
G01X58994Y62070D01*
G01X59098Y62016D01*
G01X59148Y61965D01*
G01X59202Y61810D01*
G01X59202Y61706D01*
G01X59148Y61549D01*
G01X59044Y61445D01*
G01X58889Y61394D01*
G01X58734Y61394D01*
G01X58577Y61445D01*
G01X58526Y61498D01*
G01X58473Y61602D01*
G01X59855Y62484D02*
G01X59700Y62433D01*
G01X59596Y62278D01*
G01X59545Y62016D01*
G01X59545Y61861D01*
G01X59596Y61602D01*
G01X59700Y61445D01*
G01X59855Y61394D01*
G01X59959Y61394D01*
G01X60116Y61445D01*
G01X60220Y61602D01*
G01X60271Y61861D01*
G01X60271Y62016D01*
G01X60220Y62278D01*
G01X60116Y62433D01*
G01X59959Y62484D01*
G01X59855Y62484D01*
G01X68707Y60119D02*
G01X68811Y60170D01*
G01X68966Y60325D01*
G01X68966Y59235D01*
G01X69308Y60325D02*
G01X69308Y59235D01*
G01X69308Y60325D02*
G01X70037Y59235D01*
G01X70037Y60325D02*
G01X70037Y59235D01*
G01X70899Y60325D02*
G01X70380Y59598D01*
G01X71158Y59598D01*
G01X70899Y60325D02*
G01X70899Y59235D01*
G01X71813Y60325D02*
G01X71658Y60274D01*
G01X71554Y60119D01*
G01X71501Y59857D01*
G01X71501Y59702D01*
G01X71554Y59443D01*
G01X71658Y59286D01*
G01X71813Y59235D01*
G01X71917Y59235D01*
G01X72072Y59286D01*
G01X72176Y59443D01*
G01X72229Y59702D01*
G01X72229Y59857D01*
G01X72176Y60119D01*
G01X72072Y60274D01*
G01X71917Y60325D01*
G01X71813Y60325D01*
G01X72885Y60325D02*
G01X72727Y60274D01*
G01X72623Y60119D01*
G01X72572Y59857D01*
G01X72572Y59702D01*
G01X72623Y59443D01*
G01X72727Y59286D01*
G01X72885Y59235D01*
G01X72986Y59235D01*
G01X73144Y59286D01*
G01X73248Y59443D01*
G01X73299Y59702D01*
G01X73299Y59857D01*
G01X73248Y60119D01*
G01X73144Y60274D01*
G01X72986Y60325D01*
G01X72885Y60325D01*
G01X74371Y60325D02*
G01X73850Y59235D01*
G01X73642Y60325D02*
G01X74371Y60325D01*
G01X111913Y20728D02*
G01X111913Y19635D01*
G01X112639Y20728D02*
G01X111913Y19999D01*
G01X112172Y20260D02*
G01X112639Y19635D01*
G01X113711Y20728D02*
G01X113191Y19635D01*
G01X112982Y20728D02*
G01X113711Y20728D01*
G01X38300Y74041D02*
G01X37211Y74041D01*
G01X38300Y74041D02*
G01X38300Y73573D01*
G01X38249Y73418D01*
G01X38199Y73365D01*
G01X38094Y73314D01*
G01X37990Y73314D01*
G01X37886Y73365D01*
G01X37833Y73418D01*
G01X37782Y73573D01*
G01X37782Y74041D02*
G01X37782Y73573D01*
G01X37729Y73418D01*
G01X37678Y73365D01*
G01X37574Y73314D01*
G01X37419Y73314D01*
G01X37315Y73365D01*
G01X37261Y73418D01*
G01X37211Y73573D01*
G01X37211Y74041D01*
G01X38041Y72191D02*
G01X38145Y72242D01*
G01X38249Y72346D01*
G01X38300Y72450D01*
G01X38300Y72659D01*
G01X38249Y72763D01*
G01X38145Y72867D01*
G01X38041Y72918D01*
G01X37886Y72971D01*
G01X37627Y72971D01*
G01X37470Y72918D01*
G01X37365Y72867D01*
G01X37261Y72763D01*
G01X37211Y72659D01*
G01X37211Y72450D01*
G01X37261Y72346D01*
G01X37365Y72242D01*
G01X37470Y72191D01*
G01X38300Y71224D02*
G01X38300Y71744D01*
G01X37833Y71795D01*
G01X37886Y71744D01*
G01X37937Y71589D01*
G01X37937Y71432D01*
G01X37886Y71277D01*
G01X37782Y71173D01*
G01X37627Y71120D01*
G01X37523Y71120D01*
G01X37365Y71173D01*
G01X37261Y71277D01*
G01X37211Y71432D01*
G01X37211Y71589D01*
G01X37261Y71744D01*
G01X37315Y71795D01*
G01X37419Y71849D01*
G01X38300Y70258D02*
G01X37574Y70777D01*
G01X37574Y69999D01*
G01X38300Y70258D02*
G01X37211Y70258D01*
G01X38300Y68928D02*
G01X37211Y69448D01*
G01X38300Y69656D02*
G01X38300Y68928D01*
G01X57508Y57404D02*
G01X58079Y57404D01*
G01X57767Y56990D01*
G01X57924Y56990D01*
G01X58026Y56936D01*
G01X58079Y56885D01*
G01X58130Y56730D01*
G01X58130Y56626D01*
G01X58079Y56469D01*
G01X57975Y56365D01*
G01X57820Y56314D01*
G01X57663Y56314D01*
G01X57508Y56365D01*
G01X57454Y56418D01*
G01X57404Y56522D01*
G01X58577Y57404D02*
G01X59148Y57404D01*
G01X58839Y56990D01*
G01X58994Y56990D01*
G01X59098Y56936D01*
G01X59148Y56885D01*
G01X59202Y56730D01*
G01X59202Y56626D01*
G01X59148Y56469D01*
G01X59044Y56365D01*
G01X58889Y56314D01*
G01X58734Y56314D01*
G01X58577Y56365D01*
G01X58526Y56418D01*
G01X58473Y56522D01*
G01X59855Y57404D02*
G01X59700Y57353D01*
G01X59596Y57198D01*
G01X59545Y56936D01*
G01X59545Y56781D01*
G01X59596Y56522D01*
G01X59700Y56365D01*
G01X59855Y56314D01*
G01X59959Y56314D01*
G01X60116Y56365D01*
G01X60220Y56522D01*
G01X60271Y56781D01*
G01X60271Y56936D01*
G01X60220Y57198D01*
G01X60116Y57353D01*
G01X59959Y57404D01*
G01X59855Y57404D01*
G01X68834Y55039D02*
G01X68938Y55090D01*
G01X69093Y55245D01*
G01X69093Y54155D01*
G01X69435Y55245D02*
G01X69435Y54155D01*
G01X69435Y55245D02*
G01X70164Y54155D01*
G01X70164Y55245D02*
G01X70164Y54155D01*
G01X71026Y55245D02*
G01X70507Y54518D01*
G01X71285Y54518D01*
G01X71026Y55245D02*
G01X71026Y54155D01*
G01X71940Y55245D02*
G01X71785Y55194D01*
G01X71681Y55039D01*
G01X71628Y54777D01*
G01X71628Y54622D01*
G01X71681Y54363D01*
G01X71785Y54206D01*
G01X71940Y54155D01*
G01X72044Y54155D01*
G01X72199Y54206D01*
G01X72303Y54363D01*
G01X72356Y54622D01*
G01X72356Y54777D01*
G01X72303Y55039D01*
G01X72199Y55194D01*
G01X72044Y55245D01*
G01X71940Y55245D01*
G01X73012Y55245D02*
G01X72854Y55194D01*
G01X72750Y55039D01*
G01X72699Y54777D01*
G01X72699Y54622D01*
G01X72750Y54363D01*
G01X72854Y54206D01*
G01X73012Y54155D01*
G01X73113Y54155D01*
G01X73271Y54206D01*
G01X73375Y54363D01*
G01X73426Y54622D01*
G01X73426Y54777D01*
G01X73375Y55039D01*
G01X73271Y55194D01*
G01X73113Y55245D01*
G01X73012Y55245D01*
G01X74498Y55245D02*
G01X73977Y54155D01*
G01X73769Y55245D02*
G01X74498Y55245D01*
G01X111913Y38508D02*
G01X111913Y37415D01*
G01X112639Y38508D02*
G01X111913Y37779D01*
G01X112172Y38040D02*
G01X112639Y37415D01*
G01X113244Y38508D02*
G01X113086Y38454D01*
G01X113036Y38350D01*
G01X113036Y38246D01*
G01X113086Y38142D01*
G01X113191Y38091D01*
G01X113399Y38040D01*
G01X113554Y37987D01*
G01X113658Y37883D01*
G01X113711Y37779D01*
G01X113711Y37624D01*
G01X113658Y37519D01*
G01X113607Y37469D01*
G01X113450Y37415D01*
G01X113244Y37415D01*
G01X113086Y37469D01*
G01X113036Y37519D01*
G01X112982Y37624D01*
G01X112982Y37779D01*
G01X113036Y37883D01*
G01X113140Y37987D01*
G01X113295Y38040D01*
G01X113503Y38091D01*
G01X113607Y38142D01*
G01X113658Y38246D01*
G01X113658Y38350D01*
G01X113607Y38454D01*
G01X113450Y38508D01*
G01X113244Y38508D01*
G01X38173Y66294D02*
G01X37084Y66294D01*
G01X38173Y66294D02*
G01X38173Y65826D01*
G01X38122Y65671D01*
G01X38072Y65618D01*
G01X37967Y65567D01*
G01X37863Y65567D01*
G01X37759Y65618D01*
G01X37706Y65671D01*
G01X37655Y65826D01*
G01X37655Y66294D02*
G01X37655Y65826D01*
G01X37602Y65671D01*
G01X37551Y65618D01*
G01X37447Y65567D01*
G01X37292Y65567D01*
G01X37188Y65618D01*
G01X37134Y65671D01*
G01X37084Y65826D01*
G01X37084Y66294D01*
G01X37914Y64444D02*
G01X38018Y64495D01*
G01X38122Y64599D01*
G01X38173Y64703D01*
G01X38173Y64912D01*
G01X38122Y65016D01*
G01X38018Y65120D01*
G01X37914Y65171D01*
G01X37759Y65224D01*
G01X37500Y65224D01*
G01X37343Y65171D01*
G01X37238Y65120D01*
G01X37134Y65016D01*
G01X37084Y64912D01*
G01X37084Y64703D01*
G01X37134Y64599D01*
G01X37238Y64495D01*
G01X37343Y64444D01*
G01X38173Y63477D02*
G01X38173Y63997D01*
G01X37706Y64048D01*
G01X37759Y63997D01*
G01X37810Y63842D01*
G01X37810Y63685D01*
G01X37759Y63530D01*
G01X37655Y63426D01*
G01X37500Y63373D01*
G01X37396Y63373D01*
G01X37238Y63426D01*
G01X37134Y63530D01*
G01X37084Y63685D01*
G01X37084Y63842D01*
G01X37134Y63997D01*
G01X37188Y64048D01*
G01X37292Y64101D01*
G01X38173Y62511D02*
G01X37447Y63030D01*
G01X37447Y62252D01*
G01X38173Y62511D02*
G01X37084Y62511D01*
G01X38173Y61180D02*
G01X37084Y61701D01*
G01X38173Y61909D02*
G01X38173Y61180D01*
G01X57508Y52324D02*
G01X58079Y52324D01*
G01X57767Y51910D01*
G01X57924Y51910D01*
G01X58026Y51856D01*
G01X58079Y51805D01*
G01X58130Y51650D01*
G01X58130Y51546D01*
G01X58079Y51389D01*
G01X57975Y51285D01*
G01X57820Y51234D01*
G01X57663Y51234D01*
G01X57508Y51285D01*
G01X57454Y51338D01*
G01X57404Y51442D01*
G01X58577Y52324D02*
G01X59148Y52324D01*
G01X58839Y51910D01*
G01X58994Y51910D01*
G01X59098Y51856D01*
G01X59148Y51805D01*
G01X59202Y51650D01*
G01X59202Y51546D01*
G01X59148Y51389D01*
G01X59044Y51285D01*
G01X58889Y51234D01*
G01X58734Y51234D01*
G01X58577Y51285D01*
G01X58526Y51338D01*
G01X58473Y51442D01*
G01X59855Y52324D02*
G01X59700Y52273D01*
G01X59596Y52118D01*
G01X59545Y51856D01*
G01X59545Y51701D01*
G01X59596Y51442D01*
G01X59700Y51285D01*
G01X59855Y51234D01*
G01X59959Y51234D01*
G01X60116Y51285D01*
G01X60220Y51442D01*
G01X60271Y51701D01*
G01X60271Y51856D01*
G01X60220Y52118D01*
G01X60116Y52273D01*
G01X59959Y52324D01*
G01X59855Y52324D01*
G01X68834Y49959D02*
G01X68938Y50010D01*
G01X69093Y50165D01*
G01X69093Y49075D01*
G01X69435Y50165D02*
G01X69435Y49075D01*
G01X69435Y50165D02*
G01X70164Y49075D01*
G01X70164Y50165D02*
G01X70164Y49075D01*
G01X71026Y50165D02*
G01X70507Y49438D01*
G01X71285Y49438D01*
G01X71026Y50165D02*
G01X71026Y49075D01*
G01X71940Y50165D02*
G01X71785Y50114D01*
G01X71681Y49959D01*
G01X71628Y49697D01*
G01X71628Y49542D01*
G01X71681Y49283D01*
G01X71785Y49126D01*
G01X71940Y49075D01*
G01X72044Y49075D01*
G01X72199Y49126D01*
G01X72303Y49283D01*
G01X72356Y49542D01*
G01X72356Y49697D01*
G01X72303Y49959D01*
G01X72199Y50114D01*
G01X72044Y50165D01*
G01X71940Y50165D01*
G01X73012Y50165D02*
G01X72854Y50114D01*
G01X72750Y49959D01*
G01X72699Y49697D01*
G01X72699Y49542D01*
G01X72750Y49283D01*
G01X72854Y49126D01*
G01X73012Y49075D01*
G01X73113Y49075D01*
G01X73271Y49126D01*
G01X73375Y49283D01*
G01X73426Y49542D01*
G01X73426Y49697D01*
G01X73375Y49959D01*
G01X73271Y50114D01*
G01X73113Y50165D01*
G01X73012Y50165D01*
G01X74498Y50165D02*
G01X73977Y49075D01*
G01X73769Y50165D02*
G01X74498Y50165D01*
G01X11224Y47256D02*
G01X12054Y47256D01*
G01X12209Y47203D01*
G01X12263Y47152D01*
G01X12313Y47048D01*
G01X12313Y46944D01*
G01X12263Y46840D01*
G01X12209Y46786D01*
G01X12054Y46736D01*
G01X11950Y46736D01*
G01X11224Y48221D02*
G01X11224Y47701D01*
G01X11691Y47650D01*
G01X11638Y47701D01*
G01X11587Y47858D01*
G01X11587Y48013D01*
G01X11638Y48171D01*
G01X11742Y48272D01*
G01X11897Y48326D01*
G01X12001Y48326D01*
G01X12158Y48272D01*
G01X12263Y48171D01*
G01X12313Y48013D01*
G01X12313Y47858D01*
G01X12263Y47701D01*
G01X12209Y47650D01*
G01X12105Y47599D01*
G01X2385Y44221D02*
G01X2420Y44152D01*
G01X2524Y44048D01*
G01X1795Y44048D01*
G01X11097Y29476D02*
G01X11927Y29476D01*
G01X12082Y29423D01*
G01X12136Y29372D01*
G01X12186Y29268D01*
G01X12186Y29164D01*
G01X12136Y29060D01*
G01X12082Y29006D01*
G01X11927Y28956D01*
G01X11823Y28956D01*
G01X11252Y30441D02*
G01X11148Y30391D01*
G01X11097Y30233D01*
G01X11097Y30129D01*
G01X11148Y29974D01*
G01X11303Y29870D01*
G01X11564Y29819D01*
G01X11823Y29819D01*
G01X12031Y29870D01*
G01X12136Y29974D01*
G01X12186Y30129D01*
G01X12186Y30182D01*
G01X12136Y30337D01*
G01X12031Y30441D01*
G01X11874Y30492D01*
G01X11823Y30492D01*
G01X11668Y30441D01*
G01X11564Y30337D01*
G01X11511Y30182D01*
G01X11511Y30129D01*
G01X11564Y29974D01*
G01X11668Y29870D01*
G01X11823Y29819D01*
G01X2258Y26441D02*
G01X2293Y26372D01*
G01X2397Y26268D01*
G01X1668Y26268D01*
G01X11097Y11696D02*
G01X11927Y11696D01*
G01X12082Y11643D01*
G01X12136Y11592D01*
G01X12186Y11488D01*
G01X12186Y11384D01*
G01X12136Y11280D01*
G01X12082Y11226D01*
G01X11927Y11176D01*
G01X11823Y11176D01*
G01X11097Y12766D02*
G01X12186Y12245D01*
G01X11097Y12039D02*
G01X11097Y12766D01*
G01X2258Y8661D02*
G01X2293Y8592D01*
G01X2397Y8488D01*
G01X1668Y8488D01*
G01X122532Y10807D02*
G01X123362Y10807D01*
G01X123517Y10754D01*
G01X123571Y10703D01*
G01X123621Y10599D01*
G01X123621Y10495D01*
G01X123571Y10391D01*
G01X123517Y10337D01*
G01X123362Y10287D01*
G01X123258Y10287D01*
G01X122532Y11409D02*
G01X122582Y11252D01*
G01X122687Y11201D01*
G01X122791Y11201D01*
G01X122895Y11252D01*
G01X122946Y11356D01*
G01X122999Y11564D01*
G01X123050Y11722D01*
G01X123154Y11823D01*
G01X123258Y11877D01*
G01X123413Y11877D01*
G01X123517Y11823D01*
G01X123571Y11772D01*
G01X123621Y11617D01*
G01X123621Y11409D01*
G01X123571Y11252D01*
G01X123517Y11201D01*
G01X123413Y11150D01*
G01X123258Y11150D01*
G01X123154Y11201D01*
G01X123050Y11305D01*
G01X122999Y11460D01*
G01X122946Y11668D01*
G01X122895Y11772D01*
G01X122791Y11823D01*
G01X122687Y11823D01*
G01X122582Y11772D01*
G01X122532Y11617D01*
G01X122532Y11409D01*
G01X132615Y12801D02*
G01X132580Y12870D01*
G01X132476Y12974D01*
G01X133205Y12974D01*
G01X122405Y28460D02*
G01X123235Y28460D01*
G01X123390Y28407D01*
G01X123444Y28356D01*
G01X123494Y28252D01*
G01X123494Y28148D01*
G01X123444Y28044D01*
G01X123390Y27990D01*
G01X123235Y27940D01*
G01X123131Y27940D01*
G01X122768Y29476D02*
G01X122923Y29425D01*
G01X123027Y29321D01*
G01X123078Y29166D01*
G01X123078Y29113D01*
G01X123027Y28958D01*
G01X122923Y28854D01*
G01X122768Y28803D01*
G01X122715Y28803D01*
G01X122560Y28854D01*
G01X122455Y28958D01*
G01X122405Y29113D01*
G01X122405Y29166D01*
G01X122455Y29321D01*
G01X122560Y29425D01*
G01X122768Y29476D01*
G01X123027Y29476D01*
G01X123286Y29425D01*
G01X123444Y29321D01*
G01X123494Y29166D01*
G01X123494Y29062D01*
G01X123444Y28905D01*
G01X123339Y28854D01*
G01X132488Y30454D02*
G01X132453Y30523D01*
G01X132349Y30627D01*
G01X133078Y30627D01*
G01X122405Y46494D02*
G01X123235Y46494D01*
G01X123390Y46441D01*
G01X123444Y46390D01*
G01X123494Y46286D01*
G01X123494Y46182D01*
G01X123444Y46078D01*
G01X123390Y46024D01*
G01X123235Y45974D01*
G01X123131Y45974D01*
G01X122610Y46837D02*
G01X122560Y46939D01*
G01X122405Y47096D01*
G01X123494Y47096D01*
G01X122405Y47752D02*
G01X122455Y47594D01*
G01X122610Y47490D01*
G01X122872Y47439D01*
G01X123027Y47439D01*
G01X123286Y47490D01*
G01X123444Y47594D01*
G01X123494Y47752D01*
G01X123494Y47853D01*
G01X123444Y48011D01*
G01X123286Y48115D01*
G01X123027Y48166D01*
G01X122872Y48166D01*
G01X122610Y48115D01*
G01X122455Y48011D01*
G01X122405Y47853D01*
G01X122405Y47752D01*
G01X132488Y48488D02*
G01X132453Y48557D01*
G01X132349Y48661D01*
G01X133078Y48661D01*
G01X23341Y90883D02*
G01X23341Y89791D01*
G01X24067Y90883D02*
G01X23341Y90154D01*
G01X23600Y90416D02*
G01X24067Y89791D01*
G01X24410Y90675D02*
G01X24514Y90726D01*
G01X24672Y90883D01*
G01X24672Y89791D01*
G01X46428Y81915D02*
G01X45339Y81915D01*
G01X46428Y81915D02*
G01X46428Y81447D01*
G01X46377Y81292D01*
G01X46327Y81239D01*
G01X46222Y81188D01*
G01X46118Y81188D01*
G01X46014Y81239D01*
G01X45961Y81292D01*
G01X45910Y81447D01*
G01X45910Y81915D02*
G01X45910Y81447D01*
G01X45857Y81292D01*
G01X45806Y81239D01*
G01X45702Y81188D01*
G01X45547Y81188D01*
G01X45443Y81239D01*
G01X45389Y81292D01*
G01X45339Y81447D01*
G01X45339Y81915D01*
G01X46169Y80065D02*
G01X46273Y80116D01*
G01X46377Y80220D01*
G01X46428Y80324D01*
G01X46428Y80533D01*
G01X46377Y80637D01*
G01X46273Y80741D01*
G01X46169Y80792D01*
G01X46014Y80845D01*
G01X45755Y80845D01*
G01X45598Y80792D01*
G01X45493Y80741D01*
G01X45389Y80637D01*
G01X45339Y80533D01*
G01X45339Y80324D01*
G01X45389Y80220D01*
G01X45493Y80116D01*
G01X45598Y80065D01*
G01X46428Y79098D02*
G01X46428Y79618D01*
G01X45961Y79669D01*
G01X46014Y79618D01*
G01X46065Y79463D01*
G01X46065Y79306D01*
G01X46014Y79151D01*
G01X45910Y79047D01*
G01X45755Y78994D01*
G01X45651Y78994D01*
G01X45493Y79047D01*
G01X45389Y79151D01*
G01X45339Y79306D01*
G01X45339Y79463D01*
G01X45389Y79618D01*
G01X45443Y79669D01*
G01X45547Y79723D01*
G01X46428Y78132D02*
G01X45702Y78651D01*
G01X45702Y77873D01*
G01X46428Y78132D02*
G01X45339Y78132D01*
G01X46428Y76802D02*
G01X45339Y77322D01*
G01X46428Y77530D02*
G01X46428Y76802D01*
G01X57508Y87871D02*
G01X58079Y87871D01*
G01X57767Y87457D01*
G01X57924Y87457D01*
G01X58026Y87403D01*
G01X58079Y87353D01*
G01X58130Y87198D01*
G01X58130Y87094D01*
G01X58079Y86936D01*
G01X57975Y86832D01*
G01X57820Y86781D01*
G01X57663Y86781D01*
G01X57508Y86832D01*
G01X57454Y86885D01*
G01X57404Y86989D01*
G01X58577Y87871D02*
G01X59148Y87871D01*
G01X58839Y87457D01*
G01X58994Y87457D01*
G01X59098Y87403D01*
G01X59148Y87353D01*
G01X59202Y87198D01*
G01X59202Y87094D01*
G01X59148Y86936D01*
G01X59044Y86832D01*
G01X58889Y86781D01*
G01X58734Y86781D01*
G01X58577Y86832D01*
G01X58526Y86885D01*
G01X58473Y86989D01*
G01X59855Y87871D02*
G01X59700Y87820D01*
G01X59596Y87665D01*
G01X59545Y87403D01*
G01X59545Y87249D01*
G01X59596Y86989D01*
G01X59700Y86832D01*
G01X59855Y86781D01*
G01X59959Y86781D01*
G01X60116Y86832D01*
G01X60220Y86989D01*
G01X60271Y87249D01*
G01X60271Y87403D01*
G01X60220Y87665D01*
G01X60116Y87820D01*
G01X59959Y87871D01*
G01X59855Y87871D01*
G01X68707Y85519D02*
G01X68811Y85570D01*
G01X68966Y85725D01*
G01X68966Y84635D01*
G01X69308Y85725D02*
G01X69308Y84635D01*
G01X69308Y85725D02*
G01X70037Y84635D01*
G01X70037Y85725D02*
G01X70037Y84635D01*
G01X70899Y85725D02*
G01X70380Y84998D01*
G01X71158Y84998D01*
G01X70899Y85725D02*
G01X70899Y84635D01*
G01X71813Y85725D02*
G01X71658Y85674D01*
G01X71554Y85519D01*
G01X71501Y85257D01*
G01X71501Y85102D01*
G01X71554Y84843D01*
G01X71658Y84686D01*
G01X71813Y84635D01*
G01X71917Y84635D01*
G01X72072Y84686D01*
G01X72176Y84843D01*
G01X72229Y85102D01*
G01X72229Y85257D01*
G01X72176Y85519D01*
G01X72072Y85674D01*
G01X71917Y85725D01*
G01X71813Y85725D01*
G01X72885Y85725D02*
G01X72727Y85674D01*
G01X72623Y85519D01*
G01X72572Y85257D01*
G01X72572Y85102D01*
G01X72623Y84843D01*
G01X72727Y84686D01*
G01X72885Y84635D01*
G01X72986Y84635D01*
G01X73144Y84686D01*
G01X73248Y84843D01*
G01X73299Y85102D01*
G01X73299Y85257D01*
G01X73248Y85519D01*
G01X73144Y85674D01*
G01X72986Y85725D01*
G01X72885Y85725D01*
G01X74371Y85725D02*
G01X73850Y84635D01*
G01X73642Y85725D02*
G01X74371Y85725D01*
G01X23341Y73103D02*
G01X23341Y72011D01*
G01X24067Y73103D02*
G01X23341Y72374D01*
G01X23600Y72636D02*
G01X24067Y72011D01*
G01X24464Y72842D02*
G01X24464Y72895D01*
G01X24514Y72999D01*
G01X24568Y73050D01*
G01X24672Y73103D01*
G01X24878Y73103D01*
G01X24982Y73050D01*
G01X25035Y72999D01*
G01X25086Y72895D01*
G01X25086Y72791D01*
G01X25035Y72687D01*
G01X24931Y72532D01*
G01X24410Y72011D01*
G01X25139Y72011D01*
G01X46555Y73914D02*
G01X45466Y73914D01*
G01X46555Y73914D02*
G01X46555Y73446D01*
G01X46504Y73291D01*
G01X46454Y73238D01*
G01X46349Y73187D01*
G01X46245Y73187D01*
G01X46141Y73238D01*
G01X46088Y73291D01*
G01X46037Y73446D01*
G01X46037Y73914D02*
G01X46037Y73446D01*
G01X45984Y73291D01*
G01X45933Y73238D01*
G01X45829Y73187D01*
G01X45674Y73187D01*
G01X45570Y73238D01*
G01X45516Y73291D01*
G01X45466Y73446D01*
G01X45466Y73914D01*
G01X46296Y72064D02*
G01X46400Y72115D01*
G01X46504Y72219D01*
G01X46555Y72323D01*
G01X46555Y72532D01*
G01X46504Y72636D01*
G01X46400Y72740D01*
G01X46296Y72791D01*
G01X46141Y72844D01*
G01X45882Y72844D01*
G01X45725Y72791D01*
G01X45620Y72740D01*
G01X45516Y72636D01*
G01X45466Y72532D01*
G01X45466Y72323D01*
G01X45516Y72219D01*
G01X45620Y72115D01*
G01X45725Y72064D01*
G01X46555Y71097D02*
G01X46555Y71617D01*
G01X46088Y71668D01*
G01X46141Y71617D01*
G01X46192Y71462D01*
G01X46192Y71305D01*
G01X46141Y71150D01*
G01X46037Y71046D01*
G01X45882Y70993D01*
G01X45778Y70993D01*
G01X45620Y71046D01*
G01X45516Y71150D01*
G01X45466Y71305D01*
G01X45466Y71462D01*
G01X45516Y71617D01*
G01X45570Y71668D01*
G01X45674Y71722D01*
G01X46555Y70131D02*
G01X45829Y70650D01*
G01X45829Y69872D01*
G01X46555Y70131D02*
G01X45466Y70131D01*
G01X46555Y68801D02*
G01X45466Y69321D01*
G01X46555Y69529D02*
G01X46555Y68801D01*
G01X57508Y82804D02*
G01X58079Y82804D01*
G01X57767Y82390D01*
G01X57924Y82390D01*
G01X58026Y82336D01*
G01X58079Y82285D01*
G01X58130Y82130D01*
G01X58130Y82026D01*
G01X58079Y81869D01*
G01X57975Y81765D01*
G01X57820Y81714D01*
G01X57663Y81714D01*
G01X57508Y81765D01*
G01X57454Y81818D01*
G01X57404Y81922D01*
G01X58577Y82804D02*
G01X59148Y82804D01*
G01X58839Y82390D01*
G01X58994Y82390D01*
G01X59098Y82336D01*
G01X59148Y82285D01*
G01X59202Y82130D01*
G01X59202Y82026D01*
G01X59148Y81869D01*
G01X59044Y81765D01*
G01X58889Y81714D01*
G01X58734Y81714D01*
G01X58577Y81765D01*
G01X58526Y81818D01*
G01X58473Y81922D01*
G01X59855Y82804D02*
G01X59700Y82753D01*
G01X59596Y82598D01*
G01X59545Y82336D01*
G01X59545Y82181D01*
G01X59596Y81922D01*
G01X59700Y81765D01*
G01X59855Y81714D01*
G01X59959Y81714D01*
G01X60116Y81765D01*
G01X60220Y81922D01*
G01X60271Y82181D01*
G01X60271Y82336D01*
G01X60220Y82598D01*
G01X60116Y82753D01*
G01X59959Y82804D01*
G01X59855Y82804D01*
G01X68707Y80439D02*
G01X68811Y80490D01*
G01X68966Y80645D01*
G01X68966Y79555D01*
G01X69308Y80645D02*
G01X69308Y79555D01*
G01X69308Y80645D02*
G01X70037Y79555D01*
G01X70037Y80645D02*
G01X70037Y79555D01*
G01X70899Y80645D02*
G01X70380Y79918D01*
G01X71158Y79918D01*
G01X70899Y80645D02*
G01X70899Y79555D01*
G01X71813Y80645D02*
G01X71658Y80594D01*
G01X71554Y80439D01*
G01X71501Y80177D01*
G01X71501Y80022D01*
G01X71554Y79763D01*
G01X71658Y79606D01*
G01X71813Y79555D01*
G01X71917Y79555D01*
G01X72072Y79606D01*
G01X72176Y79763D01*
G01X72229Y80022D01*
G01X72229Y80177D01*
G01X72176Y80439D01*
G01X72072Y80594D01*
G01X71917Y80645D01*
G01X71813Y80645D01*
G01X72885Y80645D02*
G01X72727Y80594D01*
G01X72623Y80439D01*
G01X72572Y80177D01*
G01X72572Y80022D01*
G01X72623Y79763D01*
G01X72727Y79606D01*
G01X72885Y79555D01*
G01X72986Y79555D01*
G01X73144Y79606D01*
G01X73248Y79763D01*
G01X73299Y80022D01*
G01X73299Y80177D01*
G01X73248Y80439D01*
G01X73144Y80594D01*
G01X72986Y80645D01*
G01X72885Y80645D01*
G01X74371Y80645D02*
G01X73850Y79555D01*
G01X73642Y80645D02*
G01X74371Y80645D01*
G01X111913Y56288D02*
G01X111913Y55195D01*
G01X112639Y56288D02*
G01X111913Y55559D01*
G01X112172Y55820D02*
G01X112639Y55195D01*
G01X113658Y55922D02*
G01X113607Y55767D01*
G01X113503Y55663D01*
G01X113348Y55612D01*
G01X113295Y55612D01*
G01X113140Y55663D01*
G01X113036Y55767D01*
G01X112982Y55922D01*
G01X112982Y55975D01*
G01X113036Y56130D01*
G01X113140Y56234D01*
G01X113295Y56288D01*
G01X113348Y56288D01*
G01X113503Y56234D01*
G01X113607Y56130D01*
G01X113658Y55922D01*
G01X113658Y55663D01*
G01X113607Y55404D01*
G01X113503Y55249D01*
G01X113348Y55195D01*
G01X113244Y55195D01*
G01X113086Y55249D01*
G01X113036Y55350D01*
G01X38173Y58674D02*
G01X37084Y58674D01*
G01X38173Y58674D02*
G01X38173Y58206D01*
G01X38122Y58051D01*
G01X38072Y57998D01*
G01X37967Y57947D01*
G01X37863Y57947D01*
G01X37759Y57998D01*
G01X37706Y58051D01*
G01X37655Y58206D01*
G01X37655Y58674D02*
G01X37655Y58206D01*
G01X37602Y58051D01*
G01X37551Y57998D01*
G01X37447Y57947D01*
G01X37292Y57947D01*
G01X37188Y57998D01*
G01X37134Y58051D01*
G01X37084Y58206D01*
G01X37084Y58674D01*
G01X37914Y56824D02*
G01X38018Y56875D01*
G01X38122Y56979D01*
G01X38173Y57083D01*
G01X38173Y57292D01*
G01X38122Y57396D01*
G01X38018Y57500D01*
G01X37914Y57551D01*
G01X37759Y57604D01*
G01X37500Y57604D01*
G01X37343Y57551D01*
G01X37238Y57500D01*
G01X37134Y57396D01*
G01X37084Y57292D01*
G01X37084Y57083D01*
G01X37134Y56979D01*
G01X37238Y56875D01*
G01X37343Y56824D01*
G01X38173Y55857D02*
G01X38173Y56377D01*
G01X37706Y56428D01*
G01X37759Y56377D01*
G01X37810Y56222D01*
G01X37810Y56065D01*
G01X37759Y55910D01*
G01X37655Y55806D01*
G01X37500Y55753D01*
G01X37396Y55753D01*
G01X37238Y55806D01*
G01X37134Y55910D01*
G01X37084Y56065D01*
G01X37084Y56222D01*
G01X37134Y56377D01*
G01X37188Y56428D01*
G01X37292Y56481D01*
G01X38173Y54891D02*
G01X37447Y55410D01*
G01X37447Y54632D01*
G01X38173Y54891D02*
G01X37084Y54891D01*
G01X38173Y53560D02*
G01X37084Y54081D01*
G01X38173Y54289D02*
G01X38173Y53560D01*
G01X57508Y47244D02*
G01X58079Y47244D01*
G01X57767Y46830D01*
G01X57924Y46830D01*
G01X58026Y46776D01*
G01X58079Y46725D01*
G01X58130Y46570D01*
G01X58130Y46466D01*
G01X58079Y46309D01*
G01X57975Y46205D01*
G01X57820Y46154D01*
G01X57663Y46154D01*
G01X57508Y46205D01*
G01X57454Y46258D01*
G01X57404Y46362D01*
G01X58577Y47244D02*
G01X59148Y47244D01*
G01X58839Y46830D01*
G01X58994Y46830D01*
G01X59098Y46776D01*
G01X59148Y46725D01*
G01X59202Y46570D01*
G01X59202Y46466D01*
G01X59148Y46309D01*
G01X59044Y46205D01*
G01X58889Y46154D01*
G01X58734Y46154D01*
G01X58577Y46205D01*
G01X58526Y46258D01*
G01X58473Y46362D01*
G01X59855Y47244D02*
G01X59700Y47193D01*
G01X59596Y47038D01*
G01X59545Y46776D01*
G01X59545Y46621D01*
G01X59596Y46362D01*
G01X59700Y46205D01*
G01X59855Y46154D01*
G01X59959Y46154D01*
G01X60116Y46205D01*
G01X60220Y46362D01*
G01X60271Y46621D01*
G01X60271Y46776D01*
G01X60220Y47038D01*
G01X60116Y47193D01*
G01X59959Y47244D01*
G01X59855Y47244D01*
G01X68707Y44752D02*
G01X68811Y44803D01*
G01X68966Y44958D01*
G01X68966Y43868D01*
G01X69308Y44958D02*
G01X69308Y43868D01*
G01X69308Y44958D02*
G01X70037Y43868D01*
G01X70037Y44958D02*
G01X70037Y43868D01*
G01X70899Y44958D02*
G01X70380Y44231D01*
G01X71158Y44231D01*
G01X70899Y44958D02*
G01X70899Y43868D01*
G01X71813Y44958D02*
G01X71658Y44907D01*
G01X71554Y44752D01*
G01X71501Y44490D01*
G01X71501Y44335D01*
G01X71554Y44076D01*
G01X71658Y43919D01*
G01X71813Y43868D01*
G01X71917Y43868D01*
G01X72072Y43919D01*
G01X72176Y44076D01*
G01X72229Y44335D01*
G01X72229Y44490D01*
G01X72176Y44752D01*
G01X72072Y44907D01*
G01X71917Y44958D01*
G01X71813Y44958D01*
G01X72885Y44958D02*
G01X72727Y44907D01*
G01X72623Y44752D01*
G01X72572Y44490D01*
G01X72572Y44335D01*
G01X72623Y44076D01*
G01X72727Y43919D01*
G01X72885Y43868D01*
G01X72986Y43868D01*
G01X73144Y43919D01*
G01X73248Y44076D01*
G01X73299Y44335D01*
G01X73299Y44490D01*
G01X73248Y44752D01*
G01X73144Y44907D01*
G01X72986Y44958D01*
G01X72885Y44958D01*
G01X74371Y44958D02*
G01X73850Y43868D01*
G01X73642Y44958D02*
G01X74371Y44958D01*
G01X111913Y74068D02*
G01X111913Y72975D01*
G01X112639Y74068D02*
G01X111913Y73339D01*
G01X112172Y73600D02*
G01X112639Y72975D01*
G01X112982Y73859D02*
G01X113086Y73910D01*
G01X113244Y74068D01*
G01X113244Y72975D01*
G01X113897Y74068D02*
G01X113742Y74014D01*
G01X113638Y73859D01*
G01X113587Y73600D01*
G01X113587Y73443D01*
G01X113638Y73184D01*
G01X113742Y73029D01*
G01X113897Y72975D01*
G01X114001Y72975D01*
G01X114158Y73029D01*
G01X114262Y73184D01*
G01X114313Y73443D01*
G01X114313Y73600D01*
G01X114262Y73859D01*
G01X114158Y74014D01*
G01X114001Y74068D01*
G01X113897Y74068D01*
G01X38173Y51181D02*
G01X37084Y51181D01*
G01X38173Y51181D02*
G01X38173Y50713D01*
G01X38122Y50558D01*
G01X38072Y50505D01*
G01X37967Y50454D01*
G01X37863Y50454D01*
G01X37759Y50505D01*
G01X37706Y50558D01*
G01X37655Y50713D01*
G01X37655Y51181D02*
G01X37655Y50713D01*
G01X37602Y50558D01*
G01X37551Y50505D01*
G01X37447Y50454D01*
G01X37292Y50454D01*
G01X37188Y50505D01*
G01X37134Y50558D01*
G01X37084Y50713D01*
G01X37084Y51181D01*
G01X37914Y49331D02*
G01X38018Y49382D01*
G01X38122Y49486D01*
G01X38173Y49590D01*
G01X38173Y49799D01*
G01X38122Y49903D01*
G01X38018Y50007D01*
G01X37914Y50058D01*
G01X37759Y50111D01*
G01X37500Y50111D01*
G01X37343Y50058D01*
G01X37238Y50007D01*
G01X37134Y49903D01*
G01X37084Y49799D01*
G01X37084Y49590D01*
G01X37134Y49486D01*
G01X37238Y49382D01*
G01X37343Y49331D01*
G01X38173Y48364D02*
G01X38173Y48884D01*
G01X37706Y48935D01*
G01X37759Y48884D01*
G01X37810Y48729D01*
G01X37810Y48572D01*
G01X37759Y48417D01*
G01X37655Y48313D01*
G01X37500Y48260D01*
G01X37396Y48260D01*
G01X37238Y48313D01*
G01X37134Y48417D01*
G01X37084Y48572D01*
G01X37084Y48729D01*
G01X37134Y48884D01*
G01X37188Y48935D01*
G01X37292Y48989D01*
G01X38173Y47398D02*
G01X37447Y47917D01*
G01X37447Y47139D01*
G01X38173Y47398D02*
G01X37084Y47398D01*
G01X38173Y46068D02*
G01X37084Y46588D01*
G01X38173Y46796D02*
G01X38173Y46068D01*
G01X57508Y42164D02*
G01X58079Y42164D01*
G01X57767Y41750D01*
G01X57924Y41750D01*
G01X58026Y41696D01*
G01X58079Y41645D01*
G01X58130Y41490D01*
G01X58130Y41386D01*
G01X58079Y41229D01*
G01X57975Y41125D01*
G01X57820Y41074D01*
G01X57663Y41074D01*
G01X57508Y41125D01*
G01X57454Y41178D01*
G01X57404Y41282D01*
G01X58577Y42164D02*
G01X59148Y42164D01*
G01X58839Y41750D01*
G01X58994Y41750D01*
G01X59098Y41696D01*
G01X59148Y41645D01*
G01X59202Y41490D01*
G01X59202Y41386D01*
G01X59148Y41229D01*
G01X59044Y41125D01*
G01X58889Y41074D01*
G01X58734Y41074D01*
G01X58577Y41125D01*
G01X58526Y41178D01*
G01X58473Y41282D01*
G01X59855Y42164D02*
G01X59700Y42113D01*
G01X59596Y41958D01*
G01X59545Y41696D01*
G01X59545Y41541D01*
G01X59596Y41282D01*
G01X59700Y41125D01*
G01X59855Y41074D01*
G01X59959Y41074D01*
G01X60116Y41125D01*
G01X60220Y41282D01*
G01X60271Y41541D01*
G01X60271Y41696D01*
G01X60220Y41958D01*
G01X60116Y42113D01*
G01X59959Y42164D01*
G01X59855Y42164D01*
G01X68707Y39672D02*
G01X68811Y39723D01*
G01X68966Y39878D01*
G01X68966Y38788D01*
G01X69308Y39878D02*
G01X69308Y38788D01*
G01X69308Y39878D02*
G01X70037Y38788D01*
G01X70037Y39878D02*
G01X70037Y38788D01*
G01X70899Y39878D02*
G01X70380Y39151D01*
G01X71158Y39151D01*
G01X70899Y39878D02*
G01X70899Y38788D01*
G01X71813Y39878D02*
G01X71658Y39827D01*
G01X71554Y39672D01*
G01X71501Y39410D01*
G01X71501Y39255D01*
G01X71554Y38996D01*
G01X71658Y38839D01*
G01X71813Y38788D01*
G01X71917Y38788D01*
G01X72072Y38839D01*
G01X72176Y38996D01*
G01X72229Y39255D01*
G01X72229Y39410D01*
G01X72176Y39672D01*
G01X72072Y39827D01*
G01X71917Y39878D01*
G01X71813Y39878D01*
G01X72885Y39878D02*
G01X72727Y39827D01*
G01X72623Y39672D01*
G01X72572Y39410D01*
G01X72572Y39255D01*
G01X72623Y38996D01*
G01X72727Y38839D01*
G01X72885Y38788D01*
G01X72986Y38788D01*
G01X73144Y38839D01*
G01X73248Y38996D01*
G01X73299Y39255D01*
G01X73299Y39410D01*
G01X73248Y39672D01*
G01X73144Y39827D01*
G01X72986Y39878D01*
G01X72885Y39878D01*
G01X74371Y39878D02*
G01X73850Y38788D01*
G01X73642Y39878D02*
G01X74371Y39878D01*
G01X11224Y82816D02*
G01X12054Y82816D01*
G01X12209Y82763D01*
G01X12263Y82712D01*
G01X12313Y82608D01*
G01X12313Y82504D01*
G01X12263Y82400D01*
G01X12209Y82346D01*
G01X12054Y82296D01*
G01X11950Y82296D01*
G01X11430Y83159D02*
G01X11379Y83261D01*
G01X11224Y83418D01*
G01X12313Y83418D01*
G01X2385Y79781D02*
G01X2420Y79712D01*
G01X2524Y79608D01*
G01X1795Y79608D01*
G01X11224Y65036D02*
G01X12054Y65036D01*
G01X12209Y64983D01*
G01X12263Y64932D01*
G01X12313Y64828D01*
G01X12313Y64724D01*
G01X12263Y64620D01*
G01X12209Y64566D01*
G01X12054Y64516D01*
G01X11950Y64516D01*
G01X11483Y65430D02*
G01X11430Y65430D01*
G01X11325Y65481D01*
G01X11275Y65534D01*
G01X11224Y65638D01*
G01X11224Y65846D01*
G01X11275Y65951D01*
G01X11325Y66001D01*
G01X11430Y66052D01*
G01X11534Y66052D01*
G01X11638Y66001D01*
G01X11795Y65897D01*
G01X12313Y65379D01*
G01X12313Y66106D01*
G01X2385Y62001D02*
G01X2420Y61932D01*
G01X2524Y61828D01*
G01X1795Y61828D01*
G01X122405Y64020D02*
G01X123235Y64020D01*
G01X123390Y63967D01*
G01X123444Y63916D01*
G01X123494Y63812D01*
G01X123494Y63708D01*
G01X123444Y63604D01*
G01X123390Y63550D01*
G01X123235Y63500D01*
G01X123131Y63500D01*
G01X122405Y64465D02*
G01X122405Y65036D01*
G01X122819Y64726D01*
G01X122819Y64881D01*
G01X122872Y64985D01*
G01X122923Y65036D01*
G01X123078Y65090D01*
G01X123182Y65090D01*
G01X123339Y65036D01*
G01X123444Y64935D01*
G01X123494Y64777D01*
G01X123494Y64622D01*
G01X123444Y64465D01*
G01X123390Y64414D01*
G01X123286Y64363D01*
G01X132488Y66014D02*
G01X132453Y66083D01*
G01X132349Y66187D01*
G01X133078Y66187D01*
G01X122405Y81927D02*
G01X123235Y81927D01*
G01X123390Y81874D01*
G01X123444Y81823D01*
G01X123494Y81719D01*
G01X123494Y81615D01*
G01X123444Y81511D01*
G01X123390Y81457D01*
G01X123235Y81407D01*
G01X123131Y81407D01*
G01X122405Y82788D02*
G01X123131Y82270D01*
G01X123131Y83047D01*
G01X122405Y82788D02*
G01X123494Y82788D01*
G01X132488Y83921D02*
G01X132453Y83990D01*
G01X132349Y84094D01*
G01X133078Y84094D01*
G01X85471Y20828D02*
G01X85471Y19738D01*
G01X85471Y19738D02*
G01X86093Y19738D01*
G01X86436Y20828D02*
G01X86436Y19738D01*
G01X86436Y20828D02*
G01X86852Y19738D01*
G01X87269Y20828D02*
G01X86852Y19738D01*
G01X87269Y20828D02*
G01X87269Y19738D01*
G01X88338Y20828D02*
G01X87820Y19738D01*
G01X87612Y20828D02*
G01X88338Y20828D01*
G01X88940Y20828D02*
G01X88785Y20777D01*
G01X88734Y20673D01*
G01X88734Y20568D01*
G01X88785Y20464D01*
G01X88889Y20413D01*
G01X89098Y20360D01*
G01X89253Y20309D01*
G01X89357Y20205D01*
G01X89408Y20101D01*
G01X89408Y19946D01*
G01X89357Y19842D01*
G01X89306Y19789D01*
G01X89148Y19738D01*
G01X88940Y19738D01*
G01X88785Y19789D01*
G01X88734Y19842D01*
G01X88681Y19946D01*
G01X88681Y20101D01*
G01X88734Y20205D01*
G01X88836Y20309D01*
G01X88993Y20360D01*
G01X89202Y20413D01*
G01X89306Y20464D01*
G01X89357Y20568D01*
G01X89357Y20673D01*
G01X89306Y20777D01*
G01X89148Y20828D01*
G01X88940Y20828D01*
G01X90063Y20828D02*
G01X89908Y20777D01*
G01X89804Y20622D01*
G01X89750Y20360D01*
G01X89750Y20205D01*
G01X89804Y19946D01*
G01X89908Y19789D01*
G01X90063Y19738D01*
G01X90167Y19738D01*
G01X90322Y19789D01*
G01X90426Y19946D01*
G01X90479Y20205D01*
G01X90479Y20360D01*
G01X90426Y20622D01*
G01X90322Y20777D01*
G01X90167Y20828D01*
G01X90063Y20828D01*
G01X91445Y20828D02*
G01X90926Y20828D01*
G01X90873Y20360D01*
G01X90926Y20413D01*
G01X91081Y20464D01*
G01X91236Y20464D01*
G01X91394Y20413D01*
G01X91498Y20309D01*
G01X91549Y20154D01*
G01X91549Y20050D01*
G01X91498Y19893D01*
G01X91394Y19789D01*
G01X91236Y19738D01*
G01X91081Y19738D01*
G01X90926Y19789D01*
G01X90873Y19842D01*
G01X90822Y19946D01*
G01X46228Y1953D02*
G01X46332Y2004D01*
G01X46487Y2158D01*
G01X46487Y1069D01*
G01X46883Y1899D02*
G01X46883Y1953D01*
G01X46934Y2057D01*
G01X46987Y2108D01*
G01X47091Y2158D01*
G01X47297Y2158D01*
G01X47401Y2108D01*
G01X47454Y2057D01*
G01X47505Y1953D01*
G01X47505Y1849D01*
G01X47454Y1744D01*
G01X47350Y1587D01*
G01X46829Y1069D01*
G01X47558Y1069D01*
G01X47901Y2158D02*
G01X48315Y1069D01*
G01X48732Y2158D02*
G01X48315Y1069D01*
G01X39903Y11584D02*
G01X39834Y11549D01*
G01X39730Y11445D01*
G01X39730Y12174D01*
G01X74155Y2285D02*
G01X73637Y2285D01*
G01X73583Y1818D01*
G01X73637Y1871D01*
G01X73792Y1922D01*
G01X73949Y1922D01*
G01X74104Y1871D01*
G01X74208Y1767D01*
G01X74259Y1612D01*
G01X74259Y1508D01*
G01X74208Y1351D01*
G01X74104Y1247D01*
G01X73949Y1196D01*
G01X73792Y1196D01*
G01X73637Y1247D01*
G01X73583Y1300D01*
G01X73533Y1404D01*
G01X74602Y2285D02*
G01X75018Y1196D01*
G01X75435Y2285D02*
G01X75018Y1196D01*
G01X66827Y11711D02*
G01X66758Y11676D01*
G01X66654Y11572D01*
G01X66654Y12301D01*
G01X89916Y2667D02*
G01X89916Y1577D01*
G01X89916Y2667D02*
G01X90330Y1577D01*
G01X90746Y2667D02*
G01X90330Y1577D01*
G01X90746Y2667D02*
G01X90746Y1577D01*
G01X91089Y2667D02*
G01X91089Y1577D01*
G01X92212Y2407D02*
G01X92158Y2512D01*
G01X92057Y2616D01*
G01X91953Y2667D01*
G01X91744Y2667D01*
G01X91640Y2616D01*
G01X91536Y2512D01*
G01X91485Y2407D01*
G01X91432Y2252D01*
G01X91432Y1993D01*
G01X91485Y1836D01*
G01X91536Y1732D01*
G01X91640Y1628D01*
G01X91744Y1577D01*
G01X91953Y1577D01*
G01X92057Y1628D01*
G01X92158Y1732D01*
G01X92212Y1836D01*
G01X92555Y2667D02*
G01X92555Y1577D01*
G01X92555Y2667D02*
G01X93022Y2667D01*
G01X93177Y2616D01*
G01X93230Y2565D01*
G01X93281Y2461D01*
G01X93281Y2357D01*
G01X93230Y2252D01*
G01X93177Y2199D01*
G01X93022Y2148D01*
G01X92555Y2148D01*
G01X92918Y2148D02*
G01X93281Y1577D01*
G01X93936Y2667D02*
G01X93832Y2616D01*
G01X93728Y2512D01*
G01X93677Y2407D01*
G01X93624Y2252D01*
G01X93624Y1993D01*
G01X93677Y1836D01*
G01X93728Y1732D01*
G01X93832Y1628D01*
G01X93936Y1577D01*
G01X94145Y1577D01*
G01X94249Y1628D01*
G01X94353Y1732D01*
G01X94404Y1836D01*
G01X94457Y1993D01*
G01X94457Y2252D01*
G01X94404Y2407D01*
G01X94353Y2512D01*
G01X94249Y2616D01*
G01X94145Y2667D01*
G01X93936Y2667D01*
G01X94800Y1214D02*
G01X95735Y1214D01*
G01X96078Y2667D02*
G01X96078Y1889D01*
G01X96128Y1732D01*
G01X96233Y1628D01*
G01X96387Y1577D01*
G01X96492Y1577D01*
G01X96649Y1628D01*
G01X96753Y1732D01*
G01X96804Y1889D01*
G01X96804Y2667D01*
G01X97873Y2512D02*
G01X97772Y2616D01*
G01X97614Y2667D01*
G01X97406Y2667D01*
G01X97251Y2616D01*
G01X97147Y2512D01*
G01X97147Y2407D01*
G01X97200Y2303D01*
G01X97251Y2252D01*
G01X97355Y2199D01*
G01X97668Y2095D01*
G01X97772Y2044D01*
G01X97823Y1993D01*
G01X97873Y1889D01*
G01X97873Y1732D01*
G01X97772Y1628D01*
G01X97614Y1577D01*
G01X97406Y1577D01*
G01X97251Y1628D01*
G01X97147Y1732D01*
G01X98216Y2667D02*
G01X98216Y1577D01*
G01X98216Y2667D02*
G01X98686Y2667D01*
G01X98841Y2616D01*
G01X98892Y2565D01*
G01X98945Y2461D01*
G01X98945Y2357D01*
G01X98892Y2252D01*
G01X98841Y2199D01*
G01X98686Y2148D01*
G01X98216Y2148D02*
G01X98686Y2148D01*
G01X98841Y2095D01*
G01X98892Y2044D01*
G01X98945Y1940D01*
G01X98945Y1785D01*
G01X98892Y1681D01*
G01X98841Y1628D01*
G01X98686Y1577D01*
G01X98216Y1577D01*
G54D32*
G01X37465Y91277D02*
G01X37465Y89339D01*
G01X37465Y91277D02*
G01X38295Y91277D01*
G01X38572Y91186D01*
G01X38666Y91094D01*
G01X38757Y90909D01*
G01X38757Y90723D01*
G01X38666Y90538D01*
G01X38572Y90446D01*
G01X38295Y90355D01*
G01X37465Y90355D02*
G01X38295Y90355D01*
G01X38572Y90261D01*
G01X38666Y90170D01*
G01X38757Y89984D01*
G01X38757Y89707D01*
G01X38666Y89522D01*
G01X38572Y89430D01*
G01X38295Y89339D01*
G01X37465Y89339D01*
G01X39367Y91277D02*
G01X39367Y89339D01*
G01X39977Y90632D02*
G01X39977Y89707D01*
G01X40068Y89430D01*
G01X40253Y89339D01*
G01X40530Y89339D01*
G01X40716Y89430D01*
G01X40993Y89707D01*
G01X40993Y90632D02*
G01X40993Y89339D01*
G01X41602Y90078D02*
G01X42710Y90078D01*
G01X42710Y90261D01*
G01X42618Y90446D01*
G01X42527Y90538D01*
G01X42341Y90632D01*
G01X42064Y90632D01*
G01X41879Y90538D01*
G01X41694Y90355D01*
G01X41602Y90078D01*
G01X41602Y89893D01*
G01X41694Y89616D01*
G01X41879Y89430D01*
G01X42064Y89339D01*
G01X42341Y89339D01*
G01X42527Y89430D01*
G01X42710Y89616D01*
G01X43599Y91277D02*
G01X43599Y89707D01*
G01X43690Y89430D01*
G01X43875Y89339D01*
G01X44058Y89339D01*
G01X43319Y90632D02*
G01X43967Y90632D01*
G01X45130Y90632D02*
G01X44945Y90538D01*
G01X44762Y90355D01*
G01X44668Y90078D01*
G01X44668Y89893D01*
G01X44762Y89616D01*
G01X44945Y89430D01*
G01X45130Y89339D01*
G01X45407Y89339D01*
G01X45593Y89430D01*
G01X45778Y89616D01*
G01X45869Y89893D01*
G01X45869Y90078D01*
G01X45778Y90355D01*
G01X45593Y90538D01*
G01X45407Y90632D01*
G01X45130Y90632D01*
G01X46941Y90632D02*
G01X46756Y90538D01*
G01X46570Y90355D01*
G01X46479Y90078D01*
G01X46479Y89893D01*
G01X46570Y89616D01*
G01X46756Y89430D01*
G01X46941Y89339D01*
G01X47218Y89339D01*
G01X47404Y89430D01*
G01X47586Y89616D01*
G01X47680Y89893D01*
G01X47680Y90078D01*
G01X47586Y90355D01*
G01X47404Y90538D01*
G01X47218Y90632D01*
G01X46941Y90632D01*
G01X48567Y91277D02*
G01X48567Y89707D01*
G01X48658Y89430D01*
G01X48844Y89339D01*
G01X49029Y89339D01*
G01X48290Y90632D02*
G01X48935Y90632D01*
G01X49639Y91277D02*
G01X49639Y89339D01*
G01X49639Y90261D02*
G01X49916Y90538D01*
G01X50101Y90632D01*
G01X50378Y90632D01*
G01X50561Y90538D01*
G01X50655Y90261D01*
G01X50655Y89339D01*
G01X51264Y88691D02*
G01X52925Y88691D01*
G01X53535Y91277D02*
G01X53535Y89339D01*
G01X54828Y91277D02*
G01X54828Y89339D01*
G01X53535Y90355D02*
G01X54828Y90355D01*
G01X55900Y90632D02*
G01X55714Y90538D01*
G01X55532Y90355D01*
G01X55438Y90078D01*
G01X55438Y89893D01*
G01X55532Y89616D01*
G01X55714Y89430D01*
G01X55900Y89339D01*
G01X56177Y89339D01*
G01X56362Y89430D01*
G01X56548Y89616D01*
G01X56639Y89893D01*
G01X56639Y90078D01*
G01X56548Y90355D01*
G01X56362Y90538D01*
G01X56177Y90632D01*
G01X55900Y90632D01*
G01X57249Y90632D02*
G01X57249Y89339D01*
G01X57249Y90261D02*
G01X57525Y90538D01*
G01X57711Y90632D01*
G01X57988Y90632D01*
G01X58173Y90538D01*
G01X58265Y90261D01*
G01X58265Y89339D01*
G01X58265Y90261D02*
G01X58541Y90538D01*
G01X58727Y90632D01*
G01X59004Y90632D01*
G01X59189Y90538D01*
G01X59281Y90261D01*
G01X59281Y89339D01*
G01X59890Y90078D02*
G01X60998Y90078D01*
G01X60998Y90261D01*
G01X60906Y90446D01*
G01X60815Y90538D01*
G01X60629Y90632D01*
G01X60352Y90632D01*
G01X60167Y90538D01*
G01X59982Y90355D01*
G01X59890Y90078D01*
G01X59890Y89893D01*
G01X59982Y89616D01*
G01X60167Y89430D01*
G01X60352Y89339D01*
G01X60629Y89339D01*
G01X60815Y89430D01*
G01X60998Y89616D01*
G01X61607Y88691D02*
G01X63271Y88691D01*
G01X64620Y91277D02*
G01X63881Y89339D01*
G01X64620Y91277D02*
G01X65359Y89339D01*
G01X64157Y89984D02*
G01X65082Y89984D01*
G01X65968Y90632D02*
G01X65968Y89707D01*
G01X66060Y89430D01*
G01X66245Y89339D01*
G01X66522Y89339D01*
G01X66708Y89430D01*
G01X66984Y89707D01*
G01X66984Y90632D02*
G01X66984Y89339D01*
G01X67871Y91277D02*
G01X67871Y89707D01*
G01X67962Y89430D01*
G01X68148Y89339D01*
G01X68333Y89339D01*
G01X67594Y90632D02*
G01X68239Y90632D01*
G01X69405Y90632D02*
G01X69220Y90538D01*
G01X69034Y90355D01*
G01X68943Y90078D01*
G01X68943Y89893D01*
G01X69034Y89616D01*
G01X69220Y89430D01*
G01X69405Y89339D01*
G01X69682Y89339D01*
G01X69865Y89430D01*
G01X70050Y89616D01*
G01X70142Y89893D01*
G01X70142Y90078D01*
G01X70050Y90355D01*
G01X69865Y90538D01*
G01X69682Y90632D01*
G01X69405Y90632D01*
G01X70751Y90632D02*
G01X70751Y89339D01*
G01X70751Y90261D02*
G01X71031Y90538D01*
G01X71213Y90632D01*
G01X71490Y90632D01*
G01X71676Y90538D01*
G01X71767Y90261D01*
G01X71767Y89339D01*
G01X71767Y90261D02*
G01X72047Y90538D01*
G01X72229Y90632D01*
G01X72506Y90632D01*
G01X72692Y90538D01*
G01X72783Y90261D01*
G01X72783Y89339D01*
G01X74503Y90632D02*
G01X74503Y89339D01*
G01X74503Y90355D02*
G01X74317Y90538D01*
G01X74132Y90632D01*
G01X73855Y90632D01*
G01X73672Y90538D01*
G01X73487Y90355D01*
G01X73393Y90078D01*
G01X73393Y89893D01*
G01X73487Y89616D01*
G01X73672Y89430D01*
G01X73855Y89339D01*
G01X74132Y89339D01*
G01X74317Y89430D01*
G01X74503Y89616D01*
G01X75389Y91277D02*
G01X75389Y89707D01*
G01X75481Y89430D01*
G01X75666Y89339D01*
G01X75852Y89339D01*
G01X75112Y90632D02*
G01X75758Y90632D01*
G01X76461Y91277D02*
G01X76553Y91186D01*
G01X76644Y91277D01*
G01X76553Y91371D01*
G01X76461Y91277D01*
G01X76553Y90632D02*
G01X76553Y89339D01*
G01X77716Y90632D02*
G01X77533Y90538D01*
G01X77348Y90355D01*
G01X77254Y90078D01*
G01X77254Y89893D01*
G01X77348Y89616D01*
G01X77533Y89430D01*
G01X77716Y89339D01*
G01X77993Y89339D01*
G01X78178Y89430D01*
G01X78364Y89616D01*
G01X78455Y89893D01*
G01X78455Y90078D01*
G01X78364Y90355D01*
G01X78178Y90538D01*
G01X77993Y90632D01*
G01X77716Y90632D01*
G01X79065Y90632D02*
G01X79065Y89339D01*
G01X79065Y90261D02*
G01X79341Y90538D01*
G01X79527Y90632D01*
G01X79804Y90632D01*
G01X79989Y90538D01*
G01X80081Y90261D01*
G01X80081Y89339D01*
G01X132379Y22479D02*
G01X133672Y22847D01*
G01X132379Y23218D02*
G01X133672Y22847D01*
G01X132379Y23218D02*
G01X133672Y23586D01*
G01X132379Y23957D02*
G01X133672Y23586D01*
G01X132379Y24566D02*
G01X133672Y24935D01*
G01X132379Y25306D02*
G01X133672Y24935D01*
G01X132379Y25306D02*
G01X133672Y25674D01*
G01X132379Y26045D02*
G01X133672Y25674D01*
G01X132379Y26654D02*
G01X133672Y27023D01*
G01X132379Y27393D02*
G01X133672Y27023D01*
G01X132379Y27393D02*
G01X133672Y27762D01*
G01X132379Y28130D02*
G01X133672Y27762D01*
G01X133210Y28834D02*
G01X133304Y28740D01*
G01X133395Y28834D01*
G01X133304Y28925D01*
G01X133210Y28834D01*
G01X132379Y29535D02*
G01X133672Y30088D01*
G01X132379Y30645D02*
G01X133672Y30088D01*
G01X131734Y31254D02*
G01X131826Y31346D01*
G01X131734Y31437D01*
G01X131640Y31346D01*
G01X131734Y31254D01*
G01X132379Y31346D02*
G01X133672Y31346D01*
G01X132379Y32047D02*
G01X133672Y32047D01*
G01X132933Y32047D02*
G01X132656Y32141D01*
G01X132473Y32324D01*
G01X132379Y32509D01*
G01X132379Y32786D01*
G01X132379Y34505D02*
G01X133672Y34505D01*
G01X132656Y34505D02*
G01X132473Y34320D01*
G01X132379Y34135D01*
G01X132379Y33858D01*
G01X132473Y33672D01*
G01X132656Y33489D01*
G01X132933Y33395D01*
G01X133118Y33395D01*
G01X133395Y33489D01*
G01X133581Y33672D01*
G01X133672Y33858D01*
G01X133672Y34135D01*
G01X133581Y34320D01*
G01X133395Y34505D01*
G01X131734Y35115D02*
G01X133672Y35115D01*
G01X132656Y36741D02*
G01X132473Y36647D01*
G01X132379Y36370D01*
G01X132379Y36093D01*
G01X132473Y35816D01*
G01X132656Y35725D01*
G01X132842Y35816D01*
G01X132933Y36001D01*
G01X133027Y36461D01*
G01X133118Y36647D01*
G01X133304Y36741D01*
G01X133395Y36741D01*
G01X133581Y36647D01*
G01X133672Y36370D01*
G01X133672Y36093D01*
G01X133581Y35816D01*
G01X133395Y35725D01*
G01X132656Y38458D02*
G01X132473Y38272D01*
G01X132379Y38087D01*
G01X132379Y37810D01*
G01X132473Y37627D01*
G01X132656Y37442D01*
G01X132933Y37350D01*
G01X133118Y37350D01*
G01X133395Y37442D01*
G01X133581Y37627D01*
G01X133672Y37810D01*
G01X133672Y38087D01*
G01X133581Y38272D01*
G01X133395Y38458D01*
G01X131734Y39067D02*
G01X131826Y39159D01*
G01X131734Y39253D01*
G01X131640Y39159D01*
G01X131734Y39067D01*
G01X132379Y39159D02*
G01X133672Y39159D01*
G01X132933Y39862D02*
G01X132933Y40970D01*
G01X132750Y40970D01*
G01X132565Y40878D01*
G01X132473Y40784D01*
G01X132379Y40601D01*
G01X132379Y40322D01*
G01X132473Y40139D01*
G01X132656Y39954D01*
G01X132933Y39862D01*
G01X133118Y39862D01*
G01X133395Y39954D01*
G01X133581Y40139D01*
G01X133672Y40322D01*
G01X133672Y40601D01*
G01X133581Y40784D01*
G01X133395Y40970D01*
G01X132379Y41579D02*
G01X133672Y41579D01*
G01X132750Y41579D02*
G01X132473Y41856D01*
G01X132379Y42042D01*
G01X132379Y42318D01*
G01X132473Y42504D01*
G01X132750Y42595D01*
G01X133672Y42595D01*
G01X132656Y44312D02*
G01X132473Y44129D01*
G01X132379Y43944D01*
G01X132379Y43667D01*
G01X132473Y43482D01*
G01X132656Y43296D01*
G01X132933Y43205D01*
G01X133118Y43205D01*
G01X133395Y43296D01*
G01X133581Y43482D01*
G01X133672Y43667D01*
G01X133672Y43944D01*
G01X133581Y44129D01*
G01X133395Y44312D01*
G01X132933Y44922D02*
G01X132933Y46032D01*
G01X132750Y46032D01*
G01X132565Y45938D01*
G01X132473Y45847D01*
G01X132379Y45661D01*
G01X132379Y45384D01*
G01X132473Y45199D01*
G01X132656Y45016D01*
G01X132933Y44922D01*
G01X133118Y44922D01*
G01X133395Y45016D01*
G01X133581Y45199D01*
G01X133672Y45384D01*
G01X133672Y45661D01*
G01X133581Y45847D01*
G01X133395Y46032D01*
G01X132656Y47749D02*
G01X132473Y47564D01*
G01X132379Y47381D01*
G01X132379Y47104D01*
G01X132473Y46918D01*
G01X132656Y46733D01*
G01X132933Y46642D01*
G01X133118Y46642D01*
G01X133395Y46733D01*
G01X133581Y46918D01*
G01X133672Y47104D01*
G01X133672Y47381D01*
G01X133581Y47564D01*
G01X133395Y47749D01*
G01X132379Y48359D02*
G01X133672Y48359D01*
G01X132933Y48359D02*
G01X132656Y48450D01*
G01X132473Y48635D01*
G01X132379Y48821D01*
G01X132379Y49098D01*
G01X132933Y49707D02*
G01X132933Y50815D01*
G01X132750Y50815D01*
G01X132565Y50723D01*
G01X132473Y50632D01*
G01X132379Y50446D01*
G01X132379Y50170D01*
G01X132473Y49984D01*
G01X132656Y49799D01*
G01X132933Y49707D01*
G01X133118Y49707D01*
G01X133395Y49799D01*
G01X133581Y49984D01*
G01X133672Y50170D01*
G01X133672Y50446D01*
G01X133581Y50632D01*
G01X133395Y50815D01*
G01X132379Y52534D02*
G01X133672Y52534D01*
G01X132656Y52534D02*
G01X132473Y52349D01*
G01X132379Y52163D01*
G01X132379Y51887D01*
G01X132473Y51701D01*
G01X132656Y51518D01*
G01X132933Y51424D01*
G01X133118Y51424D01*
G01X133395Y51518D01*
G01X133581Y51701D01*
G01X133672Y51887D01*
G01X133672Y52163D01*
G01X133581Y52349D01*
G01X133395Y52534D01*
G01X131734Y53421D02*
G01X133304Y53421D01*
G01X133581Y53512D01*
G01X133672Y53698D01*
G01X133672Y53883D01*
G01X132379Y53144D02*
G01X132379Y53789D01*
G01X131734Y54493D02*
G01X131826Y54584D01*
G01X131734Y54676D01*
G01X131640Y54584D01*
G01X131734Y54493D01*
G01X132379Y54584D02*
G01X133672Y54584D01*
G01X132379Y55285D02*
G01X133672Y55841D01*
G01X132379Y56395D02*
G01X133672Y55841D01*
G01X131734Y57005D02*
G01X131826Y57096D01*
G01X131734Y57188D01*
G01X131640Y57096D01*
G01X131734Y57005D01*
G01X132379Y57096D02*
G01X133672Y57096D01*
G01X131734Y58077D02*
G01X133304Y58077D01*
G01X133581Y58168D01*
G01X133672Y58353D01*
G01X133672Y58536D01*
G01X132379Y57797D02*
G01X132379Y58445D01*
G01X132379Y59240D02*
G01X133672Y59794D01*
G01X132379Y60347D02*
G01X133672Y59794D01*
G01X134043Y59608D01*
G01X134226Y59423D01*
G01X134320Y59240D01*
G01X134320Y59146D01*
G01X133210Y61048D02*
G01X133304Y60957D01*
G01X133395Y61048D01*
G01X133304Y61142D01*
G01X133210Y61048D01*
G01X132656Y62859D02*
G01X132473Y62674D01*
G01X132379Y62491D01*
G01X132379Y62214D01*
G01X132473Y62029D01*
G01X132656Y61843D01*
G01X132933Y61752D01*
G01X133118Y61752D01*
G01X133395Y61843D01*
G01X133581Y62029D01*
G01X133672Y62214D01*
G01X133672Y62491D01*
G01X133581Y62674D01*
G01X133395Y62859D01*
G01X132379Y63931D02*
G01X132473Y63746D01*
G01X132656Y63563D01*
G01X132933Y63469D01*
G01X133118Y63469D01*
G01X133395Y63563D01*
G01X133581Y63746D01*
G01X133672Y63931D01*
G01X133672Y64208D01*
G01X133581Y64394D01*
G01X133395Y64579D01*
G01X133118Y64670D01*
G01X132933Y64670D01*
G01X132656Y64579D01*
G01X132473Y64394D01*
G01X132379Y64208D01*
G01X132379Y63931D01*
G01X132379Y65280D02*
G01X133672Y65280D01*
G01X132750Y65280D02*
G01X132473Y65557D01*
G01X132379Y65742D01*
G01X132379Y66019D01*
G01X132473Y66205D01*
G01X132750Y66296D01*
G01X133672Y66296D01*
G01X132750Y66296D02*
G01X132473Y66573D01*
G01X132379Y66758D01*
G01X132379Y67035D01*
G01X132473Y67221D01*
G01X132750Y67312D01*
G01X133672Y67312D01*
G01X2367Y70739D02*
G01X1074Y70370D01*
G01X2367Y69999D02*
G01X1074Y70370D01*
G01X2367Y69999D02*
G01X1074Y69631D01*
G01X2367Y69260D02*
G01X1074Y69631D01*
G01X2367Y68651D02*
G01X1074Y68282D01*
G01X2367Y67911D02*
G01X1074Y68282D01*
G01X2367Y67911D02*
G01X1074Y67543D01*
G01X2367Y67172D02*
G01X1074Y67543D01*
G01X2367Y66563D02*
G01X1074Y66194D01*
G01X2367Y65824D02*
G01X1074Y66194D01*
G01X2367Y65824D02*
G01X1074Y65455D01*
G01X2367Y65087D02*
G01X1074Y65455D01*
G01X1536Y64383D02*
G01X1442Y64477D01*
G01X1351Y64383D01*
G01X1442Y64292D01*
G01X1536Y64383D01*
G01X2367Y63588D02*
G01X1074Y63035D01*
G01X2367Y62481D02*
G01X1074Y63035D01*
G01X703Y63220D01*
G01X520Y63406D01*
G01X426Y63588D01*
G01X426Y63682D01*
G01X2367Y61409D02*
G01X2273Y61595D01*
G01X2090Y61780D01*
G01X1813Y61871D01*
G01X1628Y61871D01*
G01X1351Y61780D01*
G01X1165Y61595D01*
G01X1074Y61409D01*
G01X1074Y61132D01*
G01X1165Y60947D01*
G01X1351Y60764D01*
G01X1628Y60670D01*
G01X1813Y60670D01*
G01X2090Y60764D01*
G01X2273Y60947D01*
G01X2367Y61132D01*
G01X2367Y61409D01*
G01X2367Y60060D02*
G01X1442Y60060D01*
G01X1165Y59969D01*
G01X1074Y59783D01*
G01X1074Y59507D01*
G01X1165Y59321D01*
G01X1442Y59044D01*
G01X2367Y59044D02*
G01X1074Y59044D01*
G01X3012Y58158D02*
G01X1442Y58158D01*
G01X1165Y58066D01*
G01X1074Y57881D01*
G01X1074Y57696D01*
G01X2367Y58435D02*
G01X2367Y57790D01*
G01X2367Y57086D02*
G01X1442Y57086D01*
G01X1165Y56995D01*
G01X1074Y56809D01*
G01X1074Y56532D01*
G01X1165Y56349D01*
G01X1442Y56070D01*
G01X2367Y56070D02*
G01X1074Y56070D01*
G01X3012Y55460D02*
G01X1074Y55460D01*
G01X2090Y55460D02*
G01X2273Y55278D01*
G01X2367Y55092D01*
G01X2367Y54815D01*
G01X2273Y54630D01*
G01X2090Y54444D01*
G01X1813Y54353D01*
G01X1628Y54353D01*
G01X1351Y54444D01*
G01X1165Y54630D01*
G01X1074Y54815D01*
G01X1074Y55092D01*
G01X1165Y55278D01*
G01X1351Y55460D01*
G01X1813Y53743D02*
G01X1813Y52636D01*
G01X1996Y52636D01*
G01X2181Y52727D01*
G01X2273Y52819D01*
G01X2367Y53004D01*
G01X2367Y53281D01*
G01X2273Y53467D01*
G01X2090Y53652D01*
G01X1813Y53743D01*
G01X1628Y53743D01*
G01X1351Y53652D01*
G01X1165Y53467D01*
G01X1074Y53281D01*
G01X1074Y53004D01*
G01X1165Y52819D01*
G01X1351Y52636D01*
G01X1536Y51932D02*
G01X1442Y52026D01*
G01X1351Y51932D01*
G01X1442Y51841D01*
G01X1536Y51932D01*
G01X2090Y50124D02*
G01X2273Y50307D01*
G01X2367Y50492D01*
G01X2367Y50769D01*
G01X2273Y50954D01*
G01X2090Y51140D01*
G01X1813Y51231D01*
G01X1628Y51231D01*
G01X1351Y51140D01*
G01X1165Y50954D01*
G01X1074Y50769D01*
G01X1074Y50492D01*
G01X1165Y50307D01*
G01X1351Y50124D01*
G01X2367Y49052D02*
G01X2273Y49237D01*
G01X2090Y49420D01*
G01X1813Y49514D01*
G01X1628Y49514D01*
G01X1351Y49420D01*
G01X1165Y49237D01*
G01X1074Y49052D01*
G01X1074Y48775D01*
G01X1165Y48590D01*
G01X1351Y48404D01*
G01X1628Y48313D01*
G01X1813Y48313D01*
G01X2090Y48404D01*
G01X2273Y48590D01*
G01X2367Y48775D01*
G01X2367Y49052D01*
G01X2367Y47703D02*
G01X1074Y47703D01*
G01X1996Y47703D02*
G01X2273Y47426D01*
G01X2367Y47241D01*
G01X2367Y46964D01*
G01X2273Y46779D01*
G01X1996Y46687D01*
G01X1074Y46687D01*
G01X1996Y46687D02*
G01X2273Y46410D01*
G01X2367Y46225D01*
G01X2367Y45948D01*
G01X2273Y45763D01*
G01X1996Y45671D01*
G01X1074Y45671D01*
G01X3383Y43398D02*
G01X426Y45062D01*
G01X2090Y41681D02*
G01X2273Y41866D01*
G01X2367Y42049D01*
G01X2367Y42329D01*
G01X2273Y42511D01*
G01X2090Y42697D01*
G01X1813Y42788D01*
G01X1628Y42788D01*
G01X1351Y42697D01*
G01X1165Y42511D01*
G01X1074Y42329D01*
G01X1074Y42049D01*
G01X1165Y41866D01*
G01X1351Y41681D01*
G01X3383Y39408D02*
G01X426Y41071D01*
G01X2367Y38798D02*
G01X1074Y38244D01*
G01X2367Y37691D02*
G01X1074Y38244D01*
G01X3012Y37081D02*
G01X2921Y36990D01*
G01X3012Y36896D01*
G01X3106Y36990D01*
G01X3012Y37081D01*
G01X2367Y36990D02*
G01X1074Y36990D01*
G01X2367Y36286D02*
G01X1074Y36286D01*
G01X1813Y36286D02*
G01X2090Y36195D01*
G01X2273Y36009D01*
G01X2367Y35826D01*
G01X2367Y35547D01*
G01X2367Y33830D02*
G01X1074Y33830D01*
G01X2090Y33830D02*
G01X2273Y34015D01*
G01X2367Y34201D01*
G01X2367Y34477D01*
G01X2273Y34660D01*
G01X2090Y34846D01*
G01X1813Y34937D01*
G01X1628Y34937D01*
G01X1351Y34846D01*
G01X1165Y34660D01*
G01X1074Y34477D01*
G01X1074Y34201D01*
G01X1165Y34015D01*
G01X1351Y33830D01*
G01X3012Y33220D02*
G01X1074Y33220D01*
G01X2090Y31595D02*
G01X2273Y31686D01*
G01X2367Y31965D01*
G01X2367Y32242D01*
G01X2273Y32519D01*
G01X2090Y32611D01*
G01X1905Y32519D01*
G01X1813Y32334D01*
G01X1719Y31871D01*
G01X1628Y31686D01*
G01X1442Y31595D01*
G01X1351Y31595D01*
G01X1165Y31686D01*
G01X1074Y31965D01*
G01X1074Y32242D01*
G01X1165Y32519D01*
G01X1351Y32611D01*
G01X2090Y29878D02*
G01X2273Y30060D01*
G01X2367Y30246D01*
G01X2367Y30523D01*
G01X2273Y30708D01*
G01X2090Y30894D01*
G01X1813Y30985D01*
G01X1628Y30985D01*
G01X1351Y30894D01*
G01X1165Y30708D01*
G01X1074Y30523D01*
G01X1074Y30246D01*
G01X1165Y30060D01*
G01X1351Y29878D01*
G01X3012Y29268D02*
G01X2921Y29174D01*
G01X3012Y29083D01*
G01X3106Y29174D01*
G01X3012Y29268D01*
G01X2367Y29174D02*
G01X1074Y29174D01*
G01X1813Y28473D02*
G01X1813Y27365D01*
G01X1996Y27365D01*
G01X2181Y27457D01*
G01X2273Y27548D01*
G01X2367Y27734D01*
G01X2367Y28011D01*
G01X2273Y28196D01*
G01X2090Y28381D01*
G01X1813Y28473D01*
G01X1628Y28473D01*
G01X1351Y28381D01*
G01X1165Y28196D01*
G01X1074Y28011D01*
G01X1074Y27734D01*
G01X1165Y27548D01*
G01X1351Y27365D01*
G01X2367Y26756D02*
G01X1074Y26756D01*
G01X1996Y26756D02*
G01X2273Y26479D01*
G01X2367Y26294D01*
G01X2367Y26017D01*
G01X2273Y25831D01*
G01X1996Y25740D01*
G01X1074Y25740D01*
G01X2090Y24020D02*
G01X2273Y24206D01*
G01X2367Y24391D01*
G01X2367Y24668D01*
G01X2273Y24853D01*
G01X2090Y25036D01*
G01X1813Y25130D01*
G01X1628Y25130D01*
G01X1351Y25036D01*
G01X1165Y24853D01*
G01X1074Y24668D01*
G01X1074Y24391D01*
G01X1165Y24206D01*
G01X1351Y24020D01*
G01X1813Y23411D02*
G01X1813Y22303D01*
G01X1996Y22303D01*
G01X2181Y22395D01*
G01X2273Y22489D01*
G01X2367Y22672D01*
G01X2367Y22948D01*
G01X2273Y23134D01*
G01X2090Y23319D01*
G01X1813Y23411D01*
G01X1628Y23411D01*
G01X1351Y23319D01*
G01X1165Y23134D01*
G01X1074Y22948D01*
G01X1074Y22672D01*
G01X1165Y22489D01*
G01X1351Y22303D01*
G54D10*
G75*
G01X46759Y62027D02*
G03X46759Y65989I1498J1981D01*
G01*
G75*
G01X46759Y54407D02*
G03X46759Y58369I1498J1981D01*
G01*
G75*
G01X46759Y46787D02*
G03X46759Y50749I1498J1981D01*
G01*
G75*
G01X38631Y77267D02*
G03X38631Y81229I1498J1981D01*
G01*
G75*
G01X38631Y69647D02*
G03X38631Y73609I1498J1981D01*
G01*
G75*
G01X38631Y62027D02*
G03X38631Y65989I1498J1981D01*
G01*
G75*
G01X46759Y77267D02*
G03X46759Y81229I1498J1981D01*
G01*
G75*
G01X46759Y69647D02*
G03X46759Y73609I1498J1981D01*
G01*
G75*
G01X38631Y54407D02*
G03X38631Y58369I1498J1981D01*
G01*
G75*
G01X38631Y46787D02*
G03X38631Y50749I1498J1981D01*
G01*
G75*
G01X95743Y12784D02*
G03X92979Y12784I-1382J2203D01*
G01*
G75*
G01X10262Y48717D02*
G03X10262Y48717I-457J0D01*
G01*
G75*
G01X10262Y43739D02*
G03X10262Y43739I-457J0D01*
G01*
G75*
G01X10135Y30937D02*
G03X10135Y30937I-457J0D01*
G01*
G75*
G01X10135Y25959D02*
G03X10135Y25959I-457J0D01*
G01*
G75*
G01X10135Y13157D02*
G03X10135Y13157I-457J0D01*
G01*
G75*
G01X10135Y8179D02*
G03X10135Y8179I-457J0D01*
G01*
G75*
G01X125654Y8306D02*
G03X125654Y8306I-457J0D01*
G01*
G75*
G01X125654Y13284D02*
G03X125654Y13284I-457J0D01*
G01*
G75*
G01X125527Y25959D02*
G03X125527Y25959I-457J0D01*
G01*
G75*
G01X125527Y30937D02*
G03X125527Y30937I-457J0D01*
G01*
G75*
G01X125527Y43993D02*
G03X125527Y43993I-457J0D01*
G01*
G75*
G01X125527Y48971D02*
G03X125527Y48971I-457J0D01*
G01*
G75*
G01X10262Y84277D02*
G03X10262Y84277I-457J0D01*
G01*
G75*
G01X10262Y79299D02*
G03X10262Y79299I-457J0D01*
G01*
G75*
G01X10262Y66497D02*
G03X10262Y66497I-457J0D01*
G01*
G75*
G01X10262Y61519D02*
G03X10262Y61519I-457J0D01*
G01*
G75*
G01X125527Y61519D02*
G03X125527Y61519I-457J0D01*
G01*
G75*
G01X125527Y66497D02*
G03X125527Y66497I-457J0D01*
G01*
G75*
G01X125527Y79426D02*
G03X125527Y79426I-457J0D01*
G01*
G75*
G01X125527Y84404D02*
G03X125527Y84404I-457J0D01*
G01*
G75*
G01X44856Y4166D02*
G03X44856Y4166I-457J0D01*
G01*
G75*
G01X39878Y4166D02*
G03X39878Y4166I-457J0D01*
G01*
G75*
G01X71780Y4293D02*
G03X71780Y4293I-457J0D01*
G01*
G75*
G01X66802Y4293D02*
G03X66802Y4293I-457J0D01*
G01*
M00*
M02*
