;Layer: Drill PTH
;EasyEDA v6.1.52, Sat, 03 Aug 2019 15:20:47 GMT
;0863e46d4acc4207ac88c0ed569749d1,99d799917bed4c779c6d3b41b195639e,10
;Gerber Generator version 0.2
M48
METRIC,LZ,000.000
;Holesize 1 = 0.351 METRIC
T01C0.351
;Holesize 2 = 0.701 METRIC
T02C0.701
;Holesize 3 = 0.900 METRIC
T03C0.900
;Holesize 4 = 0.901 METRIC
T04C0.901
;Holesize 5 = 0.915 METRIC
T05C0.915
;Holesize 6 = 0.966 METRIC
T06C0.966
;Holesize 7 = 1.000 METRIC
T07C1.000
;Holesize 8 = 1.143 METRIC
T08C1.143
;Holesize 9 = 1.200 METRIC
T09C1.200
;Holesize 10 = 1.403 METRIC
T10C1.403
;Holesize 11 = 1.501 METRIC
T11C1.501
%
G05
G90
T01
X+071277Y+074041
X+052671Y+066006
X+093151Y+020589
X+078605Y+061376
X+071724Y+053721
X+073888Y+058801
X+078219Y+085595
X+063068Y+058834
X+094625Y+030607
X+091160Y+045184
X+057129Y+061518
X+095102Y+028067
X+084228Y+084244
X+066659Y+068475
T02
X+048260Y+065278
X+048260Y+064008
X+048260Y+062738
X+048260Y+057658
X+048260Y+056388
X+048260Y+055118
X+048260Y+050038
X+048260Y+048768
X+048260Y+047498
X+040132Y+080518
X+040132Y+079248
X+040132Y+077978
X+040132Y+072898
X+040132Y+071628
X+040132Y+070358
X+040132Y+065278
X+040132Y+064008
X+040132Y+062738
X+048260Y+080518
X+048260Y+079248
X+048260Y+077978
X+048260Y+072898
X+048260Y+071628
X+048260Y+070358
X+040132Y+057658
X+040132Y+056388
X+040132Y+055118
X+040132Y+050038
X+040132Y+048768
X+040132Y+047498
X+097980Y+004690G85X+097980Y+005490
X+090741Y+004690G85X+090741Y+005490
T03
X+054991Y+077216
X+062611Y+077216
X+054991Y+072136
X+062611Y+072136
X+054991Y+067056
X+062611Y+067056
X+054991Y+061976
X+062611Y+061976
X+054991Y+056896
X+062611Y+056896
X+054991Y+051816
X+062611Y+051816
X+054991Y+087376
X+062611Y+087376
X+054991Y+082296
X+062611Y+082296
X+054991Y+046736
X+062611Y+046736
X+054991Y+041656
X+062611Y+041656
T04
X+091950Y+007790
X+096791Y+007790
T05
X+096774Y+047371
X+096774Y+049911
X+096774Y+052451
X+096774Y+054991
X+096774Y+057531
X+096774Y+060071
X+096774Y+062611
X+096774Y+065151
X+096774Y+067691
X+096774Y+070231
X+096774Y+072771
X+096774Y+075311
X+096774Y+077851
X+096774Y+080391
X+096774Y+082931
X+081534Y+047371
X+081534Y+049911
X+081534Y+052451
X+081534Y+054991
X+081534Y+057531
X+081534Y+060071
X+081534Y+062611
X+081534Y+065151
X+081534Y+067691
X+081534Y+070231
X+081534Y+072771
X+081534Y+075311
X+081534Y+077851
X+081534Y+080391
X+081534Y+082931
T06
X+071556Y+030607
X+071556Y+028067
X+071556Y+022987
X+071556Y+025527
X+071556Y+035687
X+071556Y+033147
X+094361Y+016256
X+094361Y+013716
T07
X+058212Y+012343G85X+058212Y+014443
X+052113Y+010293G85X+054312Y+010293
X+052163Y+016493G85X+054262Y+016493
X+085009Y+012470G85X+085009Y+014570
X+078910Y+010420G85X+081109Y+010420
X+078960Y+016620G85X+081059Y+016620
T08
X+088138Y+023238G85X+088138Y+023243
X+090678Y+023238G85X+090678Y+023243
X+085598Y+023238G85X+085598Y+023243
T09
X+067691Y+077216
X+075438Y+077216
X+067691Y+072136
X+075438Y+072136
X+067691Y+067056
X+075438Y+067056
X+067691Y+061976
X+075438Y+061976
X+067691Y+056896
X+075438Y+056896
X+067691Y+051816
X+075438Y+051816
X+067691Y+087376
X+075438Y+087376
X+067691Y+082296
X+075438Y+082296
X+067691Y+046736
X+075438Y+046736
X+067691Y+041656
X+075438Y+041656
T10
X+006908Y+043738
X+006908Y+048717
X+006781Y+025958
X+006781Y+030937
X+006781Y+008178
X+006781Y+013157
X+128092Y+013284
X+128092Y+008305
X+127965Y+030937
X+127965Y+025958
X+127965Y+048971
X+127965Y+043992
X+006908Y+079298
X+006908Y+084277
X+006908Y+061518
X+006908Y+066497
X+127965Y+066497
X+127965Y+061518
X+127965Y+084404
X+127965Y+079425
X+039420Y+007061
X+044399Y+007061
X+066344Y+007188
X+071323Y+007188
T11
X+015506Y+046228
X+017505Y+040228
X+017505Y+052227
X+029705Y+052227
X+029705Y+040228
X+015506Y+028448
X+017505Y+022448
X+017505Y+034447
X+029705Y+034447
X+029705Y+022448
X+015506Y+010668
X+017505Y+004668
X+017505Y+016667
X+029705Y+016667
X+029705Y+004668
X+119748Y+010795
X+117749Y+016794
X+117749Y+004795
X+105549Y+004795
X+105549Y+016794
X+119748Y+028575
X+117749Y+034574
X+117749Y+022575
X+105549Y+022575
X+105549Y+034574
X+119748Y+046355
X+117749Y+052354
X+117749Y+040355
X+105549Y+040355
X+105549Y+052354
X+015506Y+081788
X+017505Y+075788
X+017505Y+087787
X+029705Y+087787
X+029705Y+075788
X+015506Y+064008
X+017505Y+058008
X+017505Y+070007
X+029705Y+070007
X+029705Y+058008
X+119748Y+064135
X+117749Y+070134
X+117749Y+058135
X+105549Y+058135
X+105549Y+070134
X+119748Y+081915
X+117749Y+087914
X+117749Y+075915
X+105549Y+075915
X+105549Y+087914
M30
