G04 Layer: BottomLayer*
G04 EasyEDA v6.1.52, Sat, 03 Aug 2019 15:20:47 GMT*
G04 0863e46d4acc4207ac88c0ed569749d1,99d799917bed4c779c6d3b41b195639e,10*
G04 Gerber Generator version 0.2*
G04 Scale: 100 percent, Rotated: No, Reflected: No *
G04 Dimensions in millimeters *
G04 leading zeros omitted , absolute positions ,3 integer and 3 decimal *
%FSLAX33Y33*%
%MOMM*%
G90*
G71D02*

%ADD11C,0.250012*%
%ADD12C,0.700024*%
%ADD16C,1.778000*%
%ADD17C,1.363980*%
%ADD18C,2.499995*%
%ADD19C,1.879600*%
%ADD20C,2.159000*%
%ADD21R,4.284980X2.379980*%
%ADD23C,1.499997*%
%ADD24C,1.651000*%
%ADD25C,0.999998*%
%ADD26C,2.032000*%
%ADD27C,1.299997*%

%LPD*%
G54D11*
G01X71277Y74041D02*
G01X71277Y62969D01*
G01X65029Y56720D01*
G01X65029Y56009D01*
G01X63007Y53987D01*
G01X57162Y53987D01*
G01X54991Y51816D01*
G01X48260Y57658D02*
G01X45435Y57658D01*
G01X41041Y53263D01*
G01X40330Y53263D01*
G01X17505Y30439D01*
G01X17505Y22448D01*
G01X52671Y66006D02*
G01X52671Y62069D01*
G01X48260Y57658D01*
G01X78605Y61376D02*
G01X78605Y58531D01*
G01X80876Y56261D01*
G01X82082Y56261D01*
G01X82806Y55537D01*
G01X82806Y50373D01*
G01X93151Y40027D01*
G01X93151Y20589D01*
G01X67691Y61976D02*
G01X64650Y65016D01*
G01X64650Y71981D01*
G01X63126Y73507D01*
G01X60452Y73507D01*
G01X56370Y69428D01*
G01X47424Y69428D01*
G01X44061Y72791D01*
G01X44061Y77251D01*
G01X40794Y80518D01*
G01X40132Y80518D01*
G01X67691Y51816D02*
G01X69819Y51816D01*
G01X71724Y53721D01*
G01X67691Y46736D02*
G01X73888Y52933D01*
G01X73888Y58801D01*
G01X67691Y41656D02*
G01X69275Y40071D01*
G01X76116Y40071D01*
G01X77876Y41831D01*
G01X77876Y85255D01*
G01X78219Y85595D01*
G01X63068Y58834D02*
G01X58894Y63007D01*
G01X58894Y65021D01*
G01X55521Y68394D01*
G01X47035Y68394D01*
G01X42532Y72898D01*
G01X40132Y72898D01*
G01X96774Y54991D02*
G01X94625Y52842D01*
G01X94625Y30607D01*
G01X96774Y77851D02*
G01X98143Y76481D01*
G01X98143Y56964D01*
G01X97442Y56261D01*
G01X96012Y56261D01*
G01X91160Y51409D01*
G01X91160Y45184D01*
G01X62611Y61976D02*
G01X62611Y62331D01*
G01X56045Y68897D01*
G01X47244Y68897D01*
G01X41622Y74518D01*
G01X41622Y78305D01*
G01X40680Y79248D01*
G01X40132Y79248D01*
G01X54991Y87376D02*
G01X57002Y89387D01*
G01X76944Y89387D01*
G01X94863Y71470D01*
G01X94863Y59441D01*
G01X96774Y57531D01*
G01X17505Y34447D02*
G01X13815Y30756D01*
G01X13815Y20358D01*
G01X17505Y16667D01*
G01X17505Y52227D02*
G01X17505Y42750D01*
G01X15819Y41064D01*
G01X15819Y36134D01*
G01X17505Y34447D01*
G01X81534Y47371D02*
G01X80010Y45847D01*
G01X80010Y16621D01*
G01X17505Y70007D02*
G01X17505Y62636D01*
G01X15773Y60904D01*
G01X15773Y53959D01*
G01X17505Y52227D01*
G01X75438Y77216D02*
G01X75438Y72136D01*
G01X75438Y82296D02*
G01X75438Y77216D01*
G01X75438Y72136D02*
G01X75438Y67056D01*
G01X75438Y67056D02*
G01X75438Y61976D01*
G01X75438Y56896D02*
G01X75438Y51816D01*
G01X75438Y61976D02*
G01X75438Y56896D01*
G01X117749Y22575D02*
G01X116029Y20855D01*
G01X116029Y6512D01*
G01X117749Y4795D01*
G01X117749Y40355D02*
G01X116039Y38646D01*
G01X116039Y24282D01*
G01X117749Y22575D01*
G01X117749Y58135D02*
G01X116062Y56448D01*
G01X116062Y42042D01*
G01X117749Y40355D01*
G01X75438Y51816D02*
G01X75438Y46736D01*
G01X17505Y87787D02*
G01X19192Y86100D01*
G01X19192Y71694D01*
G01X17505Y70007D01*
G01X75438Y87376D02*
G01X75438Y82296D01*
G01X117749Y75915D02*
G01X116111Y74274D01*
G01X116111Y59773D01*
G01X117749Y58135D01*
G01X75438Y41656D02*
G01X75438Y46736D01*
G01X66344Y9707D02*
G01X73096Y9707D01*
G01X80010Y16621D01*
G01X66344Y7188D02*
G01X66344Y9707D01*
G01X41015Y12964D02*
G01X31094Y3040D01*
G01X16832Y3040D01*
G01X15877Y3992D01*
G01X15877Y5341D01*
G01X23103Y12565D01*
G01X23103Y30467D01*
G01X40132Y47498D01*
G01X48260Y47498D02*
G01X48260Y20205D01*
G01X41015Y12964D01*
G01X44399Y9580D02*
G01X41015Y12964D01*
G01X44399Y7061D02*
G01X44399Y9580D01*
G01X48260Y62738D02*
G01X40132Y62738D01*
G01X40132Y47498D02*
G01X40640Y47498D01*
G01X48260Y55118D01*
G01X48260Y77978D02*
G01X46802Y76520D01*
G01X46802Y71282D01*
G01X47726Y70358D01*
G01X48260Y70358D01*
G01X39850Y62456D02*
G01X40132Y62738D01*
G01X40132Y55118D02*
G01X39415Y55118D01*
G01X38701Y55834D01*
G01X38701Y61305D01*
G01X39850Y62456D01*
G01X40132Y70358D02*
G01X38755Y68981D01*
G01X38755Y63553D01*
G01X39850Y62456D01*
G01X88138Y23241D02*
G01X88138Y43307D01*
G01X81534Y49911D01*
G01X88138Y19939D02*
G01X88138Y23241D01*
G01X94361Y13716D02*
G01X88138Y19939D01*
G01X80010Y10421D02*
G01X80010Y12092D01*
G01X87856Y19939D01*
G01X88138Y19939D01*
G01X81534Y54991D02*
G01X78879Y52336D01*
G01X78879Y40469D01*
G01X71556Y33147D01*
G01X81534Y80391D02*
G01X83309Y78615D01*
G01X83309Y50581D01*
G01X93896Y39994D01*
G01X93896Y16720D01*
G01X94361Y16256D01*
G01X81534Y82931D02*
G01X81534Y83350D01*
G01X75996Y88884D01*
G01X74863Y88884D01*
G01X72006Y86027D01*
G01X72006Y58668D01*
G01X54991Y41656D01*
G01X48260Y65278D02*
G01X48900Y65278D01*
G01X49811Y64368D01*
G01X49811Y62323D01*
G01X46657Y59171D01*
G01X45984Y59171D01*
G01X40759Y53944D01*
G01X33822Y53944D01*
G01X20104Y40228D01*
G01X17505Y40228D01*
G01X48260Y50038D02*
G01X48260Y52649D01*
G01X57129Y61518D01*
G01X48260Y50038D02*
G01X47663Y50038D01*
G01X23606Y25979D01*
G01X23606Y10767D01*
G01X17505Y4668D01*
G01X62611Y67056D02*
G01X62611Y65290D01*
G01X64526Y63375D01*
G01X64526Y56217D01*
G01X62798Y54490D01*
G01X55780Y54490D01*
G01X50058Y48768D01*
G01X48260Y48768D01*
G01X62611Y87376D02*
G01X54483Y79248D01*
G01X48260Y79248D01*
G01X62611Y82296D02*
G01X51943Y71628D01*
G01X48260Y71628D01*
G01X96774Y49911D02*
G01X95470Y48607D01*
G01X95470Y28437D01*
G01X95102Y28067D01*
G01X40132Y71628D02*
G01X40797Y71628D01*
G01X45692Y66733D01*
G01X52971Y66733D01*
G01X55722Y63985D01*
G01X56433Y63985D01*
G01X62611Y57805D01*
G01X62611Y56896D01*
G01X62611Y72136D02*
G01X61191Y70716D01*
G01X61191Y65745D01*
G01X64023Y62915D01*
G01X64023Y56426D01*
G01X63007Y55410D01*
G01X62031Y55410D01*
G01X59222Y58219D01*
G01X59222Y60485D01*
G01X56403Y63301D01*
G01X54348Y63301D01*
G01X53352Y62306D01*
G01X53352Y60980D01*
G01X48760Y56388D01*
G01X48260Y56388D01*
G01X96774Y60071D02*
G01X95501Y61343D01*
G01X95501Y72971D01*
G01X84228Y84244D01*
G01X54991Y72136D02*
G01X56903Y74048D01*
G01X63446Y74048D01*
G01X66659Y70835D01*
G01X66659Y68475D01*
G36*
G01X95885Y46482D02*
G01X95885Y48260D01*
G01X97663Y48260D01*
G01X97663Y46482D01*
G01X95885Y46482D01*
G37*
G54D16*
G01X96774Y49911D03*
G01X96774Y52451D03*
G01X96774Y54991D03*
G01X96774Y57531D03*
G01X96774Y60071D03*
G01X96774Y62611D03*
G01X96774Y65151D03*
G01X96774Y67691D03*
G01X96774Y70231D03*
G01X96774Y72771D03*
G01X96774Y75311D03*
G01X96774Y77851D03*
G01X96774Y80391D03*
G01X96774Y82931D03*
G01X81534Y47371D03*
G01X81534Y49911D03*
G01X81534Y52451D03*
G01X81534Y54991D03*
G01X81534Y57531D03*
G01X81534Y60071D03*
G01X81534Y62611D03*
G01X81534Y65151D03*
G01X81534Y67691D03*
G01X81534Y70231D03*
G01X81534Y72771D03*
G01X81534Y75311D03*
G01X81534Y77851D03*
G01X81534Y80391D03*
G01X81534Y82931D03*
G54D17*
G01X71556Y30607D03*
G01X71556Y28067D03*
G01X71556Y22987D03*
G01X71556Y25527D03*
G01X71556Y35687D03*
G01X71556Y33147D03*
G54D18*
G01X15506Y46228D03*
G01X17505Y40228D03*
G01X17505Y52227D03*
G01X29705Y52227D03*
G01X29705Y40228D03*
G54D19*
G01X54991Y77216D03*
G01X62611Y77216D03*
G54D20*
G01X67691Y77216D03*
G01X75438Y77216D03*
G54D18*
G01X15506Y28448D03*
G01X17505Y22448D03*
G01X17505Y34447D03*
G01X29705Y34447D03*
G01X29705Y22448D03*
G54D19*
G01X54991Y72136D03*
G01X62611Y72136D03*
G54D20*
G01X67691Y72136D03*
G01X75438Y72136D03*
G54D18*
G01X15506Y10668D03*
G01X17505Y4668D03*
G01X17505Y16667D03*
G01X29705Y16667D03*
G01X29705Y4668D03*
G54D19*
G01X54991Y67056D03*
G01X62611Y67056D03*
G54D20*
G01X67691Y67056D03*
G01X75438Y67056D03*
G54D18*
G01X119748Y10795D03*
G01X117749Y16794D03*
G01X117749Y4795D03*
G01X105549Y4795D03*
G01X105549Y16794D03*
G54D19*
G01X54991Y61976D03*
G01X62611Y61976D03*
G54D20*
G01X67691Y61976D03*
G01X75438Y61976D03*
G54D18*
G01X119748Y28575D03*
G01X117749Y34574D03*
G01X117749Y22575D03*
G01X105549Y22575D03*
G01X105549Y34574D03*
G54D19*
G01X54991Y56896D03*
G01X62611Y56896D03*
G54D20*
G01X67691Y56896D03*
G01X75438Y56896D03*
G54D18*
G01X119748Y46355D03*
G01X117749Y52354D03*
G01X117749Y40355D03*
G01X105549Y40355D03*
G01X105549Y52354D03*
G54D19*
G01X54991Y51816D03*
G01X62611Y51816D03*
G54D20*
G01X67691Y51816D03*
G01X75438Y51816D03*
G54D21*
G01X6908Y43738D03*
G01X6908Y48717D03*
G01X6781Y25958D03*
G01X6781Y30937D03*
G01X6781Y8178D03*
G01X6781Y13157D03*
G36*
G01X130234Y12094D02*
G01X125949Y12094D01*
G01X125949Y14474D01*
G01X130234Y14474D01*
G01X130234Y12094D01*
G37*
G36*
G01X130234Y7115D02*
G01X125949Y7115D01*
G01X125949Y9495D01*
G01X130234Y9495D01*
G01X130234Y7115D01*
G37*
G36*
G01X130107Y29747D02*
G01X125822Y29747D01*
G01X125822Y32127D01*
G01X130107Y32127D01*
G01X130107Y29747D01*
G37*
G36*
G01X130107Y24768D02*
G01X125822Y24768D01*
G01X125822Y27148D01*
G01X130107Y27148D01*
G01X130107Y24768D01*
G37*
G36*
G01X130107Y47781D02*
G01X125822Y47781D01*
G01X125822Y50161D01*
G01X130107Y50161D01*
G01X130107Y47781D01*
G37*
G36*
G01X130107Y42802D02*
G01X125822Y42802D01*
G01X125822Y45182D01*
G01X130107Y45182D01*
G01X130107Y42802D01*
G37*
G54D18*
G01X15506Y81788D03*
G01X17505Y75788D03*
G01X17505Y87787D03*
G01X29705Y87787D03*
G01X29705Y75788D03*
G54D19*
G01X54991Y87376D03*
G01X62611Y87376D03*
G54D20*
G01X67691Y87376D03*
G01X75438Y87376D03*
G54D18*
G01X15506Y64008D03*
G01X17505Y58008D03*
G01X17505Y70007D03*
G01X29705Y70007D03*
G01X29705Y58008D03*
G54D19*
G01X54991Y82296D03*
G01X62611Y82296D03*
G54D20*
G01X67691Y82296D03*
G01X75438Y82296D03*
G54D18*
G01X119748Y64135D03*
G01X117749Y70134D03*
G01X117749Y58135D03*
G01X105549Y58135D03*
G01X105549Y70134D03*
G54D19*
G01X54991Y46736D03*
G01X62611Y46736D03*
G54D20*
G01X67691Y46736D03*
G01X75438Y46736D03*
G54D18*
G01X119748Y81915D03*
G01X117749Y87914D03*
G01X117749Y75915D03*
G01X105549Y75915D03*
G01X105549Y87914D03*
G54D19*
G01X54991Y41656D03*
G01X62611Y41656D03*
G54D20*
G01X67691Y41656D03*
G01X75438Y41656D03*
G54D21*
G01X6908Y79298D03*
G01X6908Y84277D03*
G01X6908Y61518D03*
G01X6908Y66497D03*
G36*
G01X130107Y65307D02*
G01X125822Y65307D01*
G01X125822Y67687D01*
G01X130107Y67687D01*
G01X130107Y65307D01*
G37*
G36*
G01X130107Y60328D02*
G01X125822Y60328D01*
G01X125822Y62708D01*
G01X130107Y62708D01*
G01X130107Y60328D01*
G37*
G36*
G01X130107Y83214D02*
G01X125822Y83214D01*
G01X125822Y85594D01*
G01X130107Y85594D01*
G01X130107Y83214D01*
G37*
G36*
G01X130107Y78235D02*
G01X125822Y78235D01*
G01X125822Y80615D01*
G01X130107Y80615D01*
G01X130107Y78235D01*
G37*
G36*
G01X40610Y9203D02*
G01X40610Y4918D01*
G01X38230Y4918D01*
G01X38230Y9203D01*
G01X40610Y9203D01*
G37*
G36*
G01X45589Y9203D02*
G01X45589Y4918D01*
G01X43209Y4918D01*
G01X43209Y9203D01*
G01X45589Y9203D01*
G37*
G36*
G01X67534Y9330D02*
G01X67534Y5045D01*
G01X65154Y5045D01*
G01X65154Y9330D01*
G01X67534Y9330D01*
G37*
G36*
G01X72513Y9330D02*
G01X72513Y5045D01*
G01X70133Y5045D01*
G01X70133Y9330D01*
G01X72513Y9330D01*
G37*
G54D23*
G01X91950Y7790D03*
G01X96791Y7790D03*
G54D24*
G01X94361Y16256D03*
G01X94361Y13716D03*
G54D12*
G01X71277Y74041D03*
G01X52671Y66006D03*
G01X93151Y20589D03*
G01X78605Y61376D03*
G01X71724Y53721D03*
G01X73888Y58801D03*
G01X78219Y85595D03*
G01X63068Y58834D03*
G01X94625Y30607D03*
G01X91160Y45184D03*
G01X57129Y61518D03*
G01X95102Y28067D03*
G01X84228Y84244D03*
G01X66659Y68475D03*
G54D25*
G01X48759Y65278D02*
G01X47760Y65278D01*
G01X48759Y64008D02*
G01X47760Y64008D01*
G01X48759Y62738D02*
G01X47760Y62738D01*
G01X48759Y57658D02*
G01X47760Y57658D01*
G01X48759Y56388D02*
G01X47760Y56388D01*
G01X48759Y55118D02*
G01X47760Y55118D01*
G01X48759Y50038D02*
G01X47760Y50038D01*
G01X48759Y48768D02*
G01X47760Y48768D01*
G01X48759Y47498D02*
G01X47760Y47498D01*
G01X40631Y80518D02*
G01X39632Y80518D01*
G01X40631Y79248D02*
G01X39632Y79248D01*
G01X40631Y77978D02*
G01X39632Y77978D01*
G01X40631Y72898D02*
G01X39632Y72898D01*
G01X40631Y71628D02*
G01X39632Y71628D01*
G01X40631Y70358D02*
G01X39632Y70358D01*
G01X40631Y65278D02*
G01X39632Y65278D01*
G01X40631Y64008D02*
G01X39632Y64008D01*
G01X40631Y62738D02*
G01X39632Y62738D01*
G01X48759Y80518D02*
G01X47760Y80518D01*
G01X48759Y79248D02*
G01X47760Y79248D01*
G01X48759Y77978D02*
G01X47760Y77978D01*
G01X48759Y72898D02*
G01X47760Y72898D01*
G01X48759Y71628D02*
G01X47760Y71628D01*
G01X48759Y70358D02*
G01X47760Y70358D01*
G01X40631Y57658D02*
G01X39632Y57658D01*
G01X40631Y56388D02*
G01X39632Y56388D01*
G01X40631Y55118D02*
G01X39632Y55118D01*
G01X40631Y50038D02*
G01X39632Y50038D01*
G01X40631Y48768D02*
G01X39632Y48768D01*
G01X40631Y47498D02*
G01X39632Y47498D01*
G54D26*
G01X88138Y23495D02*
G01X88138Y22987D01*
G01X90678Y23495D02*
G01X90678Y22987D01*
G01X85598Y23495D02*
G01X85598Y22987D01*
G54D18*
G01X58212Y12393D02*
G01X58212Y14393D01*
G01X52213Y10293D02*
G01X54212Y10293D01*
G01X52213Y16493D02*
G01X54212Y16493D01*
G01X85009Y12520D02*
G01X85009Y14520D01*
G01X79010Y10420D02*
G01X81009Y10420D01*
G01X79010Y16620D02*
G01X81009Y16620D01*
G54D27*
G01X97980Y5540D02*
G01X97980Y4640D01*
G01X90741Y5540D02*
G01X90741Y4640D01*
M00*
M02*
